solid cruise-inner
facet normal 1.0 -0.0 -0.0
  outer loop
    vertex 0.7124052326001409 36.031454154131374 10.0
    vertex 0.7124052326001409 26.15182101972315 11.0
    vertex 0.7124052326001409 26.15182101972315 10.0
  endloop
endfacet
facet normal 1.0 -0.0 -0.0
  outer loop
    vertex 0.7124052326001409 26.15182101972315 11.0
    vertex 0.7124052326001409 36.031454154131374 10.0
    vertex 0.7124052326001409 36.031454154131374 11.0
  endloop
endfacet
facet normal -0.733298308116592 0.6799070460830242 4.2953161321492975e-18
  outer loop
    vertex 0.7124052326001409 36.031454154131374 11.0
    vertex -0.4200145546020989 34.81010850281457 0.0
    vertex -0.4200145546020989 34.81010850281457 11.0
  endloop
endfacet
facet normal -0.733298308116592 0.6799070460830242 4.2953161321492975e-18
  outer loop
    vertex -0.4200145546020989 34.81010850281457 0.0
    vertex 0.7124052326001409 36.031454154131374 11.0
    vertex 0.7124052326001409 36.031454154131374 0.0
  endloop
endfacet
facet normal -0.733298308116592 0.6799070460830242 4.2953161321492975e-18
  outer loop
    vertex 0.7124052326001409 36.031454154131374 0.0
    vertex 0.7124052326001409 36.031454154131374 11.0
    vertex 0.7124052326001409 36.031454154131374 10.0
  endloop
endfacet
facet normal 1.0 -0.0 -0.0
  outer loop
    vertex 0.7124052326001409 14.151821019723222 0.0
    vertex 0.7124052326001409 3.739532715372636 10.0
    vertex 0.7124052326001409 3.739532715372636 0.0
  endloop
endfacet
facet normal 1.0 -0.0 -0.0
  outer loop
    vertex 0.7124052326001409 3.739532715372636 10.0
    vertex 0.7124052326001409 14.151821019723222 0.0
    vertex 0.7124052326001409 14.151821019723222 10.0
  endloop
endfacet
facet normal -0.0 -0.0 1.0
  outer loop
    vertex -6.474948986358175 16.903158472217573 11.0
    vertex -6.585885868434371 23.29298943414716 11.0
    vertex -7.2875947673998445 20.1518210197232 11.0
  endloop
endfacet
facet normal -0.0 -0.0 1.0
  outer loop
    vertex -6.585885868434371 23.29298943414716 11.0
    vertex -6.474948986358175 16.903158472217573 11.0
    vertex -5.554543529193195 26.34186912445156 11.0
  endloop
endfacet
facet normal -0.0 -0.0 1.0
  outer loop
    vertex -5.554543529193195 26.34186912445156 11.0
    vertex -6.474948986358175 16.903158472217573 11.0
    vertex -5.368858740423223 13.742341191693805 11.0
  endloop
endfacet
facet normal -0.0 -0.0 1.0
  outer loop
    vertex -5.554543529193195 26.34186912445156 11.0
    vertex -5.368858740423223 13.742341191693805 11.0
    vertex -4.205233360670178 29.263973923356417 11.0
  endloop
endfacet
facet normal -0.0 -0.0 1.0
  outer loop
    vertex -4.205233360670178 29.263973923356417 11.0
    vertex -5.368858740423223 13.742341191693805 11.0
    vertex -3.978578412566562 10.695814953010585 11.0
  endloop
endfacet
facet normal -0.0 -0.0 1.0
  outer loop
    vertex -4.205233360670178 29.263973923356417 11.0
    vertex -3.978578412566562 10.695814953010585 11.0
    vertex -2.5532175381267264 32.026251626399386 11.0
  endloop
endfacet
facet normal -0.0 -0.0 1.0
  outer loop
    vertex -2.5532175381267264 32.026251626399386 11.0
    vertex -3.978578412566562 10.695814953010585 11.0
    vertex -2.3157401337462113 7.789069286203768 11.0
  endloop
endfacet
facet normal -0.0 -0.0 1.0
  outer loop
    vertex -2.5532175381267264 32.026251626399386 11.0
    vertex -2.3157401337462113 7.789069286203768 11.0
    vertex -0.61718216918016 34.59745784855469 11.0
  endloop
endfacet
facet normal -0.0 -0.0 1.0
  outer loop
    vertex -0.61718216918016 34.59745784855469 11.0
    vertex -2.3157401337462113 7.789069286203768 11.0
    vertex -0.3942564597492684 5.046424211905337 11.0
  endloop
endfacet
facet normal -0.0 -0.0 1.0
  outer loop
    vertex -0.61718216918016 34.59745784855469 11.0
    vertex -0.3942564597492684 5.046424211905337 11.0
    vertex -0.4200145546020989 34.81010850281457 11.0
  endloop
endfacet
facet normal -0.0 -0.0 1.0
  outer loop
    vertex -0.4200145546020989 34.81010850281457 11.0
    vertex -0.3942564597492684 5.046424211905337 11.0
    vertex 0.7124052326001409 36.031454154131374 11.0
  endloop
endfacet
facet normal -0.0 -0.0 1.0
  outer loop
    vertex 0.7124052326001409 36.031454154131374 11.0
    vertex -0.3942564597492684 5.046424211905337 11.0
    vertex 0.7124052326001409 3.739532715372636 11.0
  endloop
endfacet
facet normal -0.0 -0.0 1.0
  outer loop
    vertex 0.7124052326001409 36.031454154131374 11.0
    vertex 0.7124052326001409 3.739532715372636 11.0
    vertex 0.7124052326001409 14.151821019723222 11.0
  endloop
endfacet
facet normal -0.0 -0.0 1.0
  outer loop
    vertex 0.7124052326001409 36.031454154131374 11.0
    vertex 0.7124052326001409 14.151821019723222 11.0
    vertex 0.7124052326001409 26.15182101972315 11.0
  endloop
endfacet
facet normal 1.0 -0.0 -0.0
  outer loop
    vertex 0.7124052326001409 26.15182101972315 0.0
    vertex 0.7124052326001409 14.151821019723222 10.0
    vertex 0.7124052326001409 14.151821019723222 0.0
  endloop
endfacet
facet normal 1.0 -0.0 -0.0
  outer loop
    vertex 0.7124052326001409 14.151821019723222 10.0
    vertex 0.7124052326001409 26.15182101972315 0.0
    vertex 0.7124052326001409 26.15182101972315 10.0
  endloop
endfacet
facet normal -0.0 -0.0 1.0
  outer loop
    vertex -6.747423230511137 9.549078732480892 11.0
    vertex -7.2875947673998445 20.1518210197232 11.0
    vertex -8.263774902655042 12.965053275584767 11.0
  endloop
endfacet
facet normal -0.0 -0.0 1.0
  outer loop
    vertex -7.2875947673998445 20.1518210197232 11.0
    vertex -6.747423230511137 9.549078732480892 11.0
    vertex -6.474948986358175 16.903158472217573 11.0
  endloop
endfacet
facet normal -0.0 -0.0 1.0
  outer loop
    vertex -6.474948986358175 16.903158472217573 11.0
    vertex -6.747423230511137 9.549078732480892 11.0
    vertex -4.912197717181393 6.293291302692112 11.0
  endloop
endfacet
facet normal -0.0 -0.0 1.0
  outer loop
    vertex -6.474948986358175 16.903158472217573 11.0
    vertex -4.912197717181393 6.293291302692112 11.0
    vertex -5.368858740423223 13.742341191693805 11.0
  endloop
endfacet
facet normal -0.0 -0.0 1.0
  outer loop
    vertex -5.368858740423223 13.742341191693805 11.0
    vertex -4.912197717181393 6.293291302692112 11.0
    vertex -3.978578412566562 10.695814953010585 11.0
  endloop
endfacet
facet normal -0.0 -0.0 1.0
  outer loop
    vertex -3.978578412566562 10.695814953010585 11.0
    vertex -4.912197717181393 6.293291302692112 11.0
    vertex -2.774829104322869 3.22737220957916 11.0
  endloop
endfacet
facet normal -0.0 -0.0 1.0
  outer loop
    vertex -3.978578412566562 10.695814953010585 11.0
    vertex -2.774829104322869 3.22737220957916 11.0
    vertex -2.3157401337462113 7.789069286203768 11.0
  endloop
endfacet
facet normal -0.0 -0.0 1.0
  outer loop
    vertex -2.3157401337462113 7.789069286203768 11.0
    vertex -2.774829104322869 3.22737220957916 11.0
    vertex -0.35480260605686487 0.379271751302155 11.0
  endloop
endfacet
facet normal -0.0 -0.0 1.0
  outer loop
    vertex -2.3157401337462113 7.789069286203768 11.0
    vertex -0.35480260605686487 0.379271751302155 11.0
    vertex -0.3942564597492684 5.046424211905337 11.0
  endloop
endfacet
facet normal -0.0 -0.0 1.0
  outer loop
    vertex -0.3942564597492684 5.046424211905337 11.0
    vertex -0.35480260605686487 0.379271751302155 11.0
    vertex 0.7124052326001409 3.739532715372636 11.0
  endloop
endfacet
facet normal -0.0 -0.0 1.0
  outer loop
    vertex 0.7124052326001409 3.739532715372636 11.0
    vertex -0.35480260605686487 0.379271751302155 11.0
    vertex 0.0 0.0 11.0
  endloop
endfacet
facet normal -0.0 -0.0 1.0
  outer loop
    vertex 0.7124052326001409 3.739532715372636 11.0
    vertex 0.0 0.0 11.0
    vertex 1.769796031714291 2.490826761757765 11.0
  endloop
endfacet
facet normal -0.0 -0.0 1.0
  outer loop
    vertex 1.769796031714291 2.490826761757765 11.0
    vertex 0.0 0.0 11.0
    vertex 2.0413532981018445 2.198380474878905 11.0
  endloop
endfacet
facet normal -0.0 -0.0 1.0
  outer loop
    vertex -9.447428989389923 16.510073370831527 11.0
    vertex -9.558835457165726 23.687088268702997 11.0
    vertex -10.287594767399838 20.1518210197232 11.0
  endloop
endfacet
facet normal -0.0 -0.0 1.0
  outer loop
    vertex -9.558835457165726 23.687088268702997 11.0
    vertex -9.447428989389923 16.510073370831527 11.0
    vertex -8.449727065984282 27.12206763262542 11.0
  endloop
endfacet
facet normal -0.0 -0.0 1.0
  outer loop
    vertex -8.449727065984282 27.12206763262542 11.0
    vertex -9.447428989389923 16.510073370831527 11.0
    vertex -8.263774902655042 12.965053275584767 11.0
  endloop
endfacet
facet normal -0.0 -0.0 1.0
  outer loop
    vertex -8.449727065984282 27.12206763262542 11.0
    vertex -8.263774902655042 12.965053275584767 11.0
    vertex -6.973440364790339 30.415968394615692 11.0
  endloop
endfacet
facet normal -0.0 -0.0 1.0
  outer loop
    vertex -6.973440364790339 30.415968394615692 11.0
    vertex -8.263774902655042 12.965053275584767 11.0
    vertex -7.2875947673998445 20.1518210197232 11.0
  endloop
endfacet
facet normal -0.0 -0.0 1.0
  outer loop
    vertex -6.973440364790339 30.415968394615692 11.0
    vertex -7.2875947673998445 20.1518210197232 11.0
    vertex -6.585885868434371 23.29298943414716 11.0
  endloop
endfacet
facet normal -0.0 -0.0 1.0
  outer loop
    vertex -6.973440364790339 30.415968394615692 11.0
    vertex -6.585885868434371 23.29298943414716 11.0
    vertex -5.1475064029657425 33.52967516003502 11.0
  endloop
endfacet
facet normal -0.0 -0.0 1.0
  outer loop
    vertex -5.1475064029657425 33.52967516003502 11.0
    vertex -6.585885868434371 23.29298943414716 11.0
    vertex -5.554543529193195 26.34186912445156 11.0
  endloop
endfacet
facet normal -0.0 -0.0 1.0
  outer loop
    vertex -5.1475064029657425 33.52967516003502 11.0
    vertex -5.554543529193195 26.34186912445156 11.0
    vertex -4.205233360670178 29.263973923356417 11.0
  endloop
endfacet
facet normal -0.0 -0.0 1.0
  outer loop
    vertex -5.1475064029657425 33.52967516003502 11.0
    vertex -4.205233360670178 29.263973923356417 11.0
    vertex -2.9936083254083137 36.42621235562854 11.0
  endloop
endfacet
facet normal -0.0 -0.0 1.0
  outer loop
    vertex -2.9936083254083137 36.42621235562854 11.0
    vertex -4.205233360670178 29.263973923356417 11.0
    vertex -2.5532175381267264 32.026251626399386 11.0
  endloop
endfacet
facet normal -0.0 -0.0 1.0
  outer loop
    vertex -2.9936083254083137 36.42621235562854 11.0
    vertex -2.5532175381267264 32.026251626399386 11.0
    vertex -2.611338271056381 36.841882500620216 11.0
  endloop
endfacet
facet normal -0.0 -0.0 1.0
  outer loop
    vertex -2.611338271056381 36.841882500620216 11.0
    vertex -2.5532175381267264 32.026251626399386 11.0
    vertex -0.61718216918016 34.59745784855469 11.0
  endloop
endfacet
facet normal -0.0 -0.0 1.0
  outer loop
    vertex -2.611338271056381 36.841882500620216 11.0
    vertex -0.61718216918016 34.59745784855469 11.0
    vertex -0.4200145546020989 34.81010850281457 11.0
  endloop
endfacet
facet normal -0.9485241864597515 -0.3167047011031997 0.0
  outer loop
    vertex -9.447428989389923 16.510073370831527 11.0
    vertex -8.263774902655042 12.965053275584767 0.0
    vertex -8.263774902655042 12.965053275584767 11.0
  endloop
endfacet
facet normal -0.9485241864597515 -0.3167047011031997 0.0
  outer loop
    vertex -8.263774902655042 12.965053275584767 0.0
    vertex -9.447428989389923 16.510073370831527 11.0
    vertex -9.447428989389923 16.510073370831527 0.0
  endloop
endfacet
facet normal -0.951623546475135 0.30726637595755063 0.0
  outer loop
    vertex -8.449727065984282 27.12206763262542 11.0
    vertex -9.558835457165726 23.687088268702997 0.0
    vertex -9.558835457165726 23.687088268702997 11.0
  endloop
endfacet
facet normal -0.951623546475135 0.30726637595755063 0.0
  outer loop
    vertex -9.558835457165726 23.687088268702997 0.0
    vertex -8.449727065984282 27.12206763262542 11.0
    vertex -8.449727065984282 27.12206763262542 0.0
  endloop
endfacet
facet normal -0.9139960810967723 -0.40572301356928553 0.0
  outer loop
    vertex -8.263774902655042 12.965053275584767 11.0
    vertex -6.747423230511137 9.549078732480892 0.0
    vertex -6.747423230511137 9.549078732480892 11.0
  endloop
endfacet
facet normal -0.9139960810967723 -0.40572301356928553 0.0
  outer loop
    vertex -6.747423230511137 9.549078732480892 0.0
    vertex -8.263774902655042 12.965053275584767 11.0
    vertex -8.263774902655042 12.965053275584767 0.0
  endloop
endfacet
facet normal -0.9744051184895477 -0.22479916606022027 0.0
  outer loop
    vertex -10.287594767399838 20.1518210197232 11.0
    vertex -9.447428989389923 16.510073370831527 0.0
    vertex -9.447428989389923 16.510073370831527 11.0
  endloop
endfacet
facet normal -0.9744051184895477 -0.22479916606022027 0.0
  outer loop
    vertex -9.447428989389923 16.510073370831527 0.0
    vertex -10.287594767399838 20.1518210197232 11.0
    vertex -10.287594767399838 20.1518210197232 0.0
  endloop
endfacet
facet normal -0.7620527098746442 -0.6475149939365972 0.0
  outer loop
    vertex -2.774829104322869 3.22737220957916 11.0
    vertex -0.35480260605686487 0.379271751302155 0.0
    vertex -0.35480260605686487 0.379271751302155 11.0
  endloop
endfacet
facet normal -0.7620527098746442 -0.6475149939365972 0.0
  outer loop
    vertex -0.35480260605686487 0.379271751302155 0.0
    vertex -2.774829104322869 3.22737220957916 11.0
    vertex -2.774829104322869 3.22737220957916 0.0
  endloop
endfacet
facet normal 0.0 0.0 -1.0
  outer loop
    vertex -6.585885868434371 23.29298943414716 0.0
    vertex -6.474948986358175 16.903158472217573 0.0
    vertex -7.2875947673998445 20.1518210197232 0.0
  endloop
endfacet
facet normal 0.0 0.0 -1.0
  outer loop
    vertex -6.474948986358175 16.903158472217573 0.0
    vertex -6.585885868434371 23.29298943414716 0.0
    vertex -5.554543529193195 26.34186912445156 0.0
  endloop
endfacet
facet normal 0.0 0.0 -1.0
  outer loop
    vertex -6.474948986358175 16.903158472217573 0.0
    vertex -5.554543529193195 26.34186912445156 0.0
    vertex -5.368858740423223 13.742341191693805 0.0
  endloop
endfacet
facet normal 0.0 0.0 -1.0
  outer loop
    vertex -5.368858740423223 13.742341191693805 0.0
    vertex -5.554543529193195 26.34186912445156 0.0
    vertex -4.205233360670178 29.263973923356417 0.0
  endloop
endfacet
facet normal 0.0 0.0 -1.0
  outer loop
    vertex -5.368858740423223 13.742341191693805 0.0
    vertex -4.205233360670178 29.263973923356417 0.0
    vertex -3.978578412566562 10.695814953010585 0.0
  endloop
endfacet
facet normal 0.0 0.0 -1.0
  outer loop
    vertex -3.978578412566562 10.695814953010585 0.0
    vertex -4.205233360670178 29.263973923356417 0.0
    vertex -2.5532175381267264 32.026251626399386 0.0
  endloop
endfacet
facet normal 0.0 0.0 -1.0
  outer loop
    vertex -3.978578412566562 10.695814953010585 0.0
    vertex -2.5532175381267264 32.026251626399386 0.0
    vertex -2.3157401337462113 7.789069286203768 0.0
  endloop
endfacet
facet normal 0.0 0.0 -1.0
  outer loop
    vertex -2.3157401337462113 7.789069286203768 0.0
    vertex -2.5532175381267264 32.026251626399386 0.0
    vertex -0.61718216918016 34.59745784855469 0.0
  endloop
endfacet
facet normal 0.0 0.0 -1.0
  outer loop
    vertex -2.3157401337462113 7.789069286203768 0.0
    vertex -0.61718216918016 34.59745784855469 0.0
    vertex -0.3942564597492684 5.046424211905337 0.0
  endloop
endfacet
facet normal 0.0 0.0 -1.0
  outer loop
    vertex -0.3942564597492684 5.046424211905337 0.0
    vertex -0.61718216918016 34.59745784855469 0.0
    vertex -0.4200145546020989 34.81010850281457 0.0
  endloop
endfacet
facet normal 0.0 0.0 -1.0
  outer loop
    vertex -0.3942564597492684 5.046424211905337 0.0
    vertex -0.4200145546020989 34.81010850281457 0.0
    vertex 0.7124052326001409 36.031454154131374 0.0
  endloop
endfacet
facet normal 0.0 0.0 -1.0
  outer loop
    vertex -0.3942564597492684 5.046424211905337 0.0
    vertex 0.7124052326001409 36.031454154131374 0.0
    vertex 0.7124052326001409 3.739532715372636 0.0
  endloop
endfacet
facet normal 0.0 0.0 -1.0
  outer loop
    vertex 0.7124052326001409 3.739532715372636 0.0
    vertex 0.7124052326001409 36.031454154131374 0.0
    vertex 0.7124052326001409 35.531454154131374 0.0
  endloop
endfacet
facet normal 0.0 0.0 -1.0
  outer loop
    vertex 0.7124052326001409 3.739532715372636 0.0
    vertex 0.7124052326001409 35.531454154131374 0.0
    vertex 0.7124052326001409 26.651821019723148 0.0
  endloop
endfacet
facet normal 0.0 0.0 -1.0
  outer loop
    vertex 0.7124052326001409 3.739532715372636 0.0
    vertex 0.7124052326001409 26.651821019723148 0.0
    vertex 0.7124052326001409 26.15182101972315 0.0
  endloop
endfacet
facet normal 0.0 0.0 -1.0
  outer loop
    vertex 0.7124052326001409 3.739532715372636 0.0
    vertex 0.7124052326001409 26.15182101972315 0.0
    vertex 0.7124052326001409 14.151821019723222 0.0
  endloop
endfacet
facet normal -0.7302714135188858 -0.6831571287757515 0.0
  outer loop
    vertex -0.35480260605686487 0.379271751302155 11.0
    vertex 0.0 0.0 0.0
    vertex 0.0 0.0 11.0
  endloop
endfacet
facet normal -0.7302714135188858 -0.6831571287757515 0.0
  outer loop
    vertex 0.0 0.0 0.0
    vertex -0.35480260605686487 0.379271751302155 11.0
    vertex -0.35480260605686487 0.379271751302155 0.0
  endloop
endfacet
facet normal -0.9125392594157951 0.4089891196900872 0.0
  outer loop
    vertex -6.973440364790339 30.415968394615692 11.0
    vertex -8.449727065984282 27.12206763262542 0.0
    vertex -8.449727065984282 27.12206763262542 11.0
  endloop
endfacet
facet normal -0.9125392594157951 0.4089891196900872 0.0
  outer loop
    vertex -8.449727065984282 27.12206763262542 0.0
    vertex -6.973440364790339 30.415968394615692 11.0
    vertex -6.973440364790339 30.415968394615692 0.0
  endloop
endfacet
facet normal -0.736060239871213 0.6769160385754887 -6.838085127827393e-20
  outer loop
    vertex -2.611338271056381 36.841882500620216 11.0
    vertex -2.9936083254083137 36.42621235562854 0.0
    vertex -2.9936083254083137 36.42621235562854 11.0
  endloop
endfacet
facet normal -0.736060239871213 0.6769160385754887 -6.838085127827393e-20
  outer loop
    vertex -2.9936083254083137 36.42621235562854 0.0
    vertex -2.611338271056381 36.841882500620216 11.0
    vertex -2.611338271056381 36.841882500620216 -3.524958103184922e-16
  endloop
endfacet
facet normal 0.6799070460830389 0.7332983081165786 6.782549964512518e-18
  outer loop
    vertex -2.611338271056381 36.841882500620216 11.0
    vertex -0.4200145546020989 34.81010850281457 0.0
    vertex -2.611338271056381 36.841882500620216 -3.524958103184922e-16
  endloop
endfacet
facet normal 0.6799070460830389 0.7332983081165786 6.782549964512518e-18
  outer loop
    vertex -0.4200145546020989 34.81010850281457 0.0
    vertex -2.611338271056381 36.841882500620216 11.0
    vertex -0.4200145546020989 34.81010850281457 11.0
  endloop
endfacet
facet normal -0.8626184791422858 0.5058550775096066 0.0
  outer loop
    vertex -5.1475064029657425 33.52967516003502 11.0
    vertex -6.973440364790339 30.415968394615692 0.0
    vertex -6.973440364790339 30.415968394615692 11.0
  endloop
endfacet
facet normal -0.8626184791422858 0.5058550775096066 0.0
  outer loop
    vertex -6.973440364790339 30.415968394615692 0.0
    vertex -5.1475064029657425 33.52967516003502 11.0
    vertex -5.1475064029657425 33.52967516003502 0.0
  endloop
endfacet
facet normal 0.7327934916262985 -0.6804510993672785 -0.0
  outer loop
    vertex 2.0413532981018445 2.198380474878905 0.0
    vertex 0.0 0.0 11.0
    vertex 0.0 0.0 0.0
  endloop
endfacet
facet normal 0.7327934916262985 -0.6804510993672785 -0.0
  outer loop
    vertex 0.0 0.0 11.0
    vertex 2.0413532981018445 2.198380474878905 0.0
    vertex 2.0413532981018445 2.198380474878905 11.0
  endloop
endfacet
facet normal -3.61493765552937e-18 -1.8717647446838045e-18 -1.0
  outer loop
    vertex -9.558835457165726 23.687088268702997 0.0
    vertex -9.447428989389923 16.510073370831527 0.0
    vertex -10.287594767399838 20.1518210197232 0.0
  endloop
endfacet
facet normal -3.61493765552937e-18 -1.8717647446838045e-18 -1.0
  outer loop
    vertex -9.447428989389923 16.510073370831527 0.0
    vertex -9.558835457165726 23.687088268702997 0.0
    vertex -8.449727065984282 27.12206763262542 0.0
  endloop
endfacet
facet normal -3.61493765552937e-18 -1.8717647446838045e-18 -1.0
  outer loop
    vertex -9.447428989389923 16.510073370831527 0.0
    vertex -8.449727065984282 27.12206763262542 0.0
    vertex -8.263774902655042 12.965053275584767 0.0
  endloop
endfacet
facet normal -3.61493765552937e-18 -1.8717647446838045e-18 -1.0
  outer loop
    vertex -8.263774902655042 12.965053275584767 0.0
    vertex -8.449727065984282 27.12206763262542 0.0
    vertex -6.973440364790339 30.415968394615692 0.0
  endloop
endfacet
facet normal -3.61493765552937e-18 -1.8717647446838045e-18 -1.0
  outer loop
    vertex -8.263774902655042 12.965053275584767 0.0
    vertex -6.973440364790339 30.415968394615692 0.0
    vertex -7.2875947673998445 20.1518210197232 0.0
  endloop
endfacet
facet normal -3.61493765552937e-18 -1.8717647446838045e-18 -1.0
  outer loop
    vertex -7.2875947673998445 20.1518210197232 0.0
    vertex -6.973440364790339 30.415968394615692 0.0
    vertex -6.585885868434371 23.29298943414716 0.0
  endloop
endfacet
facet normal -3.61493765552937e-18 -1.8717647446838045e-18 -1.0
  outer loop
    vertex -6.585885868434371 23.29298943414716 0.0
    vertex -6.973440364790339 30.415968394615692 0.0
    vertex -5.1475064029657425 33.52967516003502 0.0
  endloop
endfacet
facet normal -3.61493765552937e-18 -1.8717647446838045e-18 -1.0
  outer loop
    vertex -6.585885868434371 23.29298943414716 0.0
    vertex -5.1475064029657425 33.52967516003502 0.0
    vertex -5.554543529193195 26.34186912445156 0.0
  endloop
endfacet
facet normal -3.61493765552937e-18 -1.8717647446838045e-18 -1.0
  outer loop
    vertex -5.554543529193195 26.34186912445156 0.0
    vertex -5.1475064029657425 33.52967516003502 0.0
    vertex -4.205233360670178 29.263973923356417 0.0
  endloop
endfacet
facet normal -3.61493765552937e-18 -1.8717647446838045e-18 -1.0
  outer loop
    vertex -4.205233360670178 29.263973923356417 0.0
    vertex -5.1475064029657425 33.52967516003502 0.0
    vertex -2.9936083254083137 36.42621235562854 0.0
  endloop
endfacet
facet normal -3.61493765552937e-18 -1.8717647446838045e-18 -1.0
  outer loop
    vertex -4.205233360670178 29.263973923356417 0.0
    vertex -2.9936083254083137 36.42621235562854 0.0
    vertex -2.5532175381267264 32.026251626399386 0.0
  endloop
endfacet
facet normal -3.61493765552937e-18 -1.8717647446838045e-18 -1.0
  outer loop
    vertex -2.5532175381267264 32.026251626399386 0.0
    vertex -2.9936083254083137 36.42621235562854 0.0
    vertex -2.611338271056381 36.841882500620216 -3.524958103184922e-16
  endloop
endfacet
facet normal -3.61493765552937e-18 -1.8717647446838045e-18 -1.0
  outer loop
    vertex -2.5532175381267264 32.026251626399386 0.0
    vertex -2.611338271056381 36.841882500620216 -3.524958103184922e-16
    vertex -0.61718216918016 34.59745784855469 0.0
  endloop
endfacet
facet normal -3.61493765552937e-18 -1.8717647446838045e-18 -1.0
  outer loop
    vertex -0.61718216918016 34.59745784855469 0.0
    vertex -2.611338271056381 36.841882500620216 -3.524958103184922e-16
    vertex -0.4200145546020989 34.81010850281457 0.0
  endloop
endfacet
facet normal -3.61493765552937e-18 -1.8717647446838045e-18 -1.0
  outer loop
    vertex -7.2875947673998445 20.1518210197232 0.0
    vertex -6.747423230511137 9.549078732480892 0.0
    vertex -8.263774902655042 12.965053275584767 0.0
  endloop
endfacet
facet normal -3.61493765552937e-18 -1.8717647446838045e-18 -1.0
  outer loop
    vertex -6.747423230511137 9.549078732480892 0.0
    vertex -7.2875947673998445 20.1518210197232 0.0
    vertex -6.474948986358175 16.903158472217573 0.0
  endloop
endfacet
facet normal -3.61493765552937e-18 -1.8717647446838045e-18 -1.0
  outer loop
    vertex -6.747423230511137 9.549078732480892 0.0
    vertex -6.474948986358175 16.903158472217573 0.0
    vertex -4.912197717181393 6.293291302692112 0.0
  endloop
endfacet
facet normal -3.61493765552937e-18 -1.8717647446838045e-18 -1.0
  outer loop
    vertex -4.912197717181393 6.293291302692112 0.0
    vertex -6.474948986358175 16.903158472217573 0.0
    vertex -5.368858740423223 13.742341191693805 0.0
  endloop
endfacet
facet normal -3.61493765552937e-18 -1.8717647446838045e-18 -1.0
  outer loop
    vertex -4.912197717181393 6.293291302692112 0.0
    vertex -5.368858740423223 13.742341191693805 0.0
    vertex -3.978578412566562 10.695814953010585 0.0
  endloop
endfacet
facet normal -3.61493765552937e-18 -1.8717647446838045e-18 -1.0
  outer loop
    vertex -4.912197717181393 6.293291302692112 0.0
    vertex -3.978578412566562 10.695814953010585 0.0
    vertex -2.774829104322869 3.22737220957916 0.0
  endloop
endfacet
facet normal -3.61493765552937e-18 -1.8717647446838045e-18 -1.0
  outer loop
    vertex -2.774829104322869 3.22737220957916 0.0
    vertex -3.978578412566562 10.695814953010585 0.0
    vertex -2.3157401337462113 7.789069286203768 0.0
  endloop
endfacet
facet normal -3.61493765552937e-18 -1.8717647446838045e-18 -1.0
  outer loop
    vertex -2.774829104322869 3.22737220957916 0.0
    vertex -2.3157401337462113 7.789069286203768 0.0
    vertex -0.35480260605686487 0.379271751302155 0.0
  endloop
endfacet
facet normal -3.61493765552937e-18 -1.8717647446838045e-18 -1.0
  outer loop
    vertex -0.35480260605686487 0.379271751302155 0.0
    vertex -2.3157401337462113 7.789069286203768 0.0
    vertex -0.3942564597492684 5.046424211905337 0.0
  endloop
endfacet
facet normal -3.61493765552937e-18 -1.8717647446838045e-18 -1.0
  outer loop
    vertex -0.35480260605686487 0.379271751302155 0.0
    vertex -0.3942564597492684 5.046424211905337 0.0
    vertex 0.7124052326001409 3.739532715372636 0.0
  endloop
endfacet
facet normal -3.61493765552937e-18 -1.8717647446838045e-18 -1.0
  outer loop
    vertex -0.35480260605686487 0.379271751302155 0.0
    vertex 0.7124052326001409 3.739532715372636 0.0
    vertex 0.0 0.0 0.0
  endloop
endfacet
facet normal -3.61493765552937e-18 -1.8717647446838045e-18 -1.0
  outer loop
    vertex 0.0 0.0 0.0
    vertex 0.7124052326001409 3.739532715372636 0.0
    vertex 1.769796031714291 2.490826761757765 0.0
  endloop
endfacet
facet normal -3.61493765552937e-18 -1.8717647446838045e-18 -1.0
  outer loop
    vertex 0.0 0.0 0.0
    vertex 1.769796031714291 2.490826761757765 0.0
    vertex 2.0413532981018445 2.198380474878905 0.0
  endloop
endfacet
facet normal 0.7327934916262488 0.6804510993673321 -0.0
  outer loop
    vertex 1.769796031714291 2.490826761757765 0.0
    vertex 2.0413532981018445 2.198380474878905 11.0
    vertex 2.0413532981018445 2.198380474878905 0.0
  endloop
endfacet
facet normal 0.7327934916262488 0.6804510993673321 -0.0
  outer loop
    vertex 2.0413532981018445 2.198380474878905 11.0
    vertex 1.769796031714291 2.490826761757765 0.0
    vertex 1.769796031714291 2.490826761757765 11.0
  endloop
endfacet
facet normal -0.8024540198169466 0.5967139566656906 0.0
  outer loop
    vertex -2.9936083254083137 36.42621235562854 11.0
    vertex -5.1475064029657425 33.52967516003502 0.0
    vertex -5.1475064029657425 33.52967516003502 11.0
  endloop
endfacet
facet normal -0.8024540198169466 0.5967139566656906 0.0
  outer loop
    vertex -5.1475064029657425 33.52967516003502 0.0
    vertex -2.9936083254083137 36.42621235562854 11.0
    vertex -2.9936083254083137 36.42621235562854 0.0
  endloop
endfacet
facet normal -0.979407210577791 0.20189481387155728 0.0
  outer loop
    vertex -9.558835457165726 23.687088268702997 11.0
    vertex -10.287594767399838 20.1518210197232 0.0
    vertex -10.287594767399838 20.1518210197232 11.0
  endloop
endfacet
facet normal -0.979407210577791 0.20189481387155728 0.0
  outer loop
    vertex -10.287594767399838 20.1518210197232 0.0
    vertex -9.558835457165726 23.687088268702997 11.0
    vertex -9.558835457165726 23.687088268702997 0.0
  endloop
endfacet
facet normal 1.0 -0.0 -0.0
  outer loop
    vertex 0.7124052326001409 26.15182101972315 10.0
    vertex 0.7124052326001409 14.151821019723222 11.0
    vertex 0.7124052326001409 14.151821019723222 10.0
  endloop
endfacet
facet normal 1.0 -0.0 -0.0
  outer loop
    vertex 0.7124052326001409 14.151821019723222 11.0
    vertex 0.7124052326001409 26.15182101972315 10.0
    vertex 0.7124052326001409 26.15182101972315 11.0
  endloop
endfacet
facet normal 1.0 -0.0 -0.0
  outer loop
    vertex 0.7124052326001409 14.151821019723222 10.0
    vertex 0.7124052326001409 3.739532715372636 11.0
    vertex 0.7124052326001409 3.739532715372636 10.0
  endloop
endfacet
facet normal 1.0 -0.0 -0.0
  outer loop
    vertex 0.7124052326001409 3.739532715372636 11.0
    vertex 0.7124052326001409 14.151821019723222 10.0
    vertex 0.7124052326001409 14.151821019723222 11.0
  endloop
endfacet
facet normal 1.0 -0.0 -0.0
  outer loop
    vertex 0.7124052326001409 36.031454154131374 0.0
    vertex 0.7124052326001409 35.531454154131374 7.999999999999999
    vertex 0.7124052326001409 35.531454154131374 0.0
  endloop
endfacet
facet normal 1.0 -0.0 -0.0
  outer loop
    vertex 0.7124052326001409 35.531454154131374 7.999999999999999
    vertex 0.7124052326001409 36.031454154131374 0.0
    vertex 0.7124052326001409 35.531454154131374 8.5
  endloop
endfacet
facet normal 1.0 -0.0 -0.0
  outer loop
    vertex 0.7124052326001409 26.651821019723148 0.0
    vertex 0.7124052326001409 26.15182101972315 10.0
    vertex 0.7124052326001409 26.15182101972315 0.0
  endloop
endfacet
facet normal 1.0 -0.0 -0.0
  outer loop
    vertex 0.7124052326001409 26.15182101972315 10.0
    vertex 0.7124052326001409 26.651821019723148 0.0
    vertex 0.7124052326001409 26.651821019723148 8.5
  endloop
endfacet
facet normal 1.0 -0.0 -0.0
  outer loop
    vertex 0.7124052326001409 26.15182101972315 10.0
    vertex 0.7124052326001409 26.651821019723148 8.5
    vertex 0.7124052326001409 36.031454154131374 10.0
  endloop
endfacet
facet normal 1.0 -0.0 -0.0
  outer loop
    vertex 0.7124052326001409 26.651821019723148 8.5
    vertex 0.7124052326001409 26.651821019723148 0.0
    vertex 0.7124052326001409 26.651821019723148 7.999999999999999
  endloop
endfacet
facet normal 1.0 -0.0 -0.0
  outer loop
    vertex 0.7124052326001409 36.031454154131374 10.0
    vertex 0.7124052326001409 26.651821019723148 8.5
    vertex 0.7124052326001409 35.531454154131374 8.5
  endloop
endfacet
facet normal 1.0 -0.0 -0.0
  outer loop
    vertex 0.7124052326001409 36.031454154131374 10.0
    vertex 0.7124052326001409 35.531454154131374 8.5
    vertex 0.7124052326001409 36.031454154131374 0.0
  endloop
endfacet
facet normal -0.8711355761472429 -0.4910425724625223 0.0
  outer loop
    vertex -6.747423230511137 9.549078732480892 11.0
    vertex -4.912197717181393 6.293291302692112 0.0
    vertex -4.912197717181393 6.293291302692112 11.0
  endloop
endfacet
facet normal -0.8711355761472429 -0.4910425724625223 0.0
  outer loop
    vertex -4.912197717181393 6.293291302692112 0.0
    vertex -6.747423230511137 9.549078732480892 11.0
    vertex -6.747423230511137 9.549078732480892 0.0
  endloop
endfacet
facet normal -0.820333407262104 -0.5718855662890495 0.0
  outer loop
    vertex -4.912197717181393 6.293291302692112 11.0
    vertex -2.774829104322869 3.22737220957916 0.0
    vertex -2.774829104322869 3.22737220957916 11.0
  endloop
endfacet
facet normal -0.820333407262104 -0.5718855662890495 0.0
  outer loop
    vertex -2.774829104322869 3.22737220957916 0.0
    vertex -4.912197717181393 6.293291302692112 11.0
    vertex -4.912197717181393 6.293291302692112 0.0
  endloop
endfacet
facet normal 0.7631471175574669 0.6462247882615847 -2.1382059747901406e-18
  outer loop
    vertex 0.7124052326001409 3.739532715372636 0.0
    vertex 1.769796031714291 2.490826761757765 11.0
    vertex 1.769796031714291 2.490826761757765 0.0
  endloop
endfacet
facet normal 0.7631471175574669 0.6462247882615847 -2.1382059747901406e-18
  outer loop
    vertex 1.769796031714291 2.490826761757765 11.0
    vertex 0.7124052326001409 3.739532715372636 0.0
    vertex 0.7124052326001409 3.739532715372636 11.0
  endloop
endfacet
facet normal 0.7631471175574669 0.6462247882615847 -2.1382059747901406e-18
  outer loop
    vertex 0.7124052326001409 3.739532715372636 11.0
    vertex 0.7124052326001409 3.739532715372636 0.0
    vertex 0.7124052326001409 3.739532715372636 10.0
  endloop
endfacet
facet normal 0.0 0.0 1.0
  outer loop
    vertex 13.71240523260014 26.651821019723148 8.5
    vertex 0.7124052326001409 35.531454154131374 8.5
    vertex 0.7124052326001409 26.651821019723148 8.5
  endloop
endfacet
facet normal 0.0 0.0 1.0
  outer loop
    vertex 0.7124052326001409 35.531454154131374 8.5
    vertex 13.71240523260014 26.651821019723148 8.5
    vertex 13.71240523260014 35.531454154131374 8.5
  endloop
endfacet
facet normal 0.0 0.0 1.0
  outer loop
    vertex 13.71240523260014 35.531454154131374 8.5
    vertex 13.71240523260014 26.651821019723148 8.5
    vertex 14.966838253294684 26.6797145880898 8.5
  endloop
endfacet
facet normal 0.0 0.0 1.0
  outer loop
    vertex 13.71240523260014 35.531454154131374 8.5
    vertex 14.966838253294684 26.6797145880898 8.5
    vertex 14.96683825329468 35.503560585764724 8.5
  endloop
endfacet
facet normal 0.0 0.0 1.0
  outer loop
    vertex 14.96683825329468 35.503560585764724 8.5
    vertex 14.966838253294684 26.6797145880898 8.5
    vertex 16.164126395654097 35.12821892976237 8.5
  endloop
endfacet
facet normal 0.0 0.0 1.0
  outer loop
    vertex 16.164126395654097 35.12821892976237 8.5
    vertex 14.966838253294684 26.6797145880898 8.5
    vertex 16.1641263956541 27.055056244092164 8.5
  endloop
endfacet
facet normal 0.0 0.0 1.0
  outer loop
    vertex 16.164126395654097 35.12821892976237 8.5
    vertex 16.1641263956541 27.055056244092164 8.5
    vertex 17.209980734980178 34.434988120090814 8.5
  endloop
endfacet
facet normal 0.0 0.0 1.0
  outer loop
    vertex 17.209980734980178 34.434988120090814 8.5
    vertex 16.1641263956541 27.055056244092164 8.5
    vertex 17.20998073498018 27.748287053763708 8.5
  endloop
endfacet
facet normal 0.0 0.0 1.0
  outer loop
    vertex 17.209980734980178 34.434988120090814 8.5
    vertex 17.20998073498018 27.748287053763708 8.5
    vertex 18.022038072676732 33.478461520952955 8.5
  endloop
endfacet
facet normal 0.0 0.0 1.0
  outer loop
    vertex 18.022038072676732 33.478461520952955 8.5
    vertex 17.20998073498018 27.748287053763708 8.5
    vertex 18.022038072676732 28.70481365290157 8.5
  endloop
endfacet
facet normal 0.0 0.0 1.0
  outer loop
    vertex 18.022038072676732 33.478461520952955 8.5
    vertex 18.022038072676732 28.70481365290157 8.5
    vertex 18.536347208981756 29.84930758773838 8.5
  endloop
endfacet
facet normal 0.0 0.0 1.0
  outer loop
    vertex 18.022038072676732 33.478461520952955 8.5
    vertex 18.536347208981756 29.84930758773838 8.5
    vertex 18.536347208981752 32.333967586116145 8.5
  endloop
endfacet
facet normal 0.0 0.0 1.0
  outer loop
    vertex 18.536347208981752 32.333967586116145 8.5
    vertex 18.536347208981756 29.84930758773838 8.5
    vertex 18.71240523260014 31.091637586927263 8.5
  endloop
endfacet
facet normal 0.0 -1.0 0.0
  outer loop
    vertex 13.71240523260014 26.651821019723148 8.5
    vertex 0.7124052326001409 26.651821019723148 7.999999999999999
    vertex 13.71240523260014 26.651821019723148 7.999999999999999
  endloop
endfacet
facet normal 0.0 -1.0 0.0
  outer loop
    vertex 0.7124052326001409 26.651821019723148 7.999999999999999
    vertex 13.71240523260014 26.651821019723148 8.5
    vertex 0.7124052326001409 26.651821019723148 8.5
  endloop
endfacet
facet normal 0.02223050144656287 -0.99975287186656 0.0
  outer loop
    vertex 14.966838253294684 26.6797145880898 8.5
    vertex 13.71240523260014 26.651821019723148 7.999999999999999
    vertex 14.966838253294684 26.6797145880898 7.999999999999999
  endloop
endfacet
facet normal 0.02223050144656287 -0.99975287186656 0.0
  outer loop
    vertex 13.71240523260014 26.651821019723148 7.999999999999999
    vertex 14.966838253294684 26.6797145880898 8.5
    vertex 13.71240523260014 26.651821019723148 8.5
  endloop
endfacet
facet normal 0.29913824997348043 -0.9542097816532817 0.0
  outer loop
    vertex 16.1641263956541 27.055056244092164 8.5
    vertex 14.966838253294684 26.6797145880898 7.999999999999999
    vertex 16.1641263956541 27.055056244092164 7.999999999999999
  endloop
endfacet
facet normal 0.29913824997348043 -0.9542097816532817 0.0
  outer loop
    vertex 14.966838253294684 26.6797145880898 7.999999999999999
    vertex 16.1641263956541 27.055056244092164 8.5
    vertex 14.966838253294684 26.6797145880898 8.5
  endloop
endfacet
facet normal 0.5524882408243534 -0.833520691855224 0.0
  outer loop
    vertex 17.20998073498018 27.748287053763708 8.5
    vertex 16.1641263956541 27.055056244092164 7.999999999999999
    vertex 17.20998073498018 27.748287053763708 7.999999999999999
  endloop
endfacet
facet normal 0.5524882408243534 -0.833520691855224 0.0
  outer loop
    vertex 16.1641263956541 27.055056244092164 7.999999999999999
    vertex 17.20998073498018 27.748287053763708 8.5
    vertex 16.1641263956541 27.055056244092164 8.5
  endloop
endfacet
facet normal 0.7623286367058197 -0.6471901186345836 0.0
  outer loop
    vertex 18.022038072676732 28.70481365290157 7.999999999999999
    vertex 17.20998073498018 27.748287053763708 8.5
    vertex 17.20998073498018 27.748287053763708 7.999999999999999
  endloop
endfacet
facet normal 0.7623286367058197 -0.6471901186345836 0.0
  outer loop
    vertex 17.20998073498018 27.748287053763708 8.5
    vertex 18.022038072676732 28.70481365290157 7.999999999999999
    vertex 18.022038072676732 28.70481365290157 8.5
  endloop
endfacet
facet normal 0.9121340711785818 -0.40989198113062203 0.0
  outer loop
    vertex 18.536347208981756 29.84930758773838 7.999999999999999
    vertex 18.022038072676732 28.70481365290157 8.5
    vertex 18.022038072676732 28.70481365290157 7.999999999999999
  endloop
endfacet
facet normal 0.9121340711785818 -0.40989198113062203 0.0
  outer loop
    vertex 18.022038072676732 28.70481365290157 8.5
    vertex 18.536347208981756 29.84930758773838 7.999999999999999
    vertex 18.536347208981756 29.84930758773838 8.5
  endloop
endfacet
facet normal 0.9901070555424273 -0.14031399988990725 0.0
  outer loop
    vertex 18.71240523260014 31.091637586927263 7.999999999999999
    vertex 18.536347208981756 29.84930758773838 8.5
    vertex 18.536347208981756 29.84930758773838 7.999999999999999
  endloop
endfacet
facet normal 0.9901070555424273 -0.14031399988990725 0.0
  outer loop
    vertex 18.536347208981756 29.84930758773838 8.5
    vertex 18.71240523260014 31.091637586927263 7.999999999999999
    vertex 18.71240523260014 31.091637586927263 8.5
  endloop
endfacet
facet normal 0.990107055542427 0.14031399988990945 0.0
  outer loop
    vertex 18.536347208981752 32.333967586116145 7.999999999999999
    vertex 18.71240523260014 31.091637586927263 8.5
    vertex 18.71240523260014 31.091637586927263 7.999999999999999
  endloop
endfacet
facet normal 0.990107055542427 0.14031399988990945 0.0
  outer loop
    vertex 18.71240523260014 31.091637586927263 8.5
    vertex 18.536347208981752 32.333967586116145 7.999999999999999
    vertex 18.536347208981752 32.333967586116145 8.5
  endloop
endfacet
facet normal 0.9121340711785827 0.40989198113062014 0.0
  outer loop
    vertex 18.022038072676732 33.478461520952955 7.999999999999999
    vertex 18.536347208981752 32.333967586116145 8.5
    vertex 18.536347208981752 32.333967586116145 7.999999999999999
  endloop
endfacet
facet normal 0.9121340711785827 0.40989198113062014 0.0
  outer loop
    vertex 18.536347208981752 32.333967586116145 8.5
    vertex 18.022038072676732 33.478461520952955 7.999999999999999
    vertex 18.022038072676732 33.478461520952955 8.5
  endloop
endfacet
facet normal 0.7623286367058186 0.647190118634585 0.0
  outer loop
    vertex 17.209980734980178 34.434988120090814 7.999999999999999
    vertex 18.022038072676732 33.478461520952955 8.5
    vertex 18.022038072676732 33.478461520952955 7.999999999999999
  endloop
endfacet
facet normal 0.7623286367058186 0.647190118634585 0.0
  outer loop
    vertex 18.022038072676732 33.478461520952955 8.5
    vertex 17.209980734980178 34.434988120090814 7.999999999999999
    vertex 17.209980734980178 34.434988120090814 8.5
  endloop
endfacet
facet normal 0.5524882408243565 0.833520691855222 0.0
  outer loop
    vertex 16.164126395654097 35.12821892976237 8.5
    vertex 17.209980734980178 34.434988120090814 7.999999999999999
    vertex 16.164126395654097 35.12821892976237 7.999999999999999
  endloop
endfacet
facet normal 0.5524882408243565 0.833520691855222 0.0
  outer loop
    vertex 17.209980734980178 34.434988120090814 7.999999999999999
    vertex 16.164126395654097 35.12821892976237 8.5
    vertex 17.209980734980178 34.434988120090814 8.5
  endloop
endfacet
facet normal 0.2991382499734763 0.9542097816532831 0.0
  outer loop
    vertex 14.96683825329468 35.503560585764724 8.5
    vertex 16.164126395654097 35.12821892976237 7.999999999999999
    vertex 14.96683825329468 35.503560585764724 7.999999999999999
  endloop
endfacet
facet normal 0.2991382499734763 0.9542097816532831 0.0
  outer loop
    vertex 16.164126395654097 35.12821892976237 7.999999999999999
    vertex 14.96683825329468 35.503560585764724 8.5
    vertex 16.164126395654097 35.12821892976237 8.5
  endloop
endfacet
facet normal 0.022230501446562922 0.99975287186656 0.0
  outer loop
    vertex 13.71240523260014 35.531454154131374 8.5
    vertex 14.96683825329468 35.503560585764724 7.999999999999999
    vertex 13.71240523260014 35.531454154131374 7.999999999999999
  endloop
endfacet
facet normal 0.022230501446562922 0.99975287186656 0.0
  outer loop
    vertex 14.96683825329468 35.503560585764724 7.999999999999999
    vertex 13.71240523260014 35.531454154131374 8.5
    vertex 14.96683825329468 35.503560585764724 8.5
  endloop
endfacet
facet normal 0.0 1.0 0.0
  outer loop
    vertex 0.7124052326001409 35.531454154131374 8.5
    vertex 13.71240523260014 35.531454154131374 7.999999999999999
    vertex 0.7124052326001409 35.531454154131374 7.999999999999999
  endloop
endfacet
facet normal 0.0 1.0 0.0
  outer loop
    vertex 13.71240523260014 35.531454154131374 7.999999999999999
    vertex 0.7124052326001409 35.531454154131374 8.5
    vertex 13.71240523260014 35.531454154131374 8.5
  endloop
endfacet
facet normal 0.0 0.0 -1.0
  outer loop
    vertex 13.71240523260014 35.531454154131374 7.999999999999999
    vertex 0.7124052326001409 26.651821019723148 7.999999999999999
    vertex 0.7124052326001409 35.531454154131374 7.999999999999999
  endloop
endfacet
facet normal 0.0 0.0 -1.0
  outer loop
    vertex 0.7124052326001409 26.651821019723148 7.999999999999999
    vertex 13.71240523260014 35.531454154131374 7.999999999999999
    vertex 13.71240523260014 26.651821019723148 7.999999999999999
  endloop
endfacet
facet normal 0.0 0.0 -1.0
  outer loop
    vertex 13.71240523260014 26.651821019723148 7.999999999999999
    vertex 13.71240523260014 35.531454154131374 7.999999999999999
    vertex 14.96683825329468 35.503560585764724 7.999999999999999
  endloop
endfacet
facet normal 0.0 0.0 -1.0
  outer loop
    vertex 13.71240523260014 26.651821019723148 7.999999999999999
    vertex 14.96683825329468 35.503560585764724 7.999999999999999
    vertex 14.966838253294684 26.6797145880898 7.999999999999999
  endloop
endfacet
facet normal 0.0 0.0 -1.0
  outer loop
    vertex 14.966838253294684 26.6797145880898 7.999999999999999
    vertex 14.96683825329468 35.503560585764724 7.999999999999999
    vertex 16.164126395654097 35.12821892976237 7.999999999999999
  endloop
endfacet
facet normal 0.0 0.0 -1.0
  outer loop
    vertex 14.966838253294684 26.6797145880898 7.999999999999999
    vertex 16.164126395654097 35.12821892976237 7.999999999999999
    vertex 16.1641263956541 27.055056244092164 7.999999999999999
  endloop
endfacet
facet normal 0.0 0.0 -1.0
  outer loop
    vertex 16.1641263956541 27.055056244092164 7.999999999999999
    vertex 16.164126395654097 35.12821892976237 7.999999999999999
    vertex 17.209980734980178 34.434988120090814 7.999999999999999
  endloop
endfacet
facet normal 0.0 0.0 -1.0
  outer loop
    vertex 16.1641263956541 27.055056244092164 7.999999999999999
    vertex 17.209980734980178 34.434988120090814 7.999999999999999
    vertex 17.20998073498018 27.748287053763708 7.999999999999999
  endloop
endfacet
facet normal 0.0 0.0 -1.0
  outer loop
    vertex 17.20998073498018 27.748287053763708 7.999999999999999
    vertex 17.209980734980178 34.434988120090814 7.999999999999999
    vertex 18.022038072676732 33.478461520952955 7.999999999999999
  endloop
endfacet
facet normal 0.0 0.0 -1.0
  outer loop
    vertex 17.20998073498018 27.748287053763708 7.999999999999999
    vertex 18.022038072676732 33.478461520952955 7.999999999999999
    vertex 18.022038072676732 28.70481365290157 7.999999999999999
  endloop
endfacet
facet normal 0.0 0.0 -1.0
  outer loop
    vertex 18.022038072676732 28.70481365290157 7.999999999999999
    vertex 18.022038072676732 33.478461520952955 7.999999999999999
    vertex 18.536347208981752 32.333967586116145 7.999999999999999
  endloop
endfacet
facet normal 0.0 0.0 -1.0
  outer loop
    vertex 18.022038072676732 28.70481365290157 7.999999999999999
    vertex 18.536347208981752 32.333967586116145 7.999999999999999
    vertex 18.536347208981756 29.84930758773838 7.999999999999999
  endloop
endfacet
facet normal 0.0 0.0 -1.0
  outer loop
    vertex 18.536347208981756 29.84930758773838 7.999999999999999
    vertex 18.536347208981752 32.333967586116145 7.999999999999999
    vertex 18.71240523260014 31.091637586927263 7.999999999999999
  endloop
endfacet
facet normal 1.0 -0.0 -0.0
  outer loop
    vertex 0.7124052326001409 35.531454154131374 0.0
    vertex 0.7124052326001409 26.651821019723148 7.999999999999999
    vertex 0.7124052326001409 26.651821019723148 0.0
  endloop
endfacet
facet normal 1.0 -0.0 -0.0
  outer loop
    vertex 0.7124052326001409 26.651821019723148 7.999999999999999
    vertex 0.7124052326001409 35.531454154131374 0.0
    vertex 0.7124052326001409 35.531454154131374 7.999999999999999
  endloop
endfacet
endsolid cruise-inner
