solid cruise-inner
facet normal -0.733298308116592 0.6799070460830242 0.0
  outer loop
    vertex 0.2488101045619345 35.531454154131374 12.999999999999998
    vertex -0.4200145546020989 34.81010850281457 0.0
    vertex -0.4200145546020989 34.81010850281457 12.999999999999998
  endloop
endfacet
facet normal -0.733298308116592 0.6799070460830242 0.0
  outer loop
    vertex -0.4200145546020989 34.81010850281457 0.0
    vertex 0.2488101045619345 35.531454154131374 12.999999999999998
    vertex 0.2488101045619345 35.531454154131374 0.0
  endloop
endfacet
facet normal 1.0 -0.0 -0.0
  outer loop
    vertex 0.7124052326001409 14.151821019723222 0.0
    vertex 0.7124052326001409 13.651821019723151 9.999999999999998
    vertex 0.7124052326001409 13.651821019723151 0.0
  endloop
endfacet
facet normal 1.0 -0.0 -0.0
  outer loop
    vertex 0.7124052326001409 13.651821019723151 9.999999999999998
    vertex 0.7124052326001409 14.151821019723222 0.0
    vertex 0.7124052326001409 14.151821019723222 9.999999999999998
  endloop
endfacet
facet normal -0.0 -0.0 1.0
  outer loop
    vertex -6.474948986358175 16.903158472217573 12.999999999999998
    vertex -6.585885868434371 23.29298943414716 12.999999999999998
    vertex -7.2875947673998445 20.1518210197232 12.999999999999998
  endloop
endfacet
facet normal -0.0 -0.0 1.0
  outer loop
    vertex -6.585885868434371 23.29298943414716 12.999999999999998
    vertex -6.474948986358175 16.903158472217573 12.999999999999998
    vertex -5.554543529193196 26.34186912445156 12.999999999999998
  endloop
endfacet
facet normal -0.0 -0.0 1.0
  outer loop
    vertex -5.554543529193196 26.34186912445156 12.999999999999998
    vertex -6.474948986358175 16.903158472217573 12.999999999999998
    vertex -5.3688587404232235 13.742341191693805 12.999999999999998
  endloop
endfacet
facet normal -0.0 -0.0 1.0
  outer loop
    vertex -5.554543529193196 26.34186912445156 12.999999999999998
    vertex -5.3688587404232235 13.742341191693805 12.999999999999998
    vertex -4.205233360670178 29.263973923356417 12.999999999999998
  endloop
endfacet
facet normal -0.0 -0.0 1.0
  outer loop
    vertex -4.205233360670178 29.263973923356417 12.999999999999998
    vertex -5.3688587404232235 13.742341191693805 12.999999999999998
    vertex -3.978578412566562 10.695814953010585 12.999999999999998
  endloop
endfacet
facet normal -0.0 -0.0 1.0
  outer loop
    vertex -4.205233360670178 29.263973923356417 12.999999999999998
    vertex -3.978578412566562 10.695814953010585 12.999999999999998
    vertex -2.5532175381267264 32.026251626399386 12.999999999999998
  endloop
endfacet
facet normal -0.0 -0.0 1.0
  outer loop
    vertex -2.5532175381267264 32.026251626399386 12.999999999999998
    vertex -3.978578412566562 10.695814953010585 12.999999999999998
    vertex -2.3157401337462113 7.789069286203768 12.999999999999998
  endloop
endfacet
facet normal -0.0 -0.0 1.0
  outer loop
    vertex -2.5532175381267264 32.026251626399386 12.999999999999998
    vertex -2.3157401337462113 7.789069286203768 12.999999999999998
    vertex -0.61718216918016 34.59745784855469 12.999999999999998
  endloop
endfacet
facet normal -0.0 -0.0 1.0
  outer loop
    vertex -0.61718216918016 34.59745784855469 12.999999999999998
    vertex -2.3157401337462113 7.789069286203768 12.999999999999998
    vertex -0.3942564597492684 5.046424211905337 12.999999999999998
  endloop
endfacet
facet normal -0.0 -0.0 1.0
  outer loop
    vertex -0.61718216918016 34.59745784855469 12.999999999999998
    vertex -0.3942564597492684 5.046424211905337 12.999999999999998
    vertex -0.4200145546020989 34.81010850281457 12.999999999999998
  endloop
endfacet
facet normal -0.0 -0.0 1.0
  outer loop
    vertex -0.4200145546020989 34.81010850281457 12.999999999999998
    vertex -0.3942564597492684 5.046424211905337 12.999999999999998
    vertex 0.2488101045619345 35.531454154131374 12.999999999999998
  endloop
endfacet
facet normal -0.0 -0.0 1.0
  outer loop
    vertex 0.2488101045619345 35.531454154131374 12.999999999999998
    vertex -0.3942564597492684 5.046424211905337 12.999999999999998
    vertex 0.7124052326001409 3.739532715372636 12.999999999999998
  endloop
endfacet
facet normal -0.0 -0.0 1.0
  outer loop
    vertex 0.2488101045619345 35.531454154131374 12.999999999999998
    vertex 0.7124052326001409 3.739532715372636 12.999999999999998
    vertex 0.7124052326001409 35.531454154131374 12.999999999999998
  endloop
endfacet
facet normal -0.0 -0.0 1.0
  outer loop
    vertex 0.7124052326001409 35.531454154131374 12.999999999999998
    vertex 0.7124052326001409 3.739532715372636 12.999999999999998
    vertex 0.7124052326001409 13.651821019723151 12.999999999999998
  endloop
endfacet
facet normal -0.0 -0.0 1.0
  outer loop
    vertex 0.7124052326001409 35.531454154131374 12.999999999999998
    vertex 0.7124052326001409 13.651821019723151 12.999999999999998
    vertex 0.7124052326001409 14.151821019723222 12.999999999999998
  endloop
endfacet
facet normal -0.0 -0.0 1.0
  outer loop
    vertex 0.7124052326001409 35.531454154131374 12.999999999999998
    vertex 0.7124052326001409 14.151821019723222 12.999999999999998
    vertex 0.7124052326001409 14.651821019723151 12.999999999999998
  endloop
endfacet
facet normal -0.0 -0.0 1.0
  outer loop
    vertex 0.7124052326001409 35.531454154131374 12.999999999999998
    vertex 0.7124052326001409 14.651821019723151 12.999999999999998
    vertex 0.7124052326001409 25.65182101972315 12.999999999999998
  endloop
endfacet
facet normal -0.0 -0.0 1.0
  outer loop
    vertex 0.7124052326001409 35.531454154131374 12.999999999999998
    vertex 0.7124052326001409 25.65182101972315 12.999999999999998
    vertex 0.7124052326001409 26.15182101972315 12.999999999999998
  endloop
endfacet
facet normal -0.0 -0.0 1.0
  outer loop
    vertex 0.7124052326001409 35.531454154131374 12.999999999999998
    vertex 0.7124052326001409 26.15182101972315 12.999999999999998
    vertex 0.7124052326001409 26.651821019723148 12.999999999999998
  endloop
endfacet
facet normal 1.0 -0.0 -0.0
  outer loop
    vertex 0.7124052326001409 26.15182101972315 0.0
    vertex 0.7124052326001409 25.65182101972315 9.999999999999998
    vertex 0.7124052326001409 25.65182101972315 0.0
  endloop
endfacet
facet normal 1.0 -0.0 -0.0
  outer loop
    vertex 0.7124052326001409 25.65182101972315 9.999999999999998
    vertex 0.7124052326001409 26.15182101972315 0.0
    vertex 0.7124052326001409 26.15182101972315 9.999999999999998
  endloop
endfacet
facet normal -0.9516235464751348 0.3072663759575506 0.0
  outer loop
    vertex -8.449727065984282 27.12206763262542 12.999999999999998
    vertex -9.558835457165726 23.687088268702997 0.0
    vertex -9.558835457165726 23.687088268702997 12.999999999999998
  endloop
endfacet
facet normal -0.9516235464751348 0.3072663759575506 0.0
  outer loop
    vertex -9.558835457165726 23.687088268702997 0.0
    vertex -8.449727065984282 27.12206763262542 12.999999999999998
    vertex -8.449727065984282 27.12206763262542 0.0
  endloop
endfacet
facet normal -0.912539259415795 0.40898911969008717 0.0
  outer loop
    vertex -6.973440364790339 30.415968394615692 12.999999999999998
    vertex -8.449727065984282 27.12206763262542 0.0
    vertex -8.449727065984282 27.12206763262542 12.999999999999998
  endloop
endfacet
facet normal -0.912539259415795 0.40898911969008717 0.0
  outer loop
    vertex -8.449727065984282 27.12206763262542 0.0
    vertex -6.973440364790339 30.415968394615692 12.999999999999998
    vertex -6.973440364790339 30.415968394615692 0.0
  endloop
endfacet
facet normal -0.736060239871213 0.6769160385754885 0.0
  outer loop
    vertex -2.611338271056381 36.841882500620216 12.999999999999998
    vertex -2.9936083254083137 36.42621235562854 0.0
    vertex -2.9936083254083137 36.42621235562854 12.999999999999998
  endloop
endfacet
facet normal -0.736060239871213 0.6769160385754885 0.0
  outer loop
    vertex -2.9936083254083137 36.42621235562854 0.0
    vertex -2.611338271056381 36.841882500620216 12.999999999999998
    vertex -2.611338271056381 36.841882500620216 -3.524958103184872e-16
  endloop
endfacet
facet normal -0.8626184791422858 0.5058550775096066 0.0
  outer loop
    vertex -5.1475064029657425 33.52967516003502 12.999999999999998
    vertex -6.973440364790339 30.415968394615692 0.0
    vertex -6.973440364790339 30.415968394615692 12.999999999999998
  endloop
endfacet
facet normal -0.8626184791422858 0.5058550775096066 0.0
  outer loop
    vertex -6.973440364790339 30.415968394615692 0.0
    vertex -5.1475064029657425 33.52967516003502 12.999999999999998
    vertex -5.1475064029657425 33.52967516003502 0.0
  endloop
endfacet
facet normal -0.8024540198169464 0.5967139566656906 0.0
  outer loop
    vertex -2.9936083254083137 36.42621235562854 12.999999999999998
    vertex -5.1475064029657425 33.52967516003502 0.0
    vertex -5.1475064029657425 33.52967516003502 12.999999999999998
  endloop
endfacet
facet normal -0.8024540198169464 0.5967139566656906 0.0
  outer loop
    vertex -5.1475064029657425 33.52967516003502 0.0
    vertex -2.9936083254083137 36.42621235562854 12.999999999999998
    vertex -2.9936083254083137 36.42621235562854 0.0
  endloop
endfacet
facet normal 1.0 -0.0 -0.0
  outer loop
    vertex 0.7124052326001409 26.15182101972315 12.0
    vertex 0.7124052326001409 25.65182101972315 12.999999999999998
    vertex 0.7124052326001409 25.65182101972315 11.999999999999998
  endloop
endfacet
facet normal 1.0 -0.0 -0.0
  outer loop
    vertex 0.7124052326001409 25.65182101972315 12.999999999999998
    vertex 0.7124052326001409 26.15182101972315 12.0
    vertex 0.7124052326001409 26.15182101972315 12.999999999999998
  endloop
endfacet
facet normal 1.0 -0.0 -0.0
  outer loop
    vertex 0.7124052326001409 14.151821019723222 12.0
    vertex 0.7124052326001409 13.651821019723151 12.999999999999998
    vertex 0.7124052326001409 13.651821019723151 12.0
  endloop
endfacet
facet normal 1.0 -0.0 -0.0
  outer loop
    vertex 0.7124052326001409 13.651821019723151 12.999999999999998
    vertex 0.7124052326001409 14.151821019723222 12.0
    vertex 0.7124052326001409 14.151821019723222 12.999999999999998
  endloop
endfacet
facet normal 1.0 -0.0 -0.0
  outer loop
    vertex 0.7124052326001409 26.651821019723148 0.0
    vertex 0.7124052326001409 26.15182101972315 9.999999999999998
    vertex 0.7124052326001409 26.15182101972315 0.0
  endloop
endfacet
facet normal 1.0 -0.0 -0.0
  outer loop
    vertex 0.7124052326001409 26.15182101972315 9.999999999999998
    vertex 0.7124052326001409 26.651821019723148 0.0
    vertex 0.7124052326001409 26.651821019723148 9.999999999999998
  endloop
endfacet
facet normal 1.0 -0.0 -0.0
  outer loop
    vertex 0.7124052326001409 26.651821019723148 9.999999999999998
    vertex 0.7124052326001409 26.651821019723148 0.0
    vertex 0.7124052326001409 26.651821019723148 4.999999999999999
  endloop
endfacet
facet normal 1.0 -0.0 -0.0
  outer loop
    vertex 0.7124052326001409 25.65182101972315 0.0
    vertex 0.7124052326001409 14.651821019723151 9.999999999999998
    vertex 0.7124052326001409 14.651821019723151 0.0
  endloop
endfacet
facet normal 1.0 -0.0 -0.0
  outer loop
    vertex 0.7124052326001409 14.651821019723151 9.999999999999998
    vertex 0.7124052326001409 25.65182101972315 0.0
    vertex 0.7124052326001409 14.651821019723151 10.499999999999998
  endloop
endfacet
facet normal 1.0 -0.0 -0.0
  outer loop
    vertex 0.7124052326001409 14.651821019723151 10.499999999999998
    vertex 0.7124052326001409 25.65182101972315 0.0
    vertex 0.7124052326001409 14.651821019723151 11.999999999999998
  endloop
endfacet
facet normal 1.0 -0.0 -0.0
  outer loop
    vertex 0.7124052326001409 14.651821019723151 11.999999999999998
    vertex 0.7124052326001409 25.65182101972315 0.0
    vertex 0.7124052326001409 25.65182101972315 11.999999999999998
  endloop
endfacet
facet normal 1.0 -0.0 -0.0
  outer loop
    vertex 0.7124052326001409 25.65182101972315 11.999999999999998
    vertex 0.7124052326001409 25.65182101972315 0.0
    vertex 0.7124052326001409 25.65182101972315 9.999999999999998
  endloop
endfacet
facet normal 1.0 -0.0 -0.0
  outer loop
    vertex 0.7124052326001409 25.65182101972315 11.999999999999998
    vertex 0.7124052326001409 25.65182101972315 9.999999999999998
    vertex 0.7124052326001409 25.65182101972315 10.499999999999998
  endloop
endfacet
facet normal 1.0 -0.0 -0.0
  outer loop
    vertex 0.7124052326001409 14.651821019723151 0.0
    vertex 0.7124052326001409 14.151821019723222 9.999999999999998
    vertex 0.7124052326001409 14.151821019723222 0.0
  endloop
endfacet
facet normal 1.0 -0.0 -0.0
  outer loop
    vertex 0.7124052326001409 14.151821019723222 9.999999999999998
    vertex 0.7124052326001409 14.651821019723151 0.0
    vertex 0.7124052326001409 14.651821019723151 9.999999999999998
  endloop
endfacet
facet normal 1.0 -0.0 -0.0
  outer loop
    vertex 0.7124052326001409 26.651821019723148 9.999999999999998
    vertex 0.7124052326001409 26.15182101972315 10.5
    vertex 0.7124052326001409 26.15182101972315 9.999999999999998
  endloop
endfacet
facet normal 1.0 -0.0 -0.0
  outer loop
    vertex 0.7124052326001409 26.15182101972315 10.5
    vertex 0.7124052326001409 26.651821019723148 9.999999999999998
    vertex 0.7124052326001409 26.651821019723148 10.499999999999998
  endloop
endfacet
facet normal 1.0 -0.0 -0.0
  outer loop
    vertex 0.7124052326001409 14.151821019723222 9.999999999999998
    vertex 0.7124052326001409 13.651821019723151 10.499999999999998
    vertex 0.7124052326001409 13.651821019723151 9.999999999999998
  endloop
endfacet
facet normal 1.0 -0.0 -0.0
  outer loop
    vertex 0.7124052326001409 13.651821019723151 10.499999999999998
    vertex 0.7124052326001409 14.151821019723222 9.999999999999998
    vertex 0.7124052326001409 14.151821019723222 10.499999999999998
  endloop
endfacet
facet normal 1.0 -0.0 -0.0
  outer loop
    vertex 0.7124052326001409 14.651821019723151 9.999999999999998
    vertex 0.7124052326001409 14.151821019723222 10.499999999999998
    vertex 0.7124052326001409 14.151821019723222 9.999999999999998
  endloop
endfacet
facet normal 1.0 -0.0 -0.0
  outer loop
    vertex 0.7124052326001409 14.151821019723222 10.499999999999998
    vertex 0.7124052326001409 14.651821019723151 9.999999999999998
    vertex 0.7124052326001409 14.651821019723151 10.499999999999998
  endloop
endfacet
facet normal 1.0 -0.0 -0.0
  outer loop
    vertex 0.7124052326001409 26.15182101972315 9.999999999999998
    vertex 0.7124052326001409 25.65182101972315 10.499999999999998
    vertex 0.7124052326001409 25.65182101972315 9.999999999999998
  endloop
endfacet
facet normal 1.0 -0.0 -0.0
  outer loop
    vertex 0.7124052326001409 25.65182101972315 10.499999999999998
    vertex 0.7124052326001409 26.15182101972315 9.999999999999998
    vertex 0.7124052326001409 26.15182101972315 10.5
  endloop
endfacet
facet normal -0.0 -0.0 1.0
  outer loop
    vertex -6.747423230511137 9.549078732480892 12.999999999999998
    vertex -7.2875947673998445 20.1518210197232 12.999999999999998
    vertex -8.263774902655042 12.965053275584767 12.999999999999998
  endloop
endfacet
facet normal -0.0 -0.0 1.0
  outer loop
    vertex -7.2875947673998445 20.1518210197232 12.999999999999998
    vertex -6.747423230511137 9.549078732480892 12.999999999999998
    vertex -6.474948986358175 16.903158472217573 12.999999999999998
  endloop
endfacet
facet normal -0.0 -0.0 1.0
  outer loop
    vertex -6.474948986358175 16.903158472217573 12.999999999999998
    vertex -6.747423230511137 9.549078732480892 12.999999999999998
    vertex -4.912197717181393 6.293291302692112 12.999999999999998
  endloop
endfacet
facet normal -0.0 -0.0 1.0
  outer loop
    vertex -6.474948986358175 16.903158472217573 12.999999999999998
    vertex -4.912197717181393 6.293291302692112 12.999999999999998
    vertex -5.3688587404232235 13.742341191693805 12.999999999999998
  endloop
endfacet
facet normal -0.0 -0.0 1.0
  outer loop
    vertex -5.3688587404232235 13.742341191693805 12.999999999999998
    vertex -4.912197717181393 6.293291302692112 12.999999999999998
    vertex -3.978578412566562 10.695814953010585 12.999999999999998
  endloop
endfacet
facet normal -0.0 -0.0 1.0
  outer loop
    vertex -3.978578412566562 10.695814953010585 12.999999999999998
    vertex -4.912197717181393 6.293291302692112 12.999999999999998
    vertex -2.774829104322869 3.22737220957916 12.999999999999998
  endloop
endfacet
facet normal -0.0 -0.0 1.0
  outer loop
    vertex -3.978578412566562 10.695814953010585 12.999999999999998
    vertex -2.774829104322869 3.22737220957916 12.999999999999998
    vertex -2.3157401337462113 7.789069286203768 12.999999999999998
  endloop
endfacet
facet normal -0.0 -0.0 1.0
  outer loop
    vertex -2.3157401337462113 7.789069286203768 12.999999999999998
    vertex -2.774829104322869 3.22737220957916 12.999999999999998
    vertex -0.35480260605686487 0.379271751302155 12.999999999999998
  endloop
endfacet
facet normal -0.0 -0.0 1.0
  outer loop
    vertex -2.3157401337462113 7.789069286203768 12.999999999999998
    vertex -0.35480260605686487 0.379271751302155 12.999999999999998
    vertex -0.3942564597492684 5.046424211905337 12.999999999999998
  endloop
endfacet
facet normal -0.0 -0.0 1.0
  outer loop
    vertex -0.3942564597492684 5.046424211905337 12.999999999999998
    vertex -0.35480260605686487 0.379271751302155 12.999999999999998
    vertex 0.7124052326001409 3.739532715372636 12.999999999999998
  endloop
endfacet
facet normal -0.0 -0.0 1.0
  outer loop
    vertex 0.7124052326001409 3.739532715372636 12.999999999999998
    vertex -0.35480260605686487 0.379271751302155 12.999999999999998
    vertex 0.0 0.0 12.999999999999998
  endloop
endfacet
facet normal -0.0 -0.0 1.0
  outer loop
    vertex 0.7124052326001409 3.739532715372636 12.999999999999998
    vertex 0.0 0.0 12.999999999999998
    vertex 0.7124052326001405 0.7672056351078417 12.999999999999998
  endloop
endfacet
facet normal -0.0 -0.0 1.0
  outer loop
    vertex 0.7124052326001409 3.739532715372636 12.999999999999998
    vertex 0.7124052326001405 0.7672056351078417 12.999999999999998
    vertex 0.7124052326001409 2.6518210197231524 12.999999999999998
  endloop
endfacet
facet normal -0.0 -0.0 1.0
  outer loop
    vertex -9.447428989389923 16.510073370831527 12.999999999999998
    vertex -9.558835457165726 23.687088268702997 12.999999999999998
    vertex -10.287594767399838 20.1518210197232 12.999999999999998
  endloop
endfacet
facet normal -0.0 -0.0 1.0
  outer loop
    vertex -9.558835457165726 23.687088268702997 12.999999999999998
    vertex -9.447428989389923 16.510073370831527 12.999999999999998
    vertex -8.449727065984282 27.12206763262542 12.999999999999998
  endloop
endfacet
facet normal -0.0 -0.0 1.0
  outer loop
    vertex -8.449727065984282 27.12206763262542 12.999999999999998
    vertex -9.447428989389923 16.510073370831527 12.999999999999998
    vertex -8.263774902655042 12.965053275584767 12.999999999999998
  endloop
endfacet
facet normal -0.0 -0.0 1.0
  outer loop
    vertex -8.449727065984282 27.12206763262542 12.999999999999998
    vertex -8.263774902655042 12.965053275584767 12.999999999999998
    vertex -6.973440364790339 30.415968394615692 12.999999999999998
  endloop
endfacet
facet normal -0.0 -0.0 1.0
  outer loop
    vertex -6.973440364790339 30.415968394615692 12.999999999999998
    vertex -8.263774902655042 12.965053275584767 12.999999999999998
    vertex -7.2875947673998445 20.1518210197232 12.999999999999998
  endloop
endfacet
facet normal -0.0 -0.0 1.0
  outer loop
    vertex -6.973440364790339 30.415968394615692 12.999999999999998
    vertex -7.2875947673998445 20.1518210197232 12.999999999999998
    vertex -6.585885868434371 23.29298943414716 12.999999999999998
  endloop
endfacet
facet normal -0.0 -0.0 1.0
  outer loop
    vertex -6.973440364790339 30.415968394615692 12.999999999999998
    vertex -6.585885868434371 23.29298943414716 12.999999999999998
    vertex -5.1475064029657425 33.52967516003502 12.999999999999998
  endloop
endfacet
facet normal -0.0 -0.0 1.0
  outer loop
    vertex -5.1475064029657425 33.52967516003502 12.999999999999998
    vertex -6.585885868434371 23.29298943414716 12.999999999999998
    vertex -5.554543529193196 26.34186912445156 12.999999999999998
  endloop
endfacet
facet normal -0.0 -0.0 1.0
  outer loop
    vertex -5.1475064029657425 33.52967516003502 12.999999999999998
    vertex -5.554543529193196 26.34186912445156 12.999999999999998
    vertex -4.205233360670178 29.263973923356417 12.999999999999998
  endloop
endfacet
facet normal -0.0 -0.0 1.0
  outer loop
    vertex -5.1475064029657425 33.52967516003502 12.999999999999998
    vertex -4.205233360670178 29.263973923356417 12.999999999999998
    vertex -2.9936083254083137 36.42621235562854 12.999999999999998
  endloop
endfacet
facet normal -0.0 -0.0 1.0
  outer loop
    vertex -2.9936083254083137 36.42621235562854 12.999999999999998
    vertex -4.205233360670178 29.263973923356417 12.999999999999998
    vertex -2.5532175381267264 32.026251626399386 12.999999999999998
  endloop
endfacet
facet normal -0.0 -0.0 1.0
  outer loop
    vertex -2.9936083254083137 36.42621235562854 12.999999999999998
    vertex -2.5532175381267264 32.026251626399386 12.999999999999998
    vertex -2.611338271056381 36.841882500620216 12.999999999999998
  endloop
endfacet
facet normal -0.0 -0.0 1.0
  outer loop
    vertex -2.611338271056381 36.841882500620216 12.999999999999998
    vertex -2.5532175381267264 32.026251626399386 12.999999999999998
    vertex -0.61718216918016 34.59745784855469 12.999999999999998
  endloop
endfacet
facet normal -0.0 -0.0 1.0
  outer loop
    vertex -2.611338271056381 36.841882500620216 12.999999999999998
    vertex -0.61718216918016 34.59745784855469 12.999999999999998
    vertex -0.4200145546020989 34.81010850281457 12.999999999999998
  endloop
endfacet
facet normal 1.0 -0.0 -0.0
  outer loop
    vertex 0.7124052326001409 14.151821019723222 10.499999999999998
    vertex 0.7124052326001409 13.651821019723151 12.0
    vertex 0.7124052326001409 13.651821019723151 10.499999999999998
  endloop
endfacet
facet normal 1.0 -0.0 -0.0
  outer loop
    vertex 0.7124052326001409 13.651821019723151 12.0
    vertex 0.7124052326001409 14.151821019723222 10.499999999999998
    vertex 0.7124052326001409 14.151821019723222 12.0
  endloop
endfacet
facet normal 1.0 -0.0 -0.0
  outer loop
    vertex 0.7124052326001409 2.1518210197231524 0.0
    vertex 0.7124052326001409 2.6518210197231515 9.999999999999998
    vertex 0.7124052326001409 2.151821019723152 9.999999999999998
  endloop
endfacet
facet normal 1.0 -0.0 -0.0
  outer loop
    vertex 0.7124052326001409 2.6518210197231515 9.999999999999998
    vertex 0.7124052326001409 2.1518210197231524 0.0
    vertex 0.7124052326001409 2.6518210197231524 0.0
  endloop
endfacet
facet normal 1.0 -2.0542490217648718e-16 3.3723770348478672e-18
  outer loop
    vertex 0.7124052326001409 2.1518210197231524 0.0
    vertex 0.7124052326001405 0.7672056351078417 12.999999999999998
    vertex 0.7124052326001405 0.7672056351078417 0.0
  endloop
endfacet
facet normal 1.0 -2.0542490217648718e-16 3.3723770348478672e-18
  outer loop
    vertex 0.7124052326001405 0.7672056351078417 12.999999999999998
    vertex 0.7124052326001409 2.1518210197231524 0.0
    vertex 0.7124052326001409 2.151821019723152 9.999999999999998
  endloop
endfacet
facet normal 1.0 -2.0542490217648718e-16 3.3723770348478672e-18
  outer loop
    vertex 0.7124052326001409 2.6518210197231524 10.499999999999998
    vertex 0.7124052326001409 2.6518210197231515 11.999999999999998
    vertex 0.7124052326001409 2.1518210197231524 10.499999999999998
  endloop
endfacet
facet normal 1.0 -2.0542490217648718e-16 3.3723770348478672e-18
  outer loop
    vertex 0.7124052326001405 0.7672056351078417 12.999999999999998
    vertex 0.7124052326001409 2.1518210197231524 10.499999999999998
    vertex 0.7124052326001409 2.6518210197231524 12.999999999999998
  endloop
endfacet
facet normal 1.0 -2.0542490217648718e-16 3.3723770348478672e-18
  outer loop
    vertex 0.7124052326001409 2.1518210197231524 10.499999999999998
    vertex 0.7124052326001405 0.7672056351078417 12.999999999999998
    vertex 0.7124052326001409 2.151821019723152 9.999999999999998
  endloop
endfacet
facet normal 1.0 -2.0542490217648718e-16 3.3723770348478672e-18
  outer loop
    vertex 0.7124052326001409 2.6518210197231524 12.999999999999998
    vertex 0.7124052326001409 2.1518210197231524 10.499999999999998
    vertex 0.7124052326001409 2.6518210197231515 11.999999999999998
  endloop
endfacet
facet normal 1.0 -0.0 -0.0
  outer loop
    vertex 0.7124052326001409 26.15182101972315 10.5
    vertex 0.7124052326001409 25.65182101972315 11.999999999999998
    vertex 0.7124052326001409 25.65182101972315 10.499999999999998
  endloop
endfacet
facet normal 1.0 -0.0 -0.0
  outer loop
    vertex 0.7124052326001409 25.65182101972315 11.999999999999998
    vertex 0.7124052326001409 26.15182101972315 10.5
    vertex 0.7124052326001409 26.15182101972315 12.0
  endloop
endfacet
facet normal 1.0 -0.0 -0.0
  outer loop
    vertex 18.71240523260014 20.15182101972315 9.999999999999998
    vertex 18.71240523260014 14.651821019723151 12.999999999999998
    vertex 18.71240523260014 14.651821019723151 9.999999999999998
  endloop
endfacet
facet normal 1.0 -0.0 -0.0
  outer loop
    vertex 18.71240523260014 14.651821019723151 12.999999999999998
    vertex 18.71240523260014 20.15182101972315 9.999999999999998
    vertex 18.71240523260014 20.15182101972315 12.999999999999998
  endloop
endfacet
facet normal 0.0 -1.0 0.0
  outer loop
    vertex 18.71240523260014 14.651821019723151 12.999999999999998
    vertex 10.712405232600139 14.651821019723151 9.999999999999998
    vertex 18.71240523260014 14.651821019723151 9.999999999999998
  endloop
endfacet
facet normal 0.0 -1.0 0.0
  outer loop
    vertex 10.712405232600139 14.651821019723151 9.999999999999998
    vertex 18.71240523260014 14.651821019723151 12.999999999999998
    vertex 8.712405232600139 14.651821019723151 9.999999999999998
  endloop
endfacet
facet normal 0.0 -1.0 0.0
  outer loop
    vertex 8.712405232600139 14.651821019723151 9.999999999999998
    vertex 18.71240523260014 14.651821019723151 12.999999999999998
    vertex 8.712405232600139 14.651821019723151 11.999999999999998
  endloop
endfacet
facet normal 0.0 -1.0 0.0
  outer loop
    vertex 8.712405232600139 14.651821019723151 11.999999999999998
    vertex 18.71240523260014 14.651821019723151 12.999999999999998
    vertex 0.7124052326001409 14.651821019723151 11.999999999999998
  endloop
endfacet
facet normal 0.0 -1.0 0.0
  outer loop
    vertex 0.7124052326001409 14.651821019723151 11.999999999999998
    vertex 18.71240523260014 14.651821019723151 12.999999999999998
    vertex 0.7124052326001409 14.651821019723151 12.999999999999998
  endloop
endfacet
facet normal -0.0 1.0 -0.0
  outer loop
    vertex 0.7124052326001409 25.65182101972315 12.999999999999998
    vertex 8.71240523260014 25.65182101972315 11.999999999999998
    vertex 0.7124052326001409 25.65182101972315 11.999999999999998
  endloop
endfacet
facet normal -0.0 1.0 -0.0
  outer loop
    vertex 8.71240523260014 25.65182101972315 11.999999999999998
    vertex 10.712405232600139 25.65182101972315 9.999999999999998
    vertex 8.71240523260014 25.65182101972315 9.999999999999998
  endloop
endfacet
facet normal -0.0 1.0 -0.0
  outer loop
    vertex 10.712405232600139 25.65182101972315 9.999999999999998
    vertex 8.71240523260014 25.65182101972315 11.999999999999998
    vertex 18.71240523260014 25.65182101972315 9.999999999999998
  endloop
endfacet
facet normal -0.0 1.0 -0.0
  outer loop
    vertex 18.71240523260014 25.65182101972315 9.999999999999998
    vertex 8.71240523260014 25.65182101972315 11.999999999999998
    vertex 18.71240523260014 25.65182101972315 12.999999999999998
  endloop
endfacet
facet normal -0.0 1.0 -0.0
  outer loop
    vertex 18.71240523260014 25.65182101972315 12.999999999999998
    vertex 8.71240523260014 25.65182101972315 11.999999999999998
    vertex 0.7124052326001409 25.65182101972315 12.999999999999998
  endloop
endfacet
facet normal 1.0 -0.0 -0.0
  outer loop
    vertex 18.71240523260014 25.65182101972315 9.999999999999998
    vertex 18.71240523260014 20.15182101972315 12.999999999999998
    vertex 18.71240523260014 20.15182101972315 9.999999999999998
  endloop
endfacet
facet normal 1.0 -0.0 -0.0
  outer loop
    vertex 18.71240523260014 20.15182101972315 12.999999999999998
    vertex 18.71240523260014 25.65182101972315 9.999999999999998
    vertex 18.71240523260014 25.65182101972315 12.999999999999998
  endloop
endfacet
facet normal -0.4519792601040381 0.8920284459790542 5.546090276684197e-16
  outer loop
    vertex 8.712405232600144 39.58495053883883 11.999999999999998
    vertex 10.712405232600142 40.59832463501569 9.999999999999998
    vertex 8.712405232600144 39.58495053883883 9.999999999999998
  endloop
endfacet
facet normal -0.4519792601040381 0.8920284459790542 5.546090276684197e-16
  outer loop
    vertex 0.7124052326001409 35.531454154131374 12.999999999999998
    vertex 8.712405232600144 39.58495053883883 11.999999999999998
    vertex 0.7124052326001409 35.531454154131374 11.999999999999996
  endloop
endfacet
facet normal -0.4519792601040381 0.8920284459790542 5.546090276684197e-16
  outer loop
    vertex 10.712405232600142 40.59832463501569 9.999999999999998
    vertex 18.712405232600144 44.65182101972315 12.999999999999998
    vertex 18.712405232600144 44.65182101972315 9.999999999999996
  endloop
endfacet
facet normal -0.4519792601040381 0.8920284459790542 5.546090276684197e-16
  outer loop
    vertex 18.712405232600144 44.65182101972315 12.999999999999998
    vertex 10.712405232600142 40.59832463501569 9.999999999999998
    vertex 8.712405232600144 39.58495053883883 11.999999999999998
  endloop
endfacet
facet normal -0.4519792601040381 0.8920284459790542 5.546090276684197e-16
  outer loop
    vertex 18.712405232600144 44.65182101972315 12.999999999999998
    vertex 8.712405232600144 39.58495053883883 11.999999999999998
    vertex 0.7124052326001409 35.531454154131374 12.999999999999998
  endloop
endfacet
facet normal 0.0 -1.0 0.0
  outer loop
    vertex 18.712405232600144 26.651821019723148 12.999999999999998
    vertex 10.712405232600142 26.651821019723148 9.999999999999998
    vertex 18.712405232600144 26.651821019723148 9.999999999999996
  endloop
endfacet
facet normal 0.0 -1.0 0.0
  outer loop
    vertex 10.712405232600142 26.651821019723148 9.999999999999998
    vertex 18.712405232600144 26.651821019723148 12.999999999999998
    vertex 8.712405232600144 26.651821019723148 9.999999999999998
  endloop
endfacet
facet normal 0.0 -1.0 0.0
  outer loop
    vertex 8.712405232600144 26.651821019723148 9.999999999999998
    vertex 18.712405232600144 26.651821019723148 12.999999999999998
    vertex 8.712405232600144 26.651821019723148 11.999999999999998
  endloop
endfacet
facet normal 0.0 -1.0 0.0
  outer loop
    vertex 8.712405232600144 26.651821019723148 11.999999999999998
    vertex 18.712405232600144 26.651821019723148 12.999999999999998
    vertex 0.7124052326001409 26.651821019723148 12.0
  endloop
endfacet
facet normal 0.0 -1.0 0.0
  outer loop
    vertex 0.7124052326001409 26.651821019723148 12.0
    vertex 18.712405232600144 26.651821019723148 12.999999999999998
    vertex 0.7124052326001409 26.651821019723148 12.999999999999998
  endloop
endfacet
facet normal 1.0 -0.0 -0.0
  outer loop
    vertex 18.712405232600144 44.65182101972315 9.999999999999996
    vertex 18.712405232600144 26.651821019723148 12.999999999999998
    vertex 18.712405232600144 26.651821019723148 9.999999999999996
  endloop
endfacet
facet normal 1.0 -0.0 -0.0
  outer loop
    vertex 18.712405232600144 26.651821019723148 12.999999999999998
    vertex 18.712405232600144 44.65182101972315 9.999999999999996
    vertex 18.712405232600144 44.65182101972315 12.999999999999998
  endloop
endfacet
facet normal 1.0 -0.0 -0.0
  outer loop
    vertex 0.7124052326001409 35.531454154131374 0.0
    vertex 0.7124052326001409 26.651821019723148 4.999999999999999
    vertex 0.7124052326001409 26.651821019723148 0.0
  endloop
endfacet
facet normal 1.0 -0.0 -0.0
  outer loop
    vertex 0.7124052326001409 26.651821019723148 4.999999999999999
    vertex 0.7124052326001409 35.531454154131374 0.0
    vertex 0.7124052326001409 26.651821019723148 9.999999999999998
  endloop
endfacet
facet normal 1.0 -0.0 -0.0
  outer loop
    vertex 0.7124052326001409 26.651821019723148 9.999999999999998
    vertex 0.7124052326001409 35.531454154131374 0.0
    vertex 0.7124052326001409 26.651821019723148 10.499999999999998
  endloop
endfacet
facet normal 1.0 -0.0 -0.0
  outer loop
    vertex 0.7124052326001409 26.651821019723148 10.499999999999998
    vertex 0.7124052326001409 35.531454154131374 0.0
    vertex 0.7124052326001409 26.651821019723148 12.0
  endloop
endfacet
facet normal 1.0 -0.0 -0.0
  outer loop
    vertex 0.7124052326001409 26.651821019723148 12.0
    vertex 0.7124052326001409 35.531454154131374 0.0
    vertex 0.7124052326001409 35.531454154131374 11.999999999999996
  endloop
endfacet
facet normal 1.0 -0.0 -0.0
  outer loop
    vertex 0.7124052326001409 2.6518210197231515 9.999999999999998
    vertex 0.7124052326001409 2.1518210197231524 10.499999999999998
    vertex 0.7124052326001409 2.151821019723152 9.999999999999998
  endloop
endfacet
facet normal 1.0 -0.0 -0.0
  outer loop
    vertex 0.7124052326001409 2.1518210197231524 10.499999999999998
    vertex 0.7124052326001409 2.6518210197231515 9.999999999999998
    vertex 0.7124052326001409 2.6518210197231524 10.499999999999998
  endloop
endfacet
facet normal -0.36244626115494843 -0.9320046715412961 9.657730217684123e-17
  outer loop
    vertex 18.712405232600144 -4.348178980276851 12.999999999999998
    vertex 10.712405232600142 -1.2370678691657389 9.999999999999998
    vertex 18.712405232600144 -4.348178980276851 9.999999999999998
  endloop
endfacet
facet normal -0.36244626115494843 -0.9320046715412961 9.657730217684123e-17
  outer loop
    vertex 10.712405232600142 -1.2370678691657389 9.999999999999998
    vertex 18.712405232600144 -4.348178980276851 12.999999999999998
    vertex 8.712405232600144 -0.4592900913879606 9.999999999999998
  endloop
endfacet
facet normal -0.36244626115494843 -0.9320046715412961 9.657730217684123e-17
  outer loop
    vertex 8.712405232600144 -0.4592900913879606 9.999999999999998
    vertex 18.712405232600144 -4.348178980276851 12.999999999999998
    vertex 8.712405232600144 -0.4592900913879606 11.999999999999998
  endloop
endfacet
facet normal -0.36244626115494843 -0.9320046715412961 9.657730217684123e-17
  outer loop
    vertex 8.712405232600144 -0.4592900913879606 11.999999999999998
    vertex 18.712405232600144 -4.348178980276851 12.999999999999998
    vertex 0.7124052326001409 2.6518210197231515 11.999999999999998
  endloop
endfacet
facet normal -0.36244626115494843 -0.9320046715412961 9.657730217684123e-17
  outer loop
    vertex 0.7124052326001409 2.6518210197231515 11.999999999999998
    vertex 18.712405232600144 -4.348178980276851 12.999999999999998
    vertex 0.7124052326001409 2.6518210197231524 12.999999999999998
  endloop
endfacet
facet normal -0.0 1.0 -0.0
  outer loop
    vertex 8.712405232600144 13.651821019723151 11.999999999999998
    vertex 10.712405232600142 13.651821019723151 9.999999999999998
    vertex 8.712405232600144 13.651821019723151 9.999999999999998
  endloop
endfacet
facet normal -0.0 1.0 -0.0
  outer loop
    vertex 10.712405232600142 13.651821019723151 9.999999999999998
    vertex 8.712405232600144 13.651821019723151 11.999999999999998
    vertex 18.712405232600144 13.651821019723151 9.999999999999998
  endloop
endfacet
facet normal -0.0 1.0 -0.0
  outer loop
    vertex 18.712405232600144 13.651821019723151 9.999999999999998
    vertex 8.712405232600144 13.651821019723151 11.999999999999998
    vertex 18.712405232600144 13.651821019723151 12.999999999999998
  endloop
endfacet
facet normal -0.0 1.0 -0.0
  outer loop
    vertex 18.712405232600144 13.651821019723151 12.999999999999998
    vertex 8.712405232600144 13.651821019723151 11.999999999999998
    vertex 0.7124052326001409 13.651821019723151 12.0
  endloop
endfacet
facet normal -0.0 1.0 -0.0
  outer loop
    vertex 18.712405232600144 13.651821019723151 12.999999999999998
    vertex 0.7124052326001409 13.651821019723151 12.0
    vertex 0.7124052326001409 13.651821019723151 12.999999999999998
  endloop
endfacet
facet normal 1.0 -0.0 -0.0
  outer loop
    vertex 18.712405232600144 13.651821019723151 9.999999999999998
    vertex 18.712405232600144 -4.348178980276851 12.999999999999998
    vertex 18.712405232600144 -4.348178980276851 9.999999999999998
  endloop
endfacet
facet normal 1.0 -0.0 -0.0
  outer loop
    vertex 18.712405232600144 -4.348178980276851 12.999999999999998
    vertex 18.712405232600144 13.651821019723151 9.999999999999998
    vertex 18.712405232600144 13.651821019723151 12.999999999999998
  endloop
endfacet
facet normal 1.0 -0.0 -0.0
  outer loop
    vertex 0.7124052326001409 2.6518210197231524 0.0
    vertex 0.7124052326001409 2.6518210197231524 10.499999999999998
    vertex 0.7124052326001409 2.6518210197231515 9.999999999999998
  endloop
endfacet
facet normal 1.0 -0.0 -0.0
  outer loop
    vertex 0.7124052326001409 2.6518210197231524 10.499999999999998
    vertex 0.7124052326001409 2.6518210197231524 0.0
    vertex 0.7124052326001409 3.739532715372636 0.0
  endloop
endfacet
facet normal 1.0 -0.0 -0.0
  outer loop
    vertex 0.7124052326001409 2.6518210197231524 10.499999999999998
    vertex 0.7124052326001409 13.651821019723151 12.0
    vertex 0.7124052326001409 2.6518210197231515 11.999999999999998
  endloop
endfacet
facet normal 1.0 -0.0 -0.0
  outer loop
    vertex 0.7124052326001409 13.651821019723151 12.0
    vertex 0.7124052326001409 2.6518210197231524 10.499999999999998
    vertex 0.7124052326001409 3.739532715372636 0.0
  endloop
endfacet
facet normal 1.0 -0.0 -0.0
  outer loop
    vertex 0.7124052326001409 13.651821019723151 12.0
    vertex 0.7124052326001409 3.739532715372636 0.0
    vertex 0.7124052326001409 13.651821019723151 0.0
  endloop
endfacet
facet normal 1.0 -0.0 -0.0
  outer loop
    vertex 0.7124052326001409 13.651821019723151 12.0
    vertex 0.7124052326001409 13.651821019723151 0.0
    vertex 0.7124052326001409 13.651821019723151 9.999999999999998
  endloop
endfacet
facet normal 1.0 -0.0 -0.0
  outer loop
    vertex 0.7124052326001409 13.651821019723151 12.0
    vertex 0.7124052326001409 13.651821019723151 9.999999999999998
    vertex 0.7124052326001409 13.651821019723151 10.499999999999998
  endloop
endfacet
facet normal 1.0 -0.0 -0.0
  outer loop
    vertex 0.7124052326001409 26.651821019723148 10.499999999999998
    vertex 0.7124052326001409 26.15182101972315 12.0
    vertex 0.7124052326001409 26.15182101972315 10.5
  endloop
endfacet
facet normal 1.0 -0.0 -0.0
  outer loop
    vertex 0.7124052326001409 26.15182101972315 12.0
    vertex 0.7124052326001409 26.651821019723148 10.499999999999998
    vertex 0.7124052326001409 26.651821019723148 12.0
  endloop
endfacet
facet normal -0.0 -0.0 1.0
  outer loop
    vertex 18.712405232600144 26.651821019723148 12.999999999999998
    vertex 0.7124052326001409 35.531454154131374 12.999999999999998
    vertex 0.7124052326001409 26.651821019723148 12.999999999999998
  endloop
endfacet
facet normal -0.0 -0.0 1.0
  outer loop
    vertex 0.7124052326001409 35.531454154131374 12.999999999999998
    vertex 18.712405232600144 26.651821019723148 12.999999999999998
    vertex 18.712405232600144 44.65182101972315 12.999999999999998
  endloop
endfacet
facet normal 1.0 -0.0 -0.0
  outer loop
    vertex 0.7124052326001409 26.651821019723148 12.0
    vertex 0.7124052326001409 26.15182101972315 12.999999999999998
    vertex 0.7124052326001409 26.15182101972315 12.0
  endloop
endfacet
facet normal 1.0 -0.0 -0.0
  outer loop
    vertex 0.7124052326001409 26.15182101972315 12.999999999999998
    vertex 0.7124052326001409 26.651821019723148 12.0
    vertex 0.7124052326001409 26.651821019723148 12.999999999999998
  endloop
endfacet
facet normal -1.7624790515924354e-16 0.0 -1.0
  outer loop
    vertex 18.712405232600144 44.65182101972315 9.999999999999996
    vertex 10.712405232600142 26.651821019723148 9.999999999999998
    vertex 10.712405232600142 40.59832463501569 9.999999999999998
  endloop
endfacet
facet normal -1.7624790515924354e-16 0.0 -1.0
  outer loop
    vertex 10.712405232600142 26.651821019723148 9.999999999999998
    vertex 18.712405232600144 44.65182101972315 9.999999999999996
    vertex 18.712405232600144 26.651821019723148 9.999999999999996
  endloop
endfacet
facet normal 1.0 -0.0 -0.0
  outer loop
    vertex 0.7124052326001409 14.651821019723151 10.499999999999998
    vertex 0.7124052326001409 14.151821019723222 12.0
    vertex 0.7124052326001409 14.151821019723222 10.499999999999998
  endloop
endfacet
facet normal 1.0 -0.0 -0.0
  outer loop
    vertex 0.7124052326001409 14.151821019723222 12.0
    vertex 0.7124052326001409 14.651821019723151 10.499999999999998
    vertex 0.7124052326001409 14.651821019723151 11.999999999999998
  endloop
endfacet
facet normal -0.0 -0.0 1.0
  outer loop
    vertex 18.71240523260014 14.651821019723151 12.999999999999998
    vertex 0.7124052326001409 25.65182101972315 12.999999999999998
    vertex 0.7124052326001409 14.651821019723151 12.999999999999998
  endloop
endfacet
facet normal -0.0 -0.0 1.0
  outer loop
    vertex 0.7124052326001409 25.65182101972315 12.999999999999998
    vertex 18.71240523260014 14.651821019723151 12.999999999999998
    vertex 18.71240523260014 25.65182101972315 12.999999999999998
  endloop
endfacet
facet normal -0.0 -0.0 1.0
  outer loop
    vertex 18.71240523260014 25.65182101972315 12.999999999999998
    vertex 18.71240523260014 14.651821019723151 12.999999999999998
    vertex 18.71240523260014 20.15182101972315 12.999999999999998
  endloop
endfacet
facet normal 1.0 -0.0 -0.0
  outer loop
    vertex 0.7124052326001409 14.651821019723151 11.999999999999998
    vertex 0.7124052326001409 14.151821019723222 12.999999999999998
    vertex 0.7124052326001409 14.151821019723222 12.0
  endloop
endfacet
facet normal 1.0 -0.0 -0.0
  outer loop
    vertex 0.7124052326001409 14.151821019723222 12.999999999999998
    vertex 0.7124052326001409 14.651821019723151 11.999999999999998
    vertex 0.7124052326001409 14.651821019723151 12.999999999999998
  endloop
endfacet
facet normal 0.0 0.0 -1.0
  outer loop
    vertex 8.71240523260014 25.65182101972315 11.999999999999998
    vertex 0.7124052326001409 14.651821019723151 11.999999999999998
    vertex 0.7124052326001409 25.65182101972315 11.999999999999998
  endloop
endfacet
facet normal 0.0 0.0 -1.0
  outer loop
    vertex 0.7124052326001409 14.651821019723151 11.999999999999998
    vertex 8.71240523260014 25.65182101972315 11.999999999999998
    vertex 8.712405232600139 14.651821019723151 11.999999999999998
  endloop
endfacet
facet normal 0.0 0.0 -1.0
  outer loop
    vertex 18.71240523260014 25.65182101972315 9.999999999999998
    vertex 10.712405232600139 14.651821019723151 9.999999999999998
    vertex 10.712405232600139 25.65182101972315 9.999999999999998
  endloop
endfacet
facet normal 0.0 0.0 -1.0
  outer loop
    vertex 10.712405232600139 14.651821019723151 9.999999999999998
    vertex 18.71240523260014 25.65182101972315 9.999999999999998
    vertex 18.71240523260014 14.651821019723151 9.999999999999998
  endloop
endfacet
facet normal 0.0 0.0 -1.0
  outer loop
    vertex 18.71240523260014 14.651821019723151 9.999999999999998
    vertex 18.71240523260014 25.65182101972315 9.999999999999998
    vertex 18.71240523260014 20.15182101972315 9.999999999999998
  endloop
endfacet
facet normal -0.0 -0.0 1.0
  outer loop
    vertex 18.712405232600144 -4.348178980276851 12.999999999999998
    vertex 0.7124052326001409 3.739532715372636 12.999999999999998
    vertex 0.7124052326001409 2.6518210197231524 12.999999999999998
  endloop
endfacet
facet normal -0.0 -0.0 1.0
  outer loop
    vertex 0.7124052326001409 3.739532715372636 12.999999999999998
    vertex 18.712405232600144 -4.348178980276851 12.999999999999998
    vertex 0.7124052326001409 13.651821019723151 12.999999999999998
  endloop
endfacet
facet normal -0.0 -0.0 1.0
  outer loop
    vertex 0.7124052326001409 13.651821019723151 12.999999999999998
    vertex 18.712405232600144 -4.348178980276851 12.999999999999998
    vertex 18.712405232600144 13.651821019723151 12.999999999999998
  endloop
endfacet
facet normal -7.870321997064715e-17 4.844948198901228e-17 -1.0
  outer loop
    vertex 8.712405232600144 13.651821019723151 11.999999999999998
    vertex 0.7124052326001409 2.6518210197231515 11.999999999999998
    vertex 0.7124052326001409 13.651821019723151 12.0
  endloop
endfacet
facet normal -7.870321997064715e-17 4.844948198901228e-17 -1.0
  outer loop
    vertex 0.7124052326001409 2.6518210197231515 11.999999999999998
    vertex 8.712405232600144 13.651821019723151 11.999999999999998
    vertex 8.712405232600144 -0.4592900913879606 11.999999999999998
  endloop
endfacet
facet normal 0.0 0.0 -1.0
  outer loop
    vertex 18.712405232600144 13.651821019723151 9.999999999999998
    vertex 10.712405232600142 -1.2370678691657389 9.999999999999998
    vertex 10.712405232600142 13.651821019723151 9.999999999999998
  endloop
endfacet
facet normal 0.0 0.0 -1.0
  outer loop
    vertex 10.712405232600142 -1.2370678691657389 9.999999999999998
    vertex 18.712405232600144 13.651821019723151 9.999999999999998
    vertex 18.712405232600144 -4.348178980276851 9.999999999999998
  endloop
endfacet
facet normal -0.0 1.0 -0.0
  outer loop
    vertex 0.2488101045619345 35.531454154131374 12.999999999999998
    vertex 0.7124052326001409 35.531454154131374 0.0
    vertex 0.2488101045619345 35.531454154131374 0.0
  endloop
endfacet
facet normal -0.0 1.0 -0.0
  outer loop
    vertex 0.7124052326001409 35.531454154131374 0.0
    vertex 0.2488101045619345 35.531454154131374 12.999999999999998
    vertex 0.7124052326001409 35.531454154131374 11.999999999999996
  endloop
endfacet
facet normal -0.0 1.0 -0.0
  outer loop
    vertex 0.7124052326001409 35.531454154131374 11.999999999999996
    vertex 0.2488101045619345 35.531454154131374 12.999999999999998
    vertex 0.7124052326001409 35.531454154131374 12.999999999999998
  endloop
endfacet
facet normal 0.0 0.0 -1.0
  outer loop
    vertex -6.585885868434371 23.29298943414716 0.0
    vertex -6.474948986358175 16.903158472217573 0.0
    vertex -7.2875947673998445 20.1518210197232 0.0
  endloop
endfacet
facet normal 0.0 0.0 -1.0
  outer loop
    vertex -6.474948986358175 16.903158472217573 0.0
    vertex -6.585885868434371 23.29298943414716 0.0
    vertex -5.554543529193196 26.34186912445156 0.0
  endloop
endfacet
facet normal 0.0 0.0 -1.0
  outer loop
    vertex -6.474948986358175 16.903158472217573 0.0
    vertex -5.554543529193196 26.34186912445156 0.0
    vertex -5.3688587404232235 13.742341191693805 0.0
  endloop
endfacet
facet normal 0.0 0.0 -1.0
  outer loop
    vertex -5.3688587404232235 13.742341191693805 0.0
    vertex -5.554543529193196 26.34186912445156 0.0
    vertex -4.205233360670178 29.263973923356417 0.0
  endloop
endfacet
facet normal 0.0 0.0 -1.0
  outer loop
    vertex -5.3688587404232235 13.742341191693805 0.0
    vertex -4.205233360670178 29.263973923356417 0.0
    vertex -3.978578412566562 10.695814953010585 0.0
  endloop
endfacet
facet normal 0.0 0.0 -1.0
  outer loop
    vertex -3.978578412566562 10.695814953010585 0.0
    vertex -4.205233360670178 29.263973923356417 0.0
    vertex -2.5532175381267264 32.026251626399386 0.0
  endloop
endfacet
facet normal 0.0 0.0 -1.0
  outer loop
    vertex -3.978578412566562 10.695814953010585 0.0
    vertex -2.5532175381267264 32.026251626399386 0.0
    vertex -2.3157401337462113 7.789069286203768 0.0
  endloop
endfacet
facet normal 0.0 0.0 -1.0
  outer loop
    vertex -2.3157401337462113 7.789069286203768 0.0
    vertex -2.5532175381267264 32.026251626399386 0.0
    vertex -0.61718216918016 34.59745784855469 0.0
  endloop
endfacet
facet normal 0.0 0.0 -1.0
  outer loop
    vertex -2.3157401337462113 7.789069286203768 0.0
    vertex -0.61718216918016 34.59745784855469 0.0
    vertex -0.3942564597492684 5.046424211905337 0.0
  endloop
endfacet
facet normal 0.0 0.0 -1.0
  outer loop
    vertex -0.3942564597492684 5.046424211905337 0.0
    vertex -0.61718216918016 34.59745784855469 0.0
    vertex -0.4200145546020989 34.81010850281457 0.0
  endloop
endfacet
facet normal 0.0 0.0 -1.0
  outer loop
    vertex -0.3942564597492684 5.046424211905337 0.0
    vertex -0.4200145546020989 34.81010850281457 0.0
    vertex 0.2488101045619345 35.531454154131374 0.0
  endloop
endfacet
facet normal 0.0 0.0 -1.0
  outer loop
    vertex -0.3942564597492684 5.046424211905337 0.0
    vertex 0.2488101045619345 35.531454154131374 0.0
    vertex 0.7124052326001409 3.739532715372636 0.0
  endloop
endfacet
facet normal 0.0 0.0 -1.0
  outer loop
    vertex 0.7124052326001409 3.739532715372636 0.0
    vertex 0.2488101045619345 35.531454154131374 0.0
    vertex 0.7124052326001409 35.531454154131374 0.0
  endloop
endfacet
facet normal 0.0 0.0 -1.0
  outer loop
    vertex 0.7124052326001409 3.739532715372636 0.0
    vertex 0.7124052326001409 35.531454154131374 0.0
    vertex 0.7124052326001409 26.651821019723148 0.0
  endloop
endfacet
facet normal 0.0 0.0 -1.0
  outer loop
    vertex 0.7124052326001409 3.739532715372636 0.0
    vertex 0.7124052326001409 26.651821019723148 0.0
    vertex 0.7124052326001409 26.15182101972315 0.0
  endloop
endfacet
facet normal 0.0 0.0 -1.0
  outer loop
    vertex 0.7124052326001409 3.739532715372636 0.0
    vertex 0.7124052326001409 26.15182101972315 0.0
    vertex 0.7124052326001409 25.65182101972315 0.0
  endloop
endfacet
facet normal 0.0 0.0 -1.0
  outer loop
    vertex 0.7124052326001409 3.739532715372636 0.0
    vertex 0.7124052326001409 25.65182101972315 0.0
    vertex 0.7124052326001409 14.651821019723151 0.0
  endloop
endfacet
facet normal 0.0 0.0 -1.0
  outer loop
    vertex 0.7124052326001409 3.739532715372636 0.0
    vertex 0.7124052326001409 14.651821019723151 0.0
    vertex 0.7124052326001409 14.151821019723222 0.0
  endloop
endfacet
facet normal 0.0 0.0 -1.0
  outer loop
    vertex 0.7124052326001409 3.739532715372636 0.0
    vertex 0.7124052326001409 14.151821019723222 0.0
    vertex 0.7124052326001409 13.651821019723151 0.0
  endloop
endfacet
facet normal -3.768875323990482e-18 -1.8499221972076467e-18 -1.0
  outer loop
    vertex -9.558835457165726 23.687088268702997 0.0
    vertex -9.447428989389923 16.510073370831527 0.0
    vertex -10.287594767399838 20.1518210197232 0.0
  endloop
endfacet
facet normal -3.768875323990482e-18 -1.8499221972076467e-18 -1.0
  outer loop
    vertex -9.447428989389923 16.510073370831527 0.0
    vertex -9.558835457165726 23.687088268702997 0.0
    vertex -8.449727065984282 27.12206763262542 0.0
  endloop
endfacet
facet normal -3.768875323990482e-18 -1.8499221972076467e-18 -1.0
  outer loop
    vertex -9.447428989389923 16.510073370831527 0.0
    vertex -8.449727065984282 27.12206763262542 0.0
    vertex -8.263774902655042 12.965053275584767 0.0
  endloop
endfacet
facet normal -3.768875323990482e-18 -1.8499221972076467e-18 -1.0
  outer loop
    vertex -8.263774902655042 12.965053275584767 0.0
    vertex -8.449727065984282 27.12206763262542 0.0
    vertex -6.973440364790339 30.415968394615692 0.0
  endloop
endfacet
facet normal -3.768875323990482e-18 -1.8499221972076467e-18 -1.0
  outer loop
    vertex -8.263774902655042 12.965053275584767 0.0
    vertex -6.973440364790339 30.415968394615692 0.0
    vertex -7.2875947673998445 20.1518210197232 0.0
  endloop
endfacet
facet normal -3.768875323990482e-18 -1.8499221972076467e-18 -1.0
  outer loop
    vertex -7.2875947673998445 20.1518210197232 0.0
    vertex -6.973440364790339 30.415968394615692 0.0
    vertex -6.585885868434371 23.29298943414716 0.0
  endloop
endfacet
facet normal -3.768875323990482e-18 -1.8499221972076467e-18 -1.0
  outer loop
    vertex -6.585885868434371 23.29298943414716 0.0
    vertex -6.973440364790339 30.415968394615692 0.0
    vertex -5.1475064029657425 33.52967516003502 0.0
  endloop
endfacet
facet normal -3.768875323990482e-18 -1.8499221972076467e-18 -1.0
  outer loop
    vertex -6.585885868434371 23.29298943414716 0.0
    vertex -5.1475064029657425 33.52967516003502 0.0
    vertex -5.554543529193196 26.34186912445156 0.0
  endloop
endfacet
facet normal -3.768875323990482e-18 -1.8499221972076467e-18 -1.0
  outer loop
    vertex -5.554543529193196 26.34186912445156 0.0
    vertex -5.1475064029657425 33.52967516003502 0.0
    vertex -4.205233360670178 29.263973923356417 0.0
  endloop
endfacet
facet normal -3.768875323990482e-18 -1.8499221972076467e-18 -1.0
  outer loop
    vertex -4.205233360670178 29.263973923356417 0.0
    vertex -5.1475064029657425 33.52967516003502 0.0
    vertex -2.9936083254083137 36.42621235562854 0.0
  endloop
endfacet
facet normal -3.768875323990482e-18 -1.8499221972076467e-18 -1.0
  outer loop
    vertex -4.205233360670178 29.263973923356417 0.0
    vertex -2.9936083254083137 36.42621235562854 0.0
    vertex -2.5532175381267264 32.026251626399386 0.0
  endloop
endfacet
facet normal -3.768875323990482e-18 -1.8499221972076467e-18 -1.0
  outer loop
    vertex -2.5532175381267264 32.026251626399386 0.0
    vertex -2.9936083254083137 36.42621235562854 0.0
    vertex -2.611338271056381 36.841882500620216 -3.524958103184872e-16
  endloop
endfacet
facet normal -3.768875323990482e-18 -1.8499221972076467e-18 -1.0
  outer loop
    vertex -2.5532175381267264 32.026251626399386 0.0
    vertex -2.611338271056381 36.841882500620216 -3.524958103184872e-16
    vertex -0.61718216918016 34.59745784855469 0.0
  endloop
endfacet
facet normal -3.768875323990482e-18 -1.8499221972076467e-18 -1.0
  outer loop
    vertex -0.61718216918016 34.59745784855469 0.0
    vertex -2.611338271056381 36.841882500620216 -3.524958103184872e-16
    vertex -0.4200145546020989 34.81010850281457 0.0
  endloop
endfacet
facet normal -3.768875323990482e-18 -1.8499221972076467e-18 -1.0
  outer loop
    vertex -7.2875947673998445 20.1518210197232 0.0
    vertex -6.747423230511137 9.549078732480892 0.0
    vertex -8.263774902655042 12.965053275584767 0.0
  endloop
endfacet
facet normal -3.768875323990482e-18 -1.8499221972076467e-18 -1.0
  outer loop
    vertex -6.747423230511137 9.549078732480892 0.0
    vertex -7.2875947673998445 20.1518210197232 0.0
    vertex -6.474948986358175 16.903158472217573 0.0
  endloop
endfacet
facet normal -3.768875323990482e-18 -1.8499221972076467e-18 -1.0
  outer loop
    vertex -6.747423230511137 9.549078732480892 0.0
    vertex -6.474948986358175 16.903158472217573 0.0
    vertex -4.912197717181393 6.293291302692112 0.0
  endloop
endfacet
facet normal -3.768875323990482e-18 -1.8499221972076467e-18 -1.0
  outer loop
    vertex -4.912197717181393 6.293291302692112 0.0
    vertex -6.474948986358175 16.903158472217573 0.0
    vertex -5.3688587404232235 13.742341191693805 0.0
  endloop
endfacet
facet normal -3.768875323990482e-18 -1.8499221972076467e-18 -1.0
  outer loop
    vertex -4.912197717181393 6.293291302692112 0.0
    vertex -5.3688587404232235 13.742341191693805 0.0
    vertex -3.978578412566562 10.695814953010585 0.0
  endloop
endfacet
facet normal -3.768875323990482e-18 -1.8499221972076467e-18 -1.0
  outer loop
    vertex -4.912197717181393 6.293291302692112 0.0
    vertex -3.978578412566562 10.695814953010585 0.0
    vertex -2.774829104322869 3.22737220957916 0.0
  endloop
endfacet
facet normal -3.768875323990482e-18 -1.8499221972076467e-18 -1.0
  outer loop
    vertex -2.774829104322869 3.22737220957916 0.0
    vertex -3.978578412566562 10.695814953010585 0.0
    vertex -2.3157401337462113 7.789069286203768 0.0
  endloop
endfacet
facet normal -3.768875323990482e-18 -1.8499221972076467e-18 -1.0
  outer loop
    vertex -2.774829104322869 3.22737220957916 0.0
    vertex -2.3157401337462113 7.789069286203768 0.0
    vertex -0.35480260605686487 0.379271751302155 0.0
  endloop
endfacet
facet normal -3.768875323990482e-18 -1.8499221972076467e-18 -1.0
  outer loop
    vertex -0.35480260605686487 0.379271751302155 0.0
    vertex -2.3157401337462113 7.789069286203768 0.0
    vertex -0.3942564597492684 5.046424211905337 0.0
  endloop
endfacet
facet normal -3.768875323990482e-18 -1.8499221972076467e-18 -1.0
  outer loop
    vertex -0.35480260605686487 0.379271751302155 0.0
    vertex -0.3942564597492684 5.046424211905337 0.0
    vertex 0.7124052326001409 3.739532715372636 0.0
  endloop
endfacet
facet normal -3.768875323990482e-18 -1.8499221972076467e-18 -1.0
  outer loop
    vertex -0.35480260605686487 0.379271751302155 0.0
    vertex 0.7124052326001409 3.739532715372636 0.0
    vertex 0.0 -3.6766852914275024e-18 0.0
  endloop
endfacet
facet normal -3.768875323990482e-18 -1.8499221972076467e-18 -1.0
  outer loop
    vertex 0.0 -3.6766852914275024e-18 0.0
    vertex 0.7124052326001409 3.739532715372636 0.0
    vertex 0.7124052326001405 0.7672056351078417 0.0
  endloop
endfacet
facet normal -3.768875323990482e-18 -1.8499221972076467e-18 -1.0
  outer loop
    vertex 0.7124052326001405 0.7672056351078417 0.0
    vertex 0.7124052326001409 3.739532715372636 0.0
    vertex 0.7124052326001409 2.1518210197231524 0.0
  endloop
endfacet
facet normal -3.768875323990482e-18 -1.8499221972076467e-18 -1.0
  outer loop
    vertex 0.7124052326001409 2.1518210197231524 0.0
    vertex 0.7124052326001409 3.739532715372636 0.0
    vertex 0.7124052326001409 2.6518210197231524 0.0
  endloop
endfacet
facet normal 0.7327934916262983 -0.6804510993672789 2.2530867255920083e-18
  outer loop
    vertex 0.7124052326001405 0.7672056351078417 0.0
    vertex 0.0 0.0 12.999999999999998
    vertex 0.0 -3.6766852914275024e-18 0.0
  endloop
endfacet
facet normal 0.7327934916262983 -0.6804510993672789 2.2530867255920083e-18
  outer loop
    vertex 0.0 0.0 12.999999999999998
    vertex 0.7124052326001405 0.7672056351078417 0.0
    vertex 0.7124052326001405 0.7672056351078417 12.999999999999998
  endloop
endfacet
facet normal -0.9485241864597512 -0.31670470110319965 0.0
  outer loop
    vertex -9.447428989389923 16.510073370831527 12.999999999999998
    vertex -8.263774902655042 12.965053275584767 0.0
    vertex -8.263774902655042 12.965053275584767 12.999999999999998
  endloop
endfacet
facet normal -0.9485241864597512 -0.31670470110319965 0.0
  outer loop
    vertex -8.263774902655042 12.965053275584767 0.0
    vertex -9.447428989389923 16.510073370831527 12.999999999999998
    vertex -9.447428989389923 16.510073370831527 0.0
  endloop
endfacet
facet normal -0.9139960810967723 -0.40572301356928553 0.0
  outer loop
    vertex -8.263774902655042 12.965053275584767 12.999999999999998
    vertex -6.747423230511137 9.549078732480892 0.0
    vertex -6.747423230511137 9.549078732480892 12.999999999999998
  endloop
endfacet
facet normal -0.9139960810967723 -0.40572301356928553 0.0
  outer loop
    vertex -6.747423230511137 9.549078732480892 0.0
    vertex -8.263774902655042 12.965053275584767 12.999999999999998
    vertex -8.263774902655042 12.965053275584767 0.0
  endloop
endfacet
facet normal -0.7620527098746441 -0.6475149939365972 0.0
  outer loop
    vertex -2.774829104322869 3.22737220957916 12.999999999999998
    vertex -0.35480260605686487 0.379271751302155 0.0
    vertex -0.35480260605686487 0.379271751302155 12.999999999999998
  endloop
endfacet
facet normal -0.7620527098746441 -0.6475149939365972 0.0
  outer loop
    vertex -0.35480260605686487 0.379271751302155 0.0
    vertex -2.774829104322869 3.22737220957916 12.999999999999998
    vertex -2.774829104322869 3.22737220957916 0.0
  endloop
endfacet
facet normal -0.7302714135188858 -0.6831571287757514 0.0
  outer loop
    vertex 0.0 0.0 12.999999999999998
    vertex -0.35480260605686487 0.379271751302155 0.0
    vertex 0.0 -3.6766852914275024e-18 0.0
  endloop
endfacet
facet normal -0.7302714135188858 -0.6831571287757514 0.0
  outer loop
    vertex -0.35480260605686487 0.379271751302155 0.0
    vertex 0.0 0.0 12.999999999999998
    vertex -0.35480260605686487 0.379271751302155 12.999999999999998
  endloop
endfacet
facet normal -0.820333407262104 -0.5718855662890495 0.0
  outer loop
    vertex -4.912197717181393 6.293291302692112 12.999999999999998
    vertex -2.774829104322869 3.22737220957916 0.0
    vertex -2.774829104322869 3.22737220957916 12.999999999999998
  endloop
endfacet
facet normal -0.820333407262104 -0.5718855662890495 0.0
  outer loop
    vertex -2.774829104322869 3.22737220957916 0.0
    vertex -4.912197717181393 6.293291302692112 12.999999999999998
    vertex -4.912197717181393 6.293291302692112 0.0
  endloop
endfacet
facet normal -0.8711355761472429 -0.49104257246252225 0.0
  outer loop
    vertex -6.747423230511137 9.549078732480892 12.999999999999998
    vertex -4.912197717181393 6.293291302692112 0.0
    vertex -4.912197717181393 6.293291302692112 12.999999999999998
  endloop
endfacet
facet normal -0.8711355761472429 -0.49104257246252225 0.0
  outer loop
    vertex -4.912197717181393 6.293291302692112 0.0
    vertex -6.747423230511137 9.549078732480892 12.999999999999998
    vertex -6.747423230511137 9.549078732480892 0.0
  endloop
endfacet
facet normal -0.9744051184895477 -0.2247991660602203 0.0
  outer loop
    vertex -10.287594767399838 20.1518210197232 12.999999999999998
    vertex -9.447428989389923 16.510073370831527 0.0
    vertex -9.447428989389923 16.510073370831527 12.999999999999998
  endloop
endfacet
facet normal -0.9744051184895477 -0.2247991660602203 0.0
  outer loop
    vertex -9.447428989389923 16.510073370831527 0.0
    vertex -10.287594767399838 20.1518210197232 12.999999999999998
    vertex -10.287594767399838 20.1518210197232 0.0
  endloop
endfacet
facet normal -0.979407210577791 0.20189481387155728 0.0
  outer loop
    vertex -9.558835457165726 23.687088268702997 12.999999999999998
    vertex -10.287594767399838 20.1518210197232 0.0
    vertex -10.287594767399838 20.1518210197232 12.999999999999998
  endloop
endfacet
facet normal -0.979407210577791 0.20189481387155728 0.0
  outer loop
    vertex -10.287594767399838 20.1518210197232 0.0
    vertex -9.558835457165726 23.687088268702997 12.999999999999998
    vertex -9.558835457165726 23.687088268702997 0.0
  endloop
endfacet
facet normal 0.6799070460830388 0.7332983081165786 -0.0
  outer loop
    vertex -2.611338271056381 36.841882500620216 12.999999999999998
    vertex -0.4200145546020989 34.81010850281457 0.0
    vertex -2.611338271056381 36.841882500620216 -3.524958103184872e-16
  endloop
endfacet
facet normal 0.6799070460830388 0.7332983081165786 -0.0
  outer loop
    vertex -0.4200145546020989 34.81010850281457 0.0
    vertex -2.611338271056381 36.841882500620216 12.999999999999998
    vertex -0.4200145546020989 34.81010850281457 12.999999999999998
  endloop
endfacet
facet normal 2.5775847013694167e-17 -1.0174267177713802e-16 -1.0
  outer loop
    vertex 8.712405232600144 39.58495053883883 11.999999999999998
    vertex 0.7124052326001409 26.651821019723148 12.0
    vertex 0.7124052326001409 35.531454154131374 11.999999999999996
  endloop
endfacet
facet normal 2.5775847013694167e-17 -1.0174267177713802e-16 -1.0
  outer loop
    vertex 0.7124052326001409 26.651821019723148 12.0
    vertex 8.712405232600144 39.58495053883883 11.999999999999998
    vertex 8.712405232600144 26.651821019723148 11.999999999999998
  endloop
endfacet
facet normal 0.0 0.0 -1.0
  outer loop
    vertex 10.712405232600142 40.59832463501569 9.999999999999998
    vertex 8.712405232600144 26.651821019723148 9.999999999999998
    vertex 8.712405232600144 39.58495053883883 9.999999999999998
  endloop
endfacet
facet normal 0.0 0.0 -1.0
  outer loop
    vertex 8.712405232600144 26.651821019723148 9.999999999999998
    vertex 10.712405232600142 40.59832463501569 9.999999999999998
    vertex 10.712405232600142 26.651821019723148 9.999999999999998
  endloop
endfacet
facet normal -1.0 0.0 0.0
  outer loop
    vertex 8.712405232600144 39.58495053883883 11.999999999999998
    vertex 8.712405232600144 26.651821019723148 9.999999999999998
    vertex 8.712405232600144 26.651821019723148 11.999999999999998
  endloop
endfacet
facet normal -1.0 0.0 0.0
  outer loop
    vertex 8.712405232600144 26.651821019723148 9.999999999999998
    vertex 8.712405232600144 39.58495053883883 11.999999999999998
    vertex 8.712405232600144 39.58495053883883 9.999999999999998
  endloop
endfacet
facet normal 0.0 0.0 -1.0
  outer loop
    vertex 8.71240523260014 25.65182101972315 9.999999999999998
    vertex 10.712405232600139 14.651821019723151 9.999999999999998
    vertex 8.712405232600139 14.651821019723151 9.999999999999998
  endloop
endfacet
facet normal 0.0 0.0 -1.0
  outer loop
    vertex 10.712405232600139 14.651821019723151 9.999999999999998
    vertex 8.71240523260014 25.65182101972315 9.999999999999998
    vertex 10.712405232600139 25.65182101972315 9.999999999999998
  endloop
endfacet
facet normal -1.0 1.2818029466126807e-16 0.0
  outer loop
    vertex 8.71240523260014 25.65182101972315 11.999999999999998
    vertex 8.712405232600139 14.651821019723151 9.999999999999998
    vertex 8.712405232600139 14.651821019723151 11.999999999999998
  endloop
endfacet
facet normal -1.0 1.2818029466126807e-16 0.0
  outer loop
    vertex 8.712405232600139 14.651821019723151 9.999999999999998
    vertex 8.71240523260014 25.65182101972315 11.999999999999998
    vertex 8.71240523260014 25.65182101972315 9.999999999999998
  endloop
endfacet
facet normal 0.0 0.0 -1.0
  outer loop
    vertex 10.712405232600142 13.651821019723151 9.999999999999998
    vertex 8.712405232600144 -0.4592900913879606 9.999999999999998
    vertex 8.712405232600144 13.651821019723151 9.999999999999998
  endloop
endfacet
facet normal 0.0 0.0 -1.0
  outer loop
    vertex 8.712405232600144 -0.4592900913879606 9.999999999999998
    vertex 10.712405232600142 13.651821019723151 9.999999999999998
    vertex 10.712405232600142 -1.2370678691657389 9.999999999999998
  endloop
endfacet
facet normal -1.0 0.0 0.0
  outer loop
    vertex 8.712405232600144 13.651821019723151 11.999999999999998
    vertex 8.712405232600144 -0.4592900913879606 9.999999999999998
    vertex 8.712405232600144 -0.4592900913879606 11.999999999999998
  endloop
endfacet
facet normal -1.0 0.0 0.0
  outer loop
    vertex 8.712405232600144 -0.4592900913879606 9.999999999999998
    vertex 8.712405232600144 13.651821019723151 11.999999999999998
    vertex 8.712405232600144 13.651821019723151 9.999999999999998
  endloop
endfacet
endsolid cruise-inner
