solid cruise-inner
facet normal -0.733298308116592 0.6799070460830242 0.0
  outer loop
    vertex 0.2488101045619345 35.531454154131374 12.999999999999998
    vertex -0.4200145546020989 34.81010850281457 0.0
    vertex -0.4200145546020989 34.81010850281457 12.999999999999998
  endloop
endfacet
facet normal -0.733298308116592 0.6799070460830242 0.0
  outer loop
    vertex -0.4200145546020989 34.81010850281457 0.0
    vertex 0.2488101045619345 35.531454154131374 12.999999999999998
    vertex 0.2488101045619345 35.531454154131374 0.0
  endloop
endfacet
facet normal 1.0 -0.0 -0.0
  outer loop
    vertex 0.7124052326001409 14.151821019723222 0.0
    vertex 0.7124052326001409 13.651821019723151 9.999999999999998
    vertex 0.7124052326001409 13.651821019723151 0.0
  endloop
endfacet
facet normal 1.0 -0.0 -0.0
  outer loop
    vertex 0.7124052326001409 13.651821019723151 9.999999999999998
    vertex 0.7124052326001409 14.151821019723222 0.0
    vertex 0.7124052326001409 14.151821019723222 9.999999999999998
  endloop
endfacet
facet normal 3.3615806262039627e-16 4.70708385173194e-18 1.0
  outer loop
    vertex -6.474948986358175 16.903158472217573 12.999999999999998
    vertex -6.701808329772934 18.73760745735011 13.000000000000002
    vertex -7.019645574968717 19.1518210197232 13.000000000000002
  endloop
endfacet
facet normal 3.3615806262039627e-16 4.70708385173194e-18 1.0
  outer loop
    vertex -6.701808329772934 18.73760745735011 13.000000000000002
    vertex -6.474948986358175 16.903158472217573 12.999999999999998
    vertex -6.28759476739984 18.419770212154326 13.000000000000002
  endloop
endfacet
facet normal 3.3615806262039627e-16 4.70708385173194e-18 1.0
  outer loop
    vertex -6.28759476739984 18.419770212154326 13.000000000000002
    vertex -6.474948986358175 16.903158472217573 12.999999999999998
    vertex -5.3688587404232235 13.742341191693805 12.999999999999998
  endloop
endfacet
facet normal 3.3615806262039627e-16 4.70708385173194e-18 1.0
  outer loop
    vertex -6.28759476739984 18.419770212154326 13.000000000000002
    vertex -5.3688587404232235 13.742341191693805 12.999999999999998
    vertex -5.805232857604882 18.219969367145065 13.000000000000002
  endloop
endfacet
facet normal 3.3615806262039627e-16 4.70708385173194e-18 1.0
  outer loop
    vertex -5.805232857604882 18.219969367145065 13.000000000000002
    vertex -5.3688587404232235 13.742341191693805 12.999999999999998
    vertex -5.28759476739984 18.1518210197232 13.000000000000002
  endloop
endfacet
facet normal 3.3615806262039627e-16 4.70708385173194e-18 1.0
  outer loop
    vertex -5.28759476739984 18.1518210197232 13.000000000000002
    vertex -5.3688587404232235 13.742341191693805 12.999999999999998
    vertex -3.978578412566562 10.695814953010585 12.999999999999998
  endloop
endfacet
facet normal 3.3615806262039627e-16 4.70708385173194e-18 1.0
  outer loop
    vertex -5.28759476739984 18.1518210197232 13.000000000000002
    vertex -3.978578412566562 10.695814953010585 12.999999999999998
    vertex -4.7699566771947985 18.219969367145065 13.000000000000002
  endloop
endfacet
facet normal 3.3615806262039627e-16 4.70708385173194e-18 1.0
  outer loop
    vertex -4.7699566771947985 18.219969367145065 13.000000000000002
    vertex -3.978578412566562 10.695814953010585 12.999999999999998
    vertex -4.28759476739984 18.419770212154326 13.000000000000002
  endloop
endfacet
facet normal 3.3615806262039627e-16 4.70708385173194e-18 1.0
  outer loop
    vertex -4.28759476739984 18.419770212154326 13.000000000000002
    vertex -3.978578412566562 10.695814953010585 12.999999999999998
    vertex -3.873381205026745 18.737607457350105 13.000000000000002
  endloop
endfacet
facet normal 3.3615806262039627e-16 4.70708385173194e-18 1.0
  outer loop
    vertex -3.873381205026745 18.737607457350105 13.000000000000002
    vertex -3.978578412566562 10.695814953010585 12.999999999999998
    vertex -2.3157401337462113 7.789069286203768 12.999999999999998
  endloop
endfacet
facet normal 3.3615806262039627e-16 4.70708385173194e-18 1.0
  outer loop
    vertex -3.873381205026745 18.737607457350105 13.000000000000002
    vertex -2.3157401337462113 7.789069286203768 12.999999999999998
    vertex -3.555543959830963 19.1518210197232 13.000000000000002
  endloop
endfacet
facet normal 3.3615806262039627e-16 4.70708385173194e-18 1.0
  outer loop
    vertex -3.555543959830963 19.1518210197232 13.000000000000002
    vertex -2.3157401337462113 7.789069286203768 12.999999999999998
    vertex -3.355743114821704 19.634182929518158 13.000000000000002
  endloop
endfacet
facet normal 3.3615806262039627e-16 4.70708385173194e-18 1.0
  outer loop
    vertex -3.355743114821704 19.634182929518158 13.000000000000002
    vertex -2.3157401337462113 7.789069286203768 12.999999999999998
    vertex -3.2875947673998405 20.1518210197232 13.000000000000002
  endloop
endfacet
facet normal 3.3615806262039627e-16 4.70708385173194e-18 1.0
  outer loop
    vertex -3.2875947673998405 20.1518210197232 13.000000000000002
    vertex -2.3157401337462113 7.789069286203768 12.999999999999998
    vertex -2.5532175381267264 32.026251626399386 12.999999999999998
  endloop
endfacet
facet normal 3.3615806262039627e-16 4.70708385173194e-18 1.0
  outer loop
    vertex -2.5532175381267264 32.026251626399386 12.999999999999998
    vertex -2.3157401337462113 7.789069286203768 12.999999999999998
    vertex -0.61718216918016 34.59745784855469 12.999999999999998
  endloop
endfacet
facet normal 3.3615806262039627e-16 4.70708385173194e-18 1.0
  outer loop
    vertex -0.61718216918016 34.59745784855469 12.999999999999998
    vertex -2.3157401337462113 7.789069286203768 12.999999999999998
    vertex -0.3942564597492684 5.046424211905337 12.999999999999998
  endloop
endfacet
facet normal 3.3615806262039627e-16 4.70708385173194e-18 1.0
  outer loop
    vertex -0.61718216918016 34.59745784855469 12.999999999999998
    vertex -0.3942564597492684 5.046424211905337 12.999999999999998
    vertex -0.4200145546020989 34.81010850281457 12.999999999999998
  endloop
endfacet
facet normal 3.3615806262039627e-16 4.70708385173194e-18 1.0
  outer loop
    vertex -0.4200145546020989 34.81010850281457 12.999999999999998
    vertex -0.3942564597492684 5.046424211905337 12.999999999999998
    vertex 0.2488101045619345 35.531454154131374 12.999999999999998
  endloop
endfacet
facet normal 3.3615806262039627e-16 4.70708385173194e-18 1.0
  outer loop
    vertex 0.2488101045619345 35.531454154131374 12.999999999999998
    vertex -0.3942564597492684 5.046424211905337 12.999999999999998
    vertex 0.7124052326001409 3.739532715372636 12.999999999999998
  endloop
endfacet
facet normal 3.3615806262039627e-16 4.70708385173194e-18 1.0
  outer loop
    vertex 0.2488101045619345 35.531454154131374 12.999999999999998
    vertex 0.7124052326001409 3.739532715372636 12.999999999999998
    vertex 0.7124052326001409 35.531454154131374 12.999999999999998
  endloop
endfacet
facet normal 3.3615806262039627e-16 4.70708385173194e-18 1.0
  outer loop
    vertex 0.7124052326001409 35.531454154131374 12.999999999999998
    vertex 0.7124052326001409 3.739532715372636 12.999999999999998
    vertex 0.7124052326001409 13.651821019723151 12.999999999999998
  endloop
endfacet
facet normal 3.3615806262039627e-16 4.70708385173194e-18 1.0
  outer loop
    vertex 0.7124052326001409 35.531454154131374 12.999999999999998
    vertex 0.7124052326001409 13.651821019723151 12.999999999999998
    vertex 0.7124052326001409 13.901821019723187 12.999999999999998
  endloop
endfacet
facet normal 3.3615806262039627e-16 4.70708385173194e-18 1.0
  outer loop
    vertex 0.7124052326001409 35.531454154131374 12.999999999999998
    vertex 0.7124052326001409 13.901821019723187 12.999999999999998
    vertex 0.7124052326001409 14.151821019723222 12.999999999999998
  endloop
endfacet
facet normal 3.3615806262039627e-16 4.70708385173194e-18 1.0
  outer loop
    vertex 0.7124052326001409 35.531454154131374 12.999999999999998
    vertex 0.7124052326001409 14.151821019723222 12.999999999999998
    vertex 0.7124052326001409 14.401821019723188 12.999999999999998
  endloop
endfacet
facet normal 3.3615806262039627e-16 4.70708385173194e-18 1.0
  outer loop
    vertex 0.7124052326001409 35.531454154131374 12.999999999999998
    vertex 0.7124052326001409 14.401821019723188 12.999999999999998
    vertex 0.7124052326001409 14.651821019723151 12.999999999999998
  endloop
endfacet
facet normal 3.3615806262039627e-16 4.70708385173194e-18 1.0
  outer loop
    vertex 0.7124052326001409 35.531454154131374 12.999999999999998
    vertex 0.7124052326001409 14.651821019723151 12.999999999999998
    vertex 0.7124052326001409 25.65182101972315 12.999999999999998
  endloop
endfacet
facet normal 3.3615806262039627e-16 4.70708385173194e-18 1.0
  outer loop
    vertex 0.7124052326001409 35.531454154131374 12.999999999999998
    vertex 0.7124052326001409 25.65182101972315 12.999999999999998
    vertex 0.7124052326001409 25.90182101972315 12.999999999999998
  endloop
endfacet
facet normal 3.3615806262039627e-16 4.70708385173194e-18 1.0
  outer loop
    vertex 0.7124052326001409 35.531454154131374 12.999999999999998
    vertex 0.7124052326001409 25.90182101972315 12.999999999999998
    vertex 0.7124052326001409 26.15182101972315 12.999999999999998
  endloop
endfacet
facet normal 3.3615806262039627e-16 4.70708385173194e-18 1.0
  outer loop
    vertex 0.7124052326001409 35.531454154131374 12.999999999999998
    vertex 0.7124052326001409 26.15182101972315 12.999999999999998
    vertex 0.7124052326001409 26.40182101972315 12.999999999999998
  endloop
endfacet
facet normal 3.3615806262039627e-16 4.70708385173194e-18 1.0
  outer loop
    vertex 0.7124052326001409 35.531454154131374 12.999999999999998
    vertex 0.7124052326001409 26.40182101972315 12.999999999999998
    vertex 0.7124052326001409 26.651821019723148 12.999999999999998
  endloop
endfacet
facet normal 3.3615806262039627e-16 4.70708385173194e-18 1.0
  outer loop
    vertex -7.019645574968715 21.1518210197232 13.000000000000002
    vertex -6.585885868434371 23.29298943414716 12.999999999999998
    vertex -7.116366804700768 20.918315315134677 13.000000000000002
  endloop
endfacet
facet normal 3.3615806262039627e-16 4.70708385173194e-18 1.0
  outer loop
    vertex -6.585885868434371 23.29298943414716 12.999999999999998
    vertex -7.019645574968715 21.1518210197232 13.000000000000002
    vertex -6.701808329772932 21.566034582096297 13.000000000000002
  endloop
endfacet
facet normal 3.3615806262039627e-16 4.70708385173194e-18 1.0
  outer loop
    vertex -6.585885868434371 23.29298943414716 12.999999999999998
    vertex -6.701808329772932 21.566034582096297 13.000000000000002
    vertex -6.287594767399838 21.88387182729208 13.000000000000002
  endloop
endfacet
facet normal 3.3615806262039627e-16 4.70708385173194e-18 1.0
  outer loop
    vertex -6.585885868434371 23.29298943414716 12.999999999999998
    vertex -6.287594767399838 21.88387182729208 13.000000000000002
    vertex -5.554543529193196 26.34186912445156 12.999999999999998
  endloop
endfacet
facet normal 3.3615806262039627e-16 4.70708385173194e-18 1.0
  outer loop
    vertex -5.554543529193196 26.34186912445156 12.999999999999998
    vertex -6.287594767399838 21.88387182729208 13.000000000000002
    vertex -5.805232857604881 22.083672672301336 13.000000000000002
  endloop
endfacet
facet normal 3.3615806262039627e-16 4.70708385173194e-18 1.0
  outer loop
    vertex -5.554543529193196 26.34186912445156 12.999999999999998
    vertex -5.805232857604881 22.083672672301336 13.000000000000002
    vertex -5.28759476739984 22.1518210197232 13.000000000000002
  endloop
endfacet
facet normal 3.3615806262039627e-16 4.70708385173194e-18 1.0
  outer loop
    vertex -5.554543529193196 26.34186912445156 12.999999999999998
    vertex -5.28759476739984 22.1518210197232 13.000000000000002
    vertex -4.205233360670178 29.263973923356417 12.999999999999998
  endloop
endfacet
facet normal 3.3615806262039627e-16 4.70708385173194e-18 1.0
  outer loop
    vertex -4.205233360670178 29.263973923356417 12.999999999999998
    vertex -5.28759476739984 22.1518210197232 13.000000000000002
    vertex -4.769956677194798 22.083672672301336 13.000000000000002
  endloop
endfacet
facet normal 3.3615806262039627e-16 4.70708385173194e-18 1.0
  outer loop
    vertex -4.205233360670178 29.263973923356417 12.999999999999998
    vertex -4.769956677194798 22.083672672301336 13.000000000000002
    vertex -4.287594767399839 21.883871827292076 13.000000000000002
  endloop
endfacet
facet normal 3.3615806262039627e-16 4.70708385173194e-18 1.0
  outer loop
    vertex -4.205233360670178 29.263973923356417 12.999999999999998
    vertex -4.287594767399839 21.883871827292076 13.000000000000002
    vertex -3.873381205026745 21.566034582096293 13.000000000000002
  endloop
endfacet
facet normal 3.3615806262039627e-16 4.70708385173194e-18 1.0
  outer loop
    vertex -4.205233360670178 29.263973923356417 12.999999999999998
    vertex -3.873381205026745 21.566034582096293 13.000000000000002
    vertex -2.5532175381267264 32.026251626399386 12.999999999999998
  endloop
endfacet
facet normal 3.3615806262039627e-16 4.70708385173194e-18 1.0
  outer loop
    vertex -2.5532175381267264 32.026251626399386 12.999999999999998
    vertex -3.873381205026745 21.566034582096293 13.000000000000002
    vertex -3.555543959830963 21.151821019723197 13.000000000000002
  endloop
endfacet
facet normal 3.3615806262039627e-16 4.70708385173194e-18 1.0
  outer loop
    vertex -2.5532175381267264 32.026251626399386 12.999999999999998
    vertex -3.555543959830963 21.151821019723197 13.000000000000002
    vertex -3.355743114821704 20.66945910992824 13.000000000000002
  endloop
endfacet
facet normal 3.3615806262039627e-16 4.70708385173194e-18 1.0
  outer loop
    vertex -2.5532175381267264 32.026251626399386 12.999999999999998
    vertex -3.355743114821704 20.66945910992824 13.000000000000002
    vertex -3.2875947673998405 20.1518210197232 13.000000000000002
  endloop
endfacet
facet normal 1.0 -0.0 -0.0
  outer loop
    vertex 0.7124052326001409 26.15182101972315 0.0
    vertex 0.7124052326001409 25.65182101972315 9.999999999999998
    vertex 0.7124052326001409 25.65182101972315 0.0
  endloop
endfacet
facet normal 1.0 -0.0 -0.0
  outer loop
    vertex 0.7124052326001409 25.65182101972315 9.999999999999998
    vertex 0.7124052326001409 26.15182101972315 0.0
    vertex 0.7124052326001409 26.15182101972315 9.999999999999998
  endloop
endfacet
facet normal -0.9516235464751348 0.3072663759575506 0.0
  outer loop
    vertex -8.449727065984282 27.12206763262542 12.999999999999998
    vertex -9.558835457165726 23.687088268702997 0.0
    vertex -9.558835457165726 23.687088268702997 12.999999999999998
  endloop
endfacet
facet normal -0.9516235464751348 0.3072663759575506 0.0
  outer loop
    vertex -9.558835457165726 23.687088268702997 0.0
    vertex -8.449727065984282 27.12206763262542 12.999999999999998
    vertex -8.449727065984282 27.12206763262542 0.0
  endloop
endfacet
facet normal -0.912539259415795 0.40898911969008717 0.0
  outer loop
    vertex -6.973440364790339 30.415968394615692 12.999999999999998
    vertex -8.449727065984282 27.12206763262542 0.0
    vertex -8.449727065984282 27.12206763262542 12.999999999999998
  endloop
endfacet
facet normal -0.912539259415795 0.40898911969008717 0.0
  outer loop
    vertex -8.449727065984282 27.12206763262542 0.0
    vertex -6.973440364790339 30.415968394615692 12.999999999999998
    vertex -6.973440364790339 30.415968394615692 0.0
  endloop
endfacet
facet normal -0.736060239871213 0.6769160385754885 0.0
  outer loop
    vertex -2.611338271056381 36.841882500620216 12.999999999999998
    vertex -2.9936083254083137 36.42621235562854 0.0
    vertex -2.9936083254083137 36.42621235562854 12.999999999999998
  endloop
endfacet
facet normal -0.736060239871213 0.6769160385754885 0.0
  outer loop
    vertex -2.9936083254083137 36.42621235562854 0.0
    vertex -2.611338271056381 36.841882500620216 12.999999999999998
    vertex -2.611338271056381 36.841882500620216 -3.524958103184872e-16
  endloop
endfacet
facet normal -0.8626184791422858 0.5058550775096066 0.0
  outer loop
    vertex -5.1475064029657425 33.52967516003502 12.999999999999998
    vertex -6.973440364790339 30.415968394615692 0.0
    vertex -6.973440364790339 30.415968394615692 12.999999999999998
  endloop
endfacet
facet normal -0.8626184791422858 0.5058550775096066 0.0
  outer loop
    vertex -6.973440364790339 30.415968394615692 0.0
    vertex -5.1475064029657425 33.52967516003502 12.999999999999998
    vertex -5.1475064029657425 33.52967516003502 0.0
  endloop
endfacet
facet normal -0.8024540198169464 0.5967139566656906 0.0
  outer loop
    vertex -2.9936083254083137 36.42621235562854 12.999999999999998
    vertex -5.1475064029657425 33.52967516003502 0.0
    vertex -5.1475064029657425 33.52967516003502 12.999999999999998
  endloop
endfacet
facet normal -0.8024540198169464 0.5967139566656906 0.0
  outer loop
    vertex -5.1475064029657425 33.52967516003502 0.0
    vertex -2.9936083254083137 36.42621235562854 12.999999999999998
    vertex -2.9936083254083137 36.42621235562854 0.0
  endloop
endfacet
facet normal 1.0 -0.0 -0.0
  outer loop
    vertex 0.7124052326001409 26.15182101972315 12.0
    vertex 0.7124052326001409 25.90182101972315 12.999999999999998
    vertex 0.7124052326001409 25.90182101972315 12.0
  endloop
endfacet
facet normal 1.0 -0.0 -0.0
  outer loop
    vertex 0.7124052326001409 25.90182101972315 12.999999999999998
    vertex 0.7124052326001409 26.15182101972315 12.0
    vertex 0.7124052326001409 26.15182101972315 12.999999999999998
  endloop
endfacet
facet normal 1.0 -0.0 -0.0
  outer loop
    vertex 0.7124052326001409 14.151821019723222 12.0
    vertex 0.7124052326001409 13.901821019723187 12.999999999999998
    vertex 0.7124052326001409 13.901821019723187 12.0
  endloop
endfacet
facet normal 1.0 -0.0 -0.0
  outer loop
    vertex 0.7124052326001409 13.901821019723187 12.999999999999998
    vertex 0.7124052326001409 14.151821019723222 12.0
    vertex 0.7124052326001409 14.151821019723222 12.999999999999998
  endloop
endfacet
facet normal 1.0 -0.0 -0.0
  outer loop
    vertex 0.7124052326001409 26.651821019723148 0.0
    vertex 0.7124052326001409 26.15182101972315 9.999999999999998
    vertex 0.7124052326001409 26.15182101972315 0.0
  endloop
endfacet
facet normal 1.0 -0.0 -0.0
  outer loop
    vertex 0.7124052326001409 26.15182101972315 9.999999999999998
    vertex 0.7124052326001409 26.651821019723148 0.0
    vertex 0.7124052326001409 26.651821019723148 9.999999999999998
  endloop
endfacet
facet normal 1.0 -0.0 -0.0
  outer loop
    vertex 0.7124052326001409 26.651821019723148 9.999999999999998
    vertex 0.7124052326001409 26.651821019723148 0.0
    vertex 0.7124052326001409 26.651821019723148 4.999999999999999
  endloop
endfacet
facet normal 1.0 -0.0 -0.0
  outer loop
    vertex 0.7124052326001409 25.65182101972315 0.0
    vertex 0.7124052326001409 14.651821019723151 9.999999999999998
    vertex 0.7124052326001409 14.651821019723151 0.0
  endloop
endfacet
facet normal 1.0 -0.0 -0.0
  outer loop
    vertex 0.7124052326001409 14.651821019723151 9.999999999999998
    vertex 0.7124052326001409 25.65182101972315 0.0
    vertex 0.7124052326001409 14.651821019723151 10.499999999999998
  endloop
endfacet
facet normal 1.0 -0.0 -0.0
  outer loop
    vertex 0.7124052326001409 14.651821019723151 10.499999999999998
    vertex 0.7124052326001409 25.65182101972315 0.0
    vertex 0.7124052326001409 14.651821019723151 11.999999999999998
  endloop
endfacet
facet normal 1.0 -0.0 -0.0
  outer loop
    vertex 0.7124052326001409 14.651821019723151 11.999999999999998
    vertex 0.7124052326001409 25.65182101972315 0.0
    vertex 0.7124052326001409 25.65182101972315 11.999999999999998
  endloop
endfacet
facet normal 1.0 -0.0 -0.0
  outer loop
    vertex 0.7124052326001409 25.65182101972315 11.999999999999998
    vertex 0.7124052326001409 25.65182101972315 0.0
    vertex 0.7124052326001409 25.65182101972315 9.999999999999998
  endloop
endfacet
facet normal 1.0 -0.0 -0.0
  outer loop
    vertex 0.7124052326001409 25.65182101972315 11.999999999999998
    vertex 0.7124052326001409 25.65182101972315 9.999999999999998
    vertex 0.7124052326001409 25.65182101972315 10.499999999999998
  endloop
endfacet
facet normal 1.0 -0.0 -0.0
  outer loop
    vertex 0.7124052326001409 14.651821019723151 0.0
    vertex 0.7124052326001409 14.151821019723222 9.999999999999998
    vertex 0.7124052326001409 14.151821019723222 0.0
  endloop
endfacet
facet normal 1.0 -0.0 -0.0
  outer loop
    vertex 0.7124052326001409 14.151821019723222 9.999999999999998
    vertex 0.7124052326001409 14.651821019723151 0.0
    vertex 0.7124052326001409 14.651821019723151 9.999999999999998
  endloop
endfacet
facet normal 1.0 -0.0 -0.0
  outer loop
    vertex 0.7124052326001409 26.651821019723148 9.999999999999998
    vertex 0.7124052326001409 26.15182101972315 10.5
    vertex 0.7124052326001409 26.15182101972315 9.999999999999998
  endloop
endfacet
facet normal 1.0 -0.0 -0.0
  outer loop
    vertex 0.7124052326001409 26.15182101972315 10.5
    vertex 0.7124052326001409 26.651821019723148 9.999999999999998
    vertex 0.7124052326001409 26.651821019723148 10.499999999999998
  endloop
endfacet
facet normal 1.0 -0.0 -0.0
  outer loop
    vertex 0.7124052326001409 14.151821019723222 9.999999999999998
    vertex 0.7124052326001409 13.651821019723151 10.499999999999998
    vertex 0.7124052326001409 13.651821019723151 9.999999999999998
  endloop
endfacet
facet normal 1.0 -0.0 -0.0
  outer loop
    vertex 0.7124052326001409 13.651821019723151 10.499999999999998
    vertex 0.7124052326001409 14.151821019723222 9.999999999999998
    vertex 0.7124052326001409 14.151821019723222 10.499999999999998
  endloop
endfacet
facet normal 1.0 -0.0 -0.0
  outer loop
    vertex 0.7124052326001409 14.651821019723151 9.999999999999998
    vertex 0.7124052326001409 14.151821019723222 10.499999999999998
    vertex 0.7124052326001409 14.151821019723222 9.999999999999998
  endloop
endfacet
facet normal 1.0 -0.0 -0.0
  outer loop
    vertex 0.7124052326001409 14.151821019723222 10.499999999999998
    vertex 0.7124052326001409 14.651821019723151 9.999999999999998
    vertex 0.7124052326001409 14.651821019723151 10.499999999999998
  endloop
endfacet
facet normal 1.0 -0.0 -0.0
  outer loop
    vertex 0.7124052326001409 26.15182101972315 9.999999999999998
    vertex 0.7124052326001409 25.65182101972315 10.499999999999998
    vertex 0.7124052326001409 25.65182101972315 9.999999999999998
  endloop
endfacet
facet normal 1.0 -0.0 -0.0
  outer loop
    vertex 0.7124052326001409 25.65182101972315 10.499999999999998
    vertex 0.7124052326001409 26.15182101972315 9.999999999999998
    vertex 0.7124052326001409 26.15182101972315 10.5
  endloop
endfacet
facet normal 6.545319049131293e-17 2.350148295483362e-18 1.0
  outer loop
    vertex -6.747423230511137 9.549078732480892 12.999999999999998
    vertex -7.2875947673998445 20.1518210197232 12.999999999999998
    vertex -8.263774902655042 12.965053275584767 12.999999999999998
  endloop
endfacet
facet normal 6.545319049131293e-17 2.350148295483362e-18 1.0
  outer loop
    vertex -7.2875947673998445 20.1518210197232 12.999999999999998
    vertex -6.747423230511137 9.549078732480892 12.999999999999998
    vertex -7.2194464199779755 19.63418292951816 13.000000000000002
  endloop
endfacet
facet normal 6.545319049131293e-17 2.350148295483362e-18 1.0
  outer loop
    vertex -7.2194464199779755 19.63418292951816 13.000000000000002
    vertex -6.747423230511137 9.549078732480892 12.999999999999998
    vertex -7.064588401521292 19.260322601117814 13.000000000000002
  endloop
endfacet
facet normal 6.545319049131293e-17 2.350148295483362e-18 1.0
  outer loop
    vertex -7.064588401521292 19.260322601117814 13.000000000000002
    vertex -6.747423230511137 9.549078732480892 12.999999999999998
    vertex -7.019645574968717 19.1518210197232 13.000000000000002
  endloop
endfacet
facet normal 6.545319049131293e-17 2.350148295483362e-18 1.0
  outer loop
    vertex -7.019645574968717 19.1518210197232 13.000000000000002
    vertex -6.747423230511137 9.549078732480892 12.999999999999998
    vertex -6.474948986358175 16.903158472217573 12.999999999999998
  endloop
endfacet
facet normal 6.545319049131293e-17 2.350148295483362e-18 1.0
  outer loop
    vertex -6.474948986358175 16.903158472217573 12.999999999999998
    vertex -6.747423230511137 9.549078732480892 12.999999999999998
    vertex -4.912197717181393 6.293291302692112 12.999999999999998
  endloop
endfacet
facet normal 6.545319049131293e-17 2.350148295483362e-18 1.0
  outer loop
    vertex -6.474948986358175 16.903158472217573 12.999999999999998
    vertex -4.912197717181393 6.293291302692112 12.999999999999998
    vertex -5.3688587404232235 13.742341191693805 12.999999999999998
  endloop
endfacet
facet normal 6.545319049131293e-17 2.350148295483362e-18 1.0
  outer loop
    vertex -5.3688587404232235 13.742341191693805 12.999999999999998
    vertex -4.912197717181393 6.293291302692112 12.999999999999998
    vertex -3.978578412566562 10.695814953010585 12.999999999999998
  endloop
endfacet
facet normal 6.545319049131293e-17 2.350148295483362e-18 1.0
  outer loop
    vertex -3.978578412566562 10.695814953010585 12.999999999999998
    vertex -4.912197717181393 6.293291302692112 12.999999999999998
    vertex -2.774829104322869 3.22737220957916 12.999999999999998
  endloop
endfacet
facet normal 6.545319049131293e-17 2.350148295483362e-18 1.0
  outer loop
    vertex -3.978578412566562 10.695814953010585 12.999999999999998
    vertex -2.774829104322869 3.22737220957916 12.999999999999998
    vertex -2.3157401337462113 7.789069286203768 12.999999999999998
  endloop
endfacet
facet normal 6.545319049131293e-17 2.350148295483362e-18 1.0
  outer loop
    vertex -2.3157401337462113 7.789069286203768 12.999999999999998
    vertex -2.774829104322869 3.22737220957916 12.999999999999998
    vertex -0.35480260605686487 0.379271751302155 12.999999999999998
  endloop
endfacet
facet normal 6.545319049131293e-17 2.350148295483362e-18 1.0
  outer loop
    vertex -2.3157401337462113 7.789069286203768 12.999999999999998
    vertex -0.35480260605686487 0.379271751302155 12.999999999999998
    vertex -0.3942564597492684 5.046424211905337 12.999999999999998
  endloop
endfacet
facet normal 6.545319049131293e-17 2.350148295483362e-18 1.0
  outer loop
    vertex -0.3942564597492684 5.046424211905337 12.999999999999998
    vertex -0.35480260605686487 0.379271751302155 12.999999999999998
    vertex 0.7124052326001409 3.739532715372636 12.999999999999998
  endloop
endfacet
facet normal 6.545319049131293e-17 2.350148295483362e-18 1.0
  outer loop
    vertex 0.7124052326001409 3.739532715372636 12.999999999999998
    vertex -0.35480260605686487 0.379271751302155 12.999999999999998
    vertex 0.0 0.0 12.999999999999998
  endloop
endfacet
facet normal 6.545319049131293e-17 2.350148295483362e-18 1.0
  outer loop
    vertex 0.7124052326001409 3.739532715372636 12.999999999999998
    vertex 0.0 0.0 12.999999999999998
    vertex 0.7124052326001405 0.7672056351078417 12.999999999999998
  endloop
endfacet
facet normal 6.545319049131293e-17 2.350148295483362e-18 1.0
  outer loop
    vertex 0.7124052326001409 3.739532715372636 12.999999999999998
    vertex 0.7124052326001405 0.7672056351078417 12.999999999999998
    vertex 0.7124052326001409 2.6518210197231524 12.999999999999998
  endloop
endfacet
facet normal 6.545319049131293e-17 2.350148295483362e-18 1.0
  outer loop
    vertex -9.447428989389923 16.510073370831527 12.999999999999998
    vertex -9.558835457165726 23.687088268702997 12.999999999999998
    vertex -10.287594767399838 20.1518210197232 12.999999999999998
  endloop
endfacet
facet normal 6.545319049131293e-17 2.350148295483362e-18 1.0
  outer loop
    vertex -9.558835457165726 23.687088268702997 12.999999999999998
    vertex -9.447428989389923 16.510073370831527 12.999999999999998
    vertex -8.449727065984282 27.12206763262542 12.999999999999998
  endloop
endfacet
facet normal 6.545319049131293e-17 2.350148295483362e-18 1.0
  outer loop
    vertex -8.449727065984282 27.12206763262542 12.999999999999998
    vertex -9.447428989389923 16.510073370831527 12.999999999999998
    vertex -8.263774902655042 12.965053275584767 12.999999999999998
  endloop
endfacet
facet normal 6.545319049131293e-17 2.350148295483362e-18 1.0
  outer loop
    vertex -8.449727065984282 27.12206763262542 12.999999999999998
    vertex -8.263774902655042 12.965053275584767 12.999999999999998
    vertex -6.973440364790339 30.415968394615692 12.999999999999998
  endloop
endfacet
facet normal 6.545319049131293e-17 2.350148295483362e-18 1.0
  outer loop
    vertex -6.973440364790339 30.415968394615692 12.999999999999998
    vertex -8.263774902655042 12.965053275584767 12.999999999999998
    vertex -7.2875947673998445 20.1518210197232 12.999999999999998
  endloop
endfacet
facet normal 6.545319049131293e-17 2.350148295483362e-18 1.0
  outer loop
    vertex -6.973440364790339 30.415968394615692 12.999999999999998
    vertex -7.2875947673998445 20.1518210197232 12.999999999999998
    vertex -7.2194464199779755 20.669459109928244 13.000000000000002
  endloop
endfacet
facet normal 6.545319049131293e-17 2.350148295483362e-18 1.0
  outer loop
    vertex -6.973440364790339 30.415968394615692 12.999999999999998
    vertex -7.2194464199779755 20.669459109928244 13.000000000000002
    vertex -7.116366804700768 20.918315315134677 13.000000000000002
  endloop
endfacet
facet normal 6.545319049131293e-17 2.350148295483362e-18 1.0
  outer loop
    vertex -6.973440364790339 30.415968394615692 12.999999999999998
    vertex -7.116366804700768 20.918315315134677 13.000000000000002
    vertex -6.585885868434371 23.29298943414716 12.999999999999998
  endloop
endfacet
facet normal 6.545319049131293e-17 2.350148295483362e-18 1.0
  outer loop
    vertex -6.973440364790339 30.415968394615692 12.999999999999998
    vertex -6.585885868434371 23.29298943414716 12.999999999999998
    vertex -5.1475064029657425 33.52967516003502 12.999999999999998
  endloop
endfacet
facet normal 6.545319049131293e-17 2.350148295483362e-18 1.0
  outer loop
    vertex -5.1475064029657425 33.52967516003502 12.999999999999998
    vertex -6.585885868434371 23.29298943414716 12.999999999999998
    vertex -5.554543529193196 26.34186912445156 12.999999999999998
  endloop
endfacet
facet normal 6.545319049131293e-17 2.350148295483362e-18 1.0
  outer loop
    vertex -5.1475064029657425 33.52967516003502 12.999999999999998
    vertex -5.554543529193196 26.34186912445156 12.999999999999998
    vertex -4.205233360670178 29.263973923356417 12.999999999999998
  endloop
endfacet
facet normal 6.545319049131293e-17 2.350148295483362e-18 1.0
  outer loop
    vertex -5.1475064029657425 33.52967516003502 12.999999999999998
    vertex -4.205233360670178 29.263973923356417 12.999999999999998
    vertex -2.9936083254083137 36.42621235562854 12.999999999999998
  endloop
endfacet
facet normal 6.545319049131293e-17 2.350148295483362e-18 1.0
  outer loop
    vertex -2.9936083254083137 36.42621235562854 12.999999999999998
    vertex -4.205233360670178 29.263973923356417 12.999999999999998
    vertex -2.5532175381267264 32.026251626399386 12.999999999999998
  endloop
endfacet
facet normal 6.545319049131293e-17 2.350148295483362e-18 1.0
  outer loop
    vertex -2.9936083254083137 36.42621235562854 12.999999999999998
    vertex -2.5532175381267264 32.026251626399386 12.999999999999998
    vertex -2.611338271056381 36.841882500620216 12.999999999999998
  endloop
endfacet
facet normal 6.545319049131293e-17 2.350148295483362e-18 1.0
  outer loop
    vertex -2.611338271056381 36.841882500620216 12.999999999999998
    vertex -2.5532175381267264 32.026251626399386 12.999999999999998
    vertex -0.61718216918016 34.59745784855469 12.999999999999998
  endloop
endfacet
facet normal 6.545319049131293e-17 2.350148295483362e-18 1.0
  outer loop
    vertex -2.611338271056381 36.841882500620216 12.999999999999998
    vertex -0.61718216918016 34.59745784855469 12.999999999999998
    vertex -0.4200145546020989 34.81010850281457 12.999999999999998
  endloop
endfacet
facet normal 1.0 -0.0 -0.0
  outer loop
    vertex 0.7124052326001409 14.151821019723222 10.499999999999998
    vertex 0.7124052326001409 13.651821019723151 12.0
    vertex 0.7124052326001409 13.651821019723151 10.499999999999998
  endloop
endfacet
facet normal 1.0 -0.0 -0.0
  outer loop
    vertex 0.7124052326001409 13.651821019723151 12.0
    vertex 0.7124052326001409 14.151821019723222 10.499999999999998
    vertex 0.7124052326001409 13.901821019723187 12.0
  endloop
endfacet
facet normal 1.0 -0.0 -0.0
  outer loop
    vertex 0.7124052326001409 13.901821019723187 12.0
    vertex 0.7124052326001409 14.151821019723222 10.499999999999998
    vertex 0.7124052326001409 14.151821019723222 12.0
  endloop
endfacet
facet normal 1.0 -0.0 -0.0
  outer loop
    vertex 0.7124052326001409 2.1518210197231524 0.0
    vertex 0.7124052326001409 2.6518210197231515 9.999999999999998
    vertex 0.7124052326001409 2.151821019723152 9.999999999999998
  endloop
endfacet
facet normal 1.0 -0.0 -0.0
  outer loop
    vertex 0.7124052326001409 2.6518210197231515 9.999999999999998
    vertex 0.7124052326001409 2.1518210197231524 0.0
    vertex 0.7124052326001409 2.6518210197231524 0.0
  endloop
endfacet
facet normal 1.0 -2.0542490217648718e-16 3.3723770348478672e-18
  outer loop
    vertex 0.7124052326001409 2.1518210197231524 0.0
    vertex 0.7124052326001405 0.7672056351078417 12.999999999999998
    vertex 0.7124052326001405 0.7672056351078417 0.0
  endloop
endfacet
facet normal 1.0 -2.0542490217648718e-16 3.3723770348478672e-18
  outer loop
    vertex 0.7124052326001405 0.7672056351078417 12.999999999999998
    vertex 0.7124052326001409 2.1518210197231524 0.0
    vertex 0.7124052326001409 2.151821019723152 9.999999999999998
  endloop
endfacet
facet normal 1.0 -2.0542490217648718e-16 3.3723770348478672e-18
  outer loop
    vertex 0.7124052326001409 2.6518210197231524 10.499999999999998
    vertex 0.7124052326001409 2.6518210197231515 11.999999999999998
    vertex 0.7124052326001409 2.1518210197231524 10.499999999999998
  endloop
endfacet
facet normal 1.0 -2.0542490217648718e-16 3.3723770348478672e-18
  outer loop
    vertex 0.7124052326001405 0.7672056351078417 12.999999999999998
    vertex 0.7124052326001409 2.1518210197231524 10.499999999999998
    vertex 0.7124052326001409 2.6518210197231524 12.999999999999998
  endloop
endfacet
facet normal 1.0 -2.0542490217648718e-16 3.3723770348478672e-18
  outer loop
    vertex 0.7124052326001409 2.1518210197231524 10.499999999999998
    vertex 0.7124052326001405 0.7672056351078417 12.999999999999998
    vertex 0.7124052326001409 2.151821019723152 9.999999999999998
  endloop
endfacet
facet normal 1.0 -2.0542490217648718e-16 3.3723770348478672e-18
  outer loop
    vertex 0.7124052326001409 2.6518210197231524 12.999999999999998
    vertex 0.7124052326001409 2.1518210197231524 10.499999999999998
    vertex 0.7124052326001409 2.6518210197231515 11.999999999999998
  endloop
endfacet
facet normal 1.0 -0.0 -0.0
  outer loop
    vertex 0.7124052326001409 26.15182101972315 10.5
    vertex 0.7124052326001409 25.65182101972315 11.999999999999998
    vertex 0.7124052326001409 25.65182101972315 10.499999999999998
  endloop
endfacet
facet normal 1.0 -0.0 -0.0
  outer loop
    vertex 0.7124052326001409 25.65182101972315 11.999999999999998
    vertex 0.7124052326001409 26.15182101972315 10.5
    vertex 0.7124052326001409 25.90182101972315 12.0
  endloop
endfacet
facet normal 1.0 -0.0 -0.0
  outer loop
    vertex 0.7124052326001409 25.90182101972315 12.0
    vertex 0.7124052326001409 26.15182101972315 10.5
    vertex 0.7124052326001409 26.15182101972315 12.0
  endloop
endfacet
facet normal -7.792675866219763e-32 -1.0 9.399888275159663e-16
  outer loop
    vertex 17.712405232600144 14.651821019723155 12.0
    vertex 8.712405232600139 14.651821019723151 9.5
    vertex 17.712405232600144 14.65182101972315 9.499999999999998
  endloop
endfacet
facet normal -7.792675866219763e-32 -1.0 9.399888275159663e-16
  outer loop
    vertex 8.712405232600139 14.651821019723151 9.5
    vertex 17.712405232600144 14.651821019723155 12.0
    vertex 8.712405232600139 14.651821019723151 11.999999999999998
  endloop
endfacet
facet normal 1.0 -0.0 -0.0
  outer loop
    vertex 0.7124052326001409 35.531454154131374 0.0
    vertex 0.7124052326001409 26.651821019723148 4.999999999999999
    vertex 0.7124052326001409 26.651821019723148 0.0
  endloop
endfacet
facet normal 1.0 -0.0 -0.0
  outer loop
    vertex 0.7124052326001409 26.651821019723148 4.999999999999999
    vertex 0.7124052326001409 35.531454154131374 0.0
    vertex 0.7124052326001409 26.651821019723148 9.999999999999998
  endloop
endfacet
facet normal 1.0 -0.0 -0.0
  outer loop
    vertex 0.7124052326001409 26.651821019723148 9.999999999999998
    vertex 0.7124052326001409 35.531454154131374 0.0
    vertex 0.7124052326001409 26.651821019723148 10.499999999999998
  endloop
endfacet
facet normal 1.0 -0.0 -0.0
  outer loop
    vertex 0.7124052326001409 26.651821019723148 10.499999999999998
    vertex 0.7124052326001409 35.531454154131374 0.0
    vertex 0.7124052326001409 26.651821019723148 12.0
  endloop
endfacet
facet normal 1.0 -0.0 -0.0
  outer loop
    vertex 0.7124052326001409 26.651821019723148 12.0
    vertex 0.7124052326001409 35.531454154131374 0.0
    vertex 0.7124052326001409 35.531454154131374 11.999999999999996
  endloop
endfacet
facet normal 1.0 -0.0 -0.0
  outer loop
    vertex 0.7124052326001409 2.6518210197231515 9.999999999999998
    vertex 0.7124052326001409 2.1518210197231524 10.499999999999998
    vertex 0.7124052326001409 2.151821019723152 9.999999999999998
  endloop
endfacet
facet normal 1.0 -0.0 -0.0
  outer loop
    vertex 0.7124052326001409 2.1518210197231524 10.499999999999998
    vertex 0.7124052326001409 2.6518210197231515 9.999999999999998
    vertex 0.7124052326001409 2.6518210197231524 10.499999999999998
  endloop
endfacet
facet normal -0.0 1.0 -0.0
  outer loop
    vertex 8.712405232600144 13.651821019723151 8.999999999999998
    vertex 17.712405232600144 13.651821019723151 12.0
    vertex 17.712405232600144 13.651821019723151 8.999999999999998
  endloop
endfacet
facet normal -0.0 1.0 -0.0
  outer loop
    vertex 17.712405232600144 13.651821019723151 12.0
    vertex 8.712405232600144 13.651821019723151 8.999999999999998
    vertex 8.712405232600144 13.651821019723151 11.999999999999998
  endloop
endfacet
facet normal 1.0 -0.0 -0.0
  outer loop
    vertex 0.7124052326001409 2.6518210197231524 0.0
    vertex 0.7124052326001409 2.6518210197231524 10.499999999999998
    vertex 0.7124052326001409 2.6518210197231515 9.999999999999998
  endloop
endfacet
facet normal 1.0 -0.0 -0.0
  outer loop
    vertex 0.7124052326001409 2.6518210197231524 10.499999999999998
    vertex 0.7124052326001409 2.6518210197231524 0.0
    vertex 0.7124052326001409 3.739532715372636 0.0
  endloop
endfacet
facet normal 1.0 -0.0 -0.0
  outer loop
    vertex 0.7124052326001409 2.6518210197231524 10.499999999999998
    vertex 0.7124052326001409 13.651821019723151 12.0
    vertex 0.7124052326001409 2.6518210197231515 11.999999999999998
  endloop
endfacet
facet normal 1.0 -0.0 -0.0
  outer loop
    vertex 0.7124052326001409 13.651821019723151 12.0
    vertex 0.7124052326001409 2.6518210197231524 10.499999999999998
    vertex 0.7124052326001409 3.739532715372636 0.0
  endloop
endfacet
facet normal 1.0 -0.0 -0.0
  outer loop
    vertex 0.7124052326001409 13.651821019723151 12.0
    vertex 0.7124052326001409 3.739532715372636 0.0
    vertex 0.7124052326001409 13.651821019723151 0.0
  endloop
endfacet
facet normal 1.0 -0.0 -0.0
  outer loop
    vertex 0.7124052326001409 13.651821019723151 12.0
    vertex 0.7124052326001409 13.651821019723151 0.0
    vertex 0.7124052326001409 13.651821019723151 9.999999999999998
  endloop
endfacet
facet normal 1.0 -0.0 -0.0
  outer loop
    vertex 0.7124052326001409 13.651821019723151 12.0
    vertex 0.7124052326001409 13.651821019723151 9.999999999999998
    vertex 0.7124052326001409 13.651821019723151 10.499999999999998
  endloop
endfacet
facet normal 1.0 -0.0 -0.0
  outer loop
    vertex 0.7124052326001409 26.651821019723148 10.499999999999998
    vertex 0.7124052326001409 26.15182101972315 12.0
    vertex 0.7124052326001409 26.15182101972315 10.5
  endloop
endfacet
facet normal 1.0 -0.0 -0.0
  outer loop
    vertex 0.7124052326001409 26.15182101972315 12.0
    vertex 0.7124052326001409 26.651821019723148 10.499999999999998
    vertex 0.7124052326001409 26.40182101972315 12.0
  endloop
endfacet
facet normal 1.0 -0.0 -0.0
  outer loop
    vertex 0.7124052326001409 26.40182101972315 12.0
    vertex 0.7124052326001409 26.651821019723148 10.499999999999998
    vertex 0.7124052326001409 26.651821019723148 12.0
  endloop
endfacet
facet normal 1.0 -0.0 -0.0
  outer loop
    vertex 0.7124052326001409 26.40182101972315 12.0
    vertex 0.7124052326001409 26.15182101972315 12.999999999999998
    vertex 0.7124052326001409 26.15182101972315 12.0
  endloop
endfacet
facet normal 1.0 -0.0 -0.0
  outer loop
    vertex 0.7124052326001409 26.15182101972315 12.999999999999998
    vertex 0.7124052326001409 26.40182101972315 12.0
    vertex 0.7124052326001409 26.40182101972315 12.999999999999998
  endloop
endfacet
facet normal 1.0 -0.0 -0.0
  outer loop
    vertex 0.7124052326001409 14.651821019723151 10.499999999999998
    vertex 0.7124052326001409 14.151821019723222 12.0
    vertex 0.7124052326001409 14.151821019723222 10.499999999999998
  endloop
endfacet
facet normal 1.0 -0.0 -0.0
  outer loop
    vertex 0.7124052326001409 14.151821019723222 12.0
    vertex 0.7124052326001409 14.651821019723151 10.499999999999998
    vertex 0.7124052326001409 14.401821019723188 12.0
  endloop
endfacet
facet normal 1.0 -0.0 -0.0
  outer loop
    vertex 0.7124052326001409 14.401821019723188 12.0
    vertex 0.7124052326001409 14.651821019723151 10.499999999999998
    vertex 0.7124052326001409 14.651821019723151 11.999999999999998
  endloop
endfacet
facet normal 1.0 -0.0 -0.0
  outer loop
    vertex 0.7124052326001409 14.401821019723188 12.0
    vertex 0.7124052326001409 14.151821019723222 12.999999999999998
    vertex 0.7124052326001409 14.151821019723222 12.0
  endloop
endfacet
facet normal 1.0 -0.0 -0.0
  outer loop
    vertex 0.7124052326001409 14.151821019723222 12.999999999999998
    vertex 0.7124052326001409 14.401821019723188 12.0
    vertex 0.7124052326001409 14.401821019723188 12.999999999999998
  endloop
endfacet
facet normal 0.0 0.0 -1.0
  outer loop
    vertex 8.71240523260014 25.65182101972315 11.999999999999998
    vertex 0.7124052326001409 14.651821019723151 11.999999999999998
    vertex 0.7124052326001409 25.65182101972315 11.999999999999998
  endloop
endfacet
facet normal 0.0 0.0 -1.0
  outer loop
    vertex 0.7124052326001409 14.651821019723151 11.999999999999998
    vertex 8.71240523260014 25.65182101972315 11.999999999999998
    vertex 8.712405232600139 14.651821019723151 11.999999999999998
  endloop
endfacet
facet normal -7.870321997064715e-17 4.844948198901228e-17 -1.0
  outer loop
    vertex 8.712405232600144 13.651821019723151 11.999999999999998
    vertex 0.7124052326001409 2.6518210197231515 11.999999999999998
    vertex 0.7124052326001409 13.651821019723151 12.0
  endloop
endfacet
facet normal -7.870321997064715e-17 4.844948198901228e-17 -1.0
  outer loop
    vertex 0.7124052326001409 2.6518210197231515 11.999999999999998
    vertex 8.712405232600144 13.651821019723151 11.999999999999998
    vertex 8.712405232600144 -0.4592900913879606 11.999999999999998
  endloop
endfacet
facet normal -1.566648045859943e-16 0.0 -1.0
  outer loop
    vertex 17.712405232600144 13.651821019723151 8.999999999999998
    vertex 8.712405232600144 -0.4592900913879606 8.999999999999998
    vertex 8.712405232600144 13.651821019723151 8.999999999999998
  endloop
endfacet
facet normal -1.566648045859943e-16 0.0 -1.0
  outer loop
    vertex 8.712405232600144 -0.4592900913879606 8.999999999999998
    vertex 17.712405232600144 13.651821019723151 8.999999999999998
    vertex 17.712405232600144 -3.9592900913879605 8.999999999999998
  endloop
endfacet
facet normal -0.0 1.0 -0.0
  outer loop
    vertex 0.2488101045619345 35.531454154131374 12.999999999999998
    vertex 0.7124052326001409 35.531454154131374 0.0
    vertex 0.2488101045619345 35.531454154131374 0.0
  endloop
endfacet
facet normal -0.0 1.0 -0.0
  outer loop
    vertex 0.7124052326001409 35.531454154131374 0.0
    vertex 0.2488101045619345 35.531454154131374 12.999999999999998
    vertex 0.7124052326001409 35.531454154131374 11.999999999999996
  endloop
endfacet
facet normal -0.0 1.0 -0.0
  outer loop
    vertex 0.7124052326001409 35.531454154131374 11.999999999999996
    vertex 0.2488101045619345 35.531454154131374 12.999999999999998
    vertex 0.7124052326001409 35.531454154131374 12.999999999999998
  endloop
endfacet
facet normal 0.0 0.0 -1.0
  outer loop
    vertex -6.585885868434371 23.29298943414716 0.0
    vertex -7.019645574968715 21.1518210197232 0.0
    vertex -7.116366804700768 20.918315315134677 0.0
  endloop
endfacet
facet normal 0.0 0.0 -1.0
  outer loop
    vertex -7.019645574968715 21.1518210197232 0.0
    vertex -6.585885868434371 23.29298943414716 0.0
    vertex -6.701808329772932 21.566034582096297 0.0
  endloop
endfacet
facet normal 0.0 0.0 -1.0
  outer loop
    vertex -6.701808329772932 21.566034582096297 0.0
    vertex -6.585885868434371 23.29298943414716 0.0
    vertex -6.287594767399838 21.88387182729208 0.0
  endloop
endfacet
facet normal 0.0 0.0 -1.0
  outer loop
    vertex -6.287594767399838 21.88387182729208 0.0
    vertex -6.585885868434371 23.29298943414716 0.0
    vertex -5.554543529193196 26.34186912445156 0.0
  endloop
endfacet
facet normal 0.0 0.0 -1.0
  outer loop
    vertex -6.287594767399838 21.88387182729208 0.0
    vertex -5.554543529193196 26.34186912445156 0.0
    vertex -5.805232857604881 22.083672672301336 0.0
  endloop
endfacet
facet normal 0.0 0.0 -1.0
  outer loop
    vertex -5.805232857604881 22.083672672301336 0.0
    vertex -5.554543529193196 26.34186912445156 0.0
    vertex -5.28759476739984 22.1518210197232 0.0
  endloop
endfacet
facet normal 0.0 0.0 -1.0
  outer loop
    vertex -5.28759476739984 22.1518210197232 0.0
    vertex -5.554543529193196 26.34186912445156 0.0
    vertex -4.205233360670178 29.263973923356417 0.0
  endloop
endfacet
facet normal 0.0 0.0 -1.0
  outer loop
    vertex -5.28759476739984 22.1518210197232 0.0
    vertex -4.205233360670178 29.263973923356417 0.0
    vertex -4.769956677194798 22.083672672301336 0.0
  endloop
endfacet
facet normal 0.0 0.0 -1.0
  outer loop
    vertex -4.769956677194798 22.083672672301336 0.0
    vertex -4.205233360670178 29.263973923356417 0.0
    vertex -4.287594767399839 21.883871827292076 0.0
  endloop
endfacet
facet normal 0.0 0.0 -1.0
  outer loop
    vertex -4.287594767399839 21.883871827292076 0.0
    vertex -4.205233360670178 29.263973923356417 0.0
    vertex -3.873381205026745 21.566034582096293 0.0
  endloop
endfacet
facet normal 0.0 0.0 -1.0
  outer loop
    vertex -3.873381205026745 21.566034582096293 0.0
    vertex -4.205233360670178 29.263973923356417 0.0
    vertex -2.5532175381267264 32.026251626399386 0.0
  endloop
endfacet
facet normal 0.0 0.0 -1.0
  outer loop
    vertex -3.873381205026745 21.566034582096293 0.0
    vertex -2.5532175381267264 32.026251626399386 0.0
    vertex -3.555543959830963 21.151821019723197 0.0
  endloop
endfacet
facet normal 0.0 0.0 -1.0
  outer loop
    vertex -3.555543959830963 21.151821019723197 0.0
    vertex -2.5532175381267264 32.026251626399386 0.0
    vertex -3.355743114821704 20.66945910992824 0.0
  endloop
endfacet
facet normal 0.0 0.0 -1.0
  outer loop
    vertex -3.355743114821704 20.66945910992824 0.0
    vertex -2.5532175381267264 32.026251626399386 0.0
    vertex -3.2875947673998405 20.1518210197232 0.0
  endloop
endfacet
facet normal 0.0 0.0 -1.0
  outer loop
    vertex -6.701808329772934 18.73760745735011 0.0
    vertex -6.474948986358175 16.903158472217573 0.0
    vertex -7.019645574968717 19.1518210197232 0.0
  endloop
endfacet
facet normal 0.0 0.0 -1.0
  outer loop
    vertex -6.474948986358175 16.903158472217573 0.0
    vertex -6.701808329772934 18.73760745735011 0.0
    vertex -6.28759476739984 18.419770212154326 0.0
  endloop
endfacet
facet normal 0.0 0.0 -1.0
  outer loop
    vertex -6.474948986358175 16.903158472217573 0.0
    vertex -6.28759476739984 18.419770212154326 0.0
    vertex -5.3688587404232235 13.742341191693805 0.0
  endloop
endfacet
facet normal 0.0 0.0 -1.0
  outer loop
    vertex -5.3688587404232235 13.742341191693805 0.0
    vertex -6.28759476739984 18.419770212154326 0.0
    vertex -5.805232857604882 18.219969367145065 0.0
  endloop
endfacet
facet normal 0.0 0.0 -1.0
  outer loop
    vertex -5.3688587404232235 13.742341191693805 0.0
    vertex -5.805232857604882 18.219969367145065 0.0
    vertex -5.28759476739984 18.1518210197232 0.0
  endloop
endfacet
facet normal 0.0 0.0 -1.0
  outer loop
    vertex -5.3688587404232235 13.742341191693805 0.0
    vertex -5.28759476739984 18.1518210197232 0.0
    vertex -3.978578412566562 10.695814953010585 0.0
  endloop
endfacet
facet normal 0.0 0.0 -1.0
  outer loop
    vertex -3.978578412566562 10.695814953010585 0.0
    vertex -5.28759476739984 18.1518210197232 0.0
    vertex -4.7699566771947985 18.219969367145065 0.0
  endloop
endfacet
facet normal 0.0 0.0 -1.0
  outer loop
    vertex -3.978578412566562 10.695814953010585 0.0
    vertex -4.7699566771947985 18.219969367145065 0.0
    vertex -4.28759476739984 18.419770212154326 0.0
  endloop
endfacet
facet normal 0.0 0.0 -1.0
  outer loop
    vertex -3.978578412566562 10.695814953010585 0.0
    vertex -4.28759476739984 18.419770212154326 0.0
    vertex -3.873381205026745 18.737607457350105 0.0
  endloop
endfacet
facet normal 0.0 0.0 -1.0
  outer loop
    vertex -3.978578412566562 10.695814953010585 0.0
    vertex -3.873381205026745 18.737607457350105 0.0
    vertex -2.3157401337462113 7.789069286203768 0.0
  endloop
endfacet
facet normal 0.0 0.0 -1.0
  outer loop
    vertex -2.3157401337462113 7.789069286203768 0.0
    vertex -3.873381205026745 18.737607457350105 0.0
    vertex -3.555543959830963 19.1518210197232 0.0
  endloop
endfacet
facet normal 0.0 0.0 -1.0
  outer loop
    vertex -2.3157401337462113 7.789069286203768 0.0
    vertex -3.555543959830963 19.1518210197232 0.0
    vertex -3.355743114821704 19.634182929518158 0.0
  endloop
endfacet
facet normal 0.0 0.0 -1.0
  outer loop
    vertex -2.3157401337462113 7.789069286203768 0.0
    vertex -3.355743114821704 19.634182929518158 0.0
    vertex -3.2875947673998405 20.1518210197232 0.0
  endloop
endfacet
facet normal 0.0 0.0 -1.0
  outer loop
    vertex -2.3157401337462113 7.789069286203768 0.0
    vertex -3.2875947673998405 20.1518210197232 0.0
    vertex -2.5532175381267264 32.026251626399386 0.0
  endloop
endfacet
facet normal 0.0 0.0 -1.0
  outer loop
    vertex -2.3157401337462113 7.789069286203768 0.0
    vertex -2.5532175381267264 32.026251626399386 0.0
    vertex -0.61718216918016 34.59745784855469 0.0
  endloop
endfacet
facet normal 0.0 0.0 -1.0
  outer loop
    vertex -2.3157401337462113 7.789069286203768 0.0
    vertex -0.61718216918016 34.59745784855469 0.0
    vertex -0.3942564597492684 5.046424211905337 0.0
  endloop
endfacet
facet normal 0.0 0.0 -1.0
  outer loop
    vertex -0.3942564597492684 5.046424211905337 0.0
    vertex -0.61718216918016 34.59745784855469 0.0
    vertex -0.4200145546020989 34.81010850281457 0.0
  endloop
endfacet
facet normal 0.0 0.0 -1.0
  outer loop
    vertex -0.3942564597492684 5.046424211905337 0.0
    vertex -0.4200145546020989 34.81010850281457 0.0
    vertex 0.2488101045619345 35.531454154131374 0.0
  endloop
endfacet
facet normal 0.0 0.0 -1.0
  outer loop
    vertex -0.3942564597492684 5.046424211905337 0.0
    vertex 0.2488101045619345 35.531454154131374 0.0
    vertex 0.7124052326001409 3.739532715372636 0.0
  endloop
endfacet
facet normal 0.0 0.0 -1.0
  outer loop
    vertex 0.7124052326001409 3.739532715372636 0.0
    vertex 0.2488101045619345 35.531454154131374 0.0
    vertex 0.7124052326001409 35.531454154131374 0.0
  endloop
endfacet
facet normal 0.0 0.0 -1.0
  outer loop
    vertex 0.7124052326001409 3.739532715372636 0.0
    vertex 0.7124052326001409 35.531454154131374 0.0
    vertex 0.7124052326001409 26.651821019723148 0.0
  endloop
endfacet
facet normal 0.0 0.0 -1.0
  outer loop
    vertex 0.7124052326001409 3.739532715372636 0.0
    vertex 0.7124052326001409 26.651821019723148 0.0
    vertex 0.7124052326001409 26.15182101972315 0.0
  endloop
endfacet
facet normal 0.0 0.0 -1.0
  outer loop
    vertex 0.7124052326001409 3.739532715372636 0.0
    vertex 0.7124052326001409 26.15182101972315 0.0
    vertex 0.7124052326001409 25.65182101972315 0.0
  endloop
endfacet
facet normal 0.0 0.0 -1.0
  outer loop
    vertex 0.7124052326001409 3.739532715372636 0.0
    vertex 0.7124052326001409 25.65182101972315 0.0
    vertex 0.7124052326001409 14.651821019723151 0.0
  endloop
endfacet
facet normal 0.0 0.0 -1.0
  outer loop
    vertex 0.7124052326001409 3.739532715372636 0.0
    vertex 0.7124052326001409 14.651821019723151 0.0
    vertex 0.7124052326001409 14.151821019723222 0.0
  endloop
endfacet
facet normal 0.0 0.0 -1.0
  outer loop
    vertex 0.7124052326001409 3.739532715372636 0.0
    vertex 0.7124052326001409 14.151821019723222 0.0
    vertex 0.7124052326001409 13.651821019723151 0.0
  endloop
endfacet
facet normal 0.0 0.0 -1.0
  outer loop
    vertex -7.2875947673998445 20.1518210197232 0.0
    vertex -9.447428989389923 16.510073370831527 0.0
    vertex -10.287594767399838 20.1518210197232 0.0
  endloop
endfacet
facet normal 0.0 0.0 -1.0
  outer loop
    vertex -9.447428989389923 16.510073370831527 0.0
    vertex -7.2875947673998445 20.1518210197232 0.0
    vertex -8.263774902655042 12.965053275584767 0.0
  endloop
endfacet
facet normal 0.0 0.0 -1.0
  outer loop
    vertex -8.263774902655042 12.965053275584767 0.0
    vertex -7.2875947673998445 20.1518210197232 0.0
    vertex -6.747423230511137 9.549078732480892 0.0
  endloop
endfacet
facet normal 0.0 0.0 -1.0
  outer loop
    vertex -6.747423230511137 9.549078732480892 0.0
    vertex -7.2875947673998445 20.1518210197232 0.0
    vertex -7.2194464199779755 19.63418292951816 0.0
  endloop
endfacet
facet normal 0.0 0.0 -1.0
  outer loop
    vertex -6.747423230511137 9.549078732480892 0.0
    vertex -7.2194464199779755 19.63418292951816 0.0
    vertex -7.064588401521292 19.260322601117814 0.0
  endloop
endfacet
facet normal 0.0 0.0 -1.0
  outer loop
    vertex -6.747423230511137 9.549078732480892 0.0
    vertex -7.064588401521292 19.260322601117814 0.0
    vertex -7.019645574968717 19.1518210197232 0.0
  endloop
endfacet
facet normal 0.0 0.0 -1.0
  outer loop
    vertex -6.747423230511137 9.549078732480892 0.0
    vertex -7.019645574968717 19.1518210197232 0.0
    vertex -6.474948986358175 16.903158472217573 0.0
  endloop
endfacet
facet normal 0.0 0.0 -1.0
  outer loop
    vertex -6.747423230511137 9.549078732480892 0.0
    vertex -6.474948986358175 16.903158472217573 0.0
    vertex -4.912197717181393 6.293291302692112 0.0
  endloop
endfacet
facet normal 0.0 0.0 -1.0
  outer loop
    vertex -4.912197717181393 6.293291302692112 0.0
    vertex -6.474948986358175 16.903158472217573 0.0
    vertex -5.3688587404232235 13.742341191693805 0.0
  endloop
endfacet
facet normal 0.0 0.0 -1.0
  outer loop
    vertex -4.912197717181393 6.293291302692112 0.0
    vertex -5.3688587404232235 13.742341191693805 0.0
    vertex -3.978578412566562 10.695814953010585 0.0
  endloop
endfacet
facet normal 0.0 0.0 -1.0
  outer loop
    vertex -4.912197717181393 6.293291302692112 0.0
    vertex -3.978578412566562 10.695814953010585 0.0
    vertex -2.774829104322869 3.22737220957916 0.0
  endloop
endfacet
facet normal 0.0 0.0 -1.0
  outer loop
    vertex -2.774829104322869 3.22737220957916 0.0
    vertex -3.978578412566562 10.695814953010585 0.0
    vertex -2.3157401337462113 7.789069286203768 0.0
  endloop
endfacet
facet normal 0.0 0.0 -1.0
  outer loop
    vertex -2.774829104322869 3.22737220957916 0.0
    vertex -2.3157401337462113 7.789069286203768 0.0
    vertex -0.35480260605686487 0.379271751302155 0.0
  endloop
endfacet
facet normal 0.0 0.0 -1.0
  outer loop
    vertex -0.35480260605686487 0.379271751302155 0.0
    vertex -2.3157401337462113 7.789069286203768 0.0
    vertex -0.3942564597492684 5.046424211905337 0.0
  endloop
endfacet
facet normal 0.0 0.0 -1.0
  outer loop
    vertex -0.35480260605686487 0.379271751302155 0.0
    vertex -0.3942564597492684 5.046424211905337 0.0
    vertex 0.7124052326001409 3.739532715372636 0.0
  endloop
endfacet
facet normal 0.0 0.0 -1.0
  outer loop
    vertex -0.35480260605686487 0.379271751302155 0.0
    vertex 0.7124052326001409 3.739532715372636 0.0
    vertex 0.0 -3.6766852914275024e-18 0.0
  endloop
endfacet
facet normal 0.0 0.0 -1.0
  outer loop
    vertex 0.0 -3.6766852914275024e-18 0.0
    vertex 0.7124052326001409 3.739532715372636 0.0
    vertex 0.7124052326001405 0.7672056351078417 0.0
  endloop
endfacet
facet normal 0.0 0.0 -1.0
  outer loop
    vertex 0.7124052326001405 0.7672056351078417 0.0
    vertex 0.7124052326001409 3.739532715372636 0.0
    vertex 0.7124052326001409 2.1518210197231524 0.0
  endloop
endfacet
facet normal 0.0 0.0 -1.0
  outer loop
    vertex 0.7124052326001409 2.1518210197231524 0.0
    vertex 0.7124052326001409 3.739532715372636 0.0
    vertex 0.7124052326001409 2.6518210197231524 0.0
  endloop
endfacet
facet normal 0.7327934916262983 -0.6804510993672789 2.2530867255920083e-18
  outer loop
    vertex 0.7124052326001405 0.7672056351078417 0.0
    vertex 0.0 0.0 12.999999999999998
    vertex 0.0 -3.6766852914275024e-18 0.0
  endloop
endfacet
facet normal 0.7327934916262983 -0.6804510993672789 2.2530867255920083e-18
  outer loop
    vertex 0.0 0.0 12.999999999999998
    vertex 0.7124052326001405 0.7672056351078417 0.0
    vertex 0.7124052326001405 0.7672056351078417 12.999999999999998
  endloop
endfacet
facet normal -0.9485241864597512 -0.31670470110319965 0.0
  outer loop
    vertex -9.447428989389923 16.510073370831527 12.999999999999998
    vertex -8.263774902655042 12.965053275584767 0.0
    vertex -8.263774902655042 12.965053275584767 12.999999999999998
  endloop
endfacet
facet normal -0.9485241864597512 -0.31670470110319965 0.0
  outer loop
    vertex -8.263774902655042 12.965053275584767 0.0
    vertex -9.447428989389923 16.510073370831527 12.999999999999998
    vertex -9.447428989389923 16.510073370831527 0.0
  endloop
endfacet
facet normal -0.9139960810967723 -0.40572301356928553 0.0
  outer loop
    vertex -8.263774902655042 12.965053275584767 12.999999999999998
    vertex -6.747423230511137 9.549078732480892 0.0
    vertex -6.747423230511137 9.549078732480892 12.999999999999998
  endloop
endfacet
facet normal -0.9139960810967723 -0.40572301356928553 0.0
  outer loop
    vertex -6.747423230511137 9.549078732480892 0.0
    vertex -8.263774902655042 12.965053275584767 12.999999999999998
    vertex -8.263774902655042 12.965053275584767 0.0
  endloop
endfacet
facet normal -0.7620527098746441 -0.6475149939365972 0.0
  outer loop
    vertex -2.774829104322869 3.22737220957916 12.999999999999998
    vertex -0.35480260605686487 0.379271751302155 0.0
    vertex -0.35480260605686487 0.379271751302155 12.999999999999998
  endloop
endfacet
facet normal -0.7620527098746441 -0.6475149939365972 0.0
  outer loop
    vertex -0.35480260605686487 0.379271751302155 0.0
    vertex -2.774829104322869 3.22737220957916 12.999999999999998
    vertex -2.774829104322869 3.22737220957916 0.0
  endloop
endfacet
facet normal -0.7302714135188858 -0.6831571287757514 0.0
  outer loop
    vertex 0.0 0.0 12.999999999999998
    vertex -0.35480260605686487 0.379271751302155 0.0
    vertex 0.0 -3.6766852914275024e-18 0.0
  endloop
endfacet
facet normal -0.7302714135188858 -0.6831571287757514 0.0
  outer loop
    vertex -0.35480260605686487 0.379271751302155 0.0
    vertex 0.0 0.0 12.999999999999998
    vertex -0.35480260605686487 0.379271751302155 12.999999999999998
  endloop
endfacet
facet normal -0.820333407262104 -0.5718855662890495 0.0
  outer loop
    vertex -4.912197717181393 6.293291302692112 12.999999999999998
    vertex -2.774829104322869 3.22737220957916 0.0
    vertex -2.774829104322869 3.22737220957916 12.999999999999998
  endloop
endfacet
facet normal -0.820333407262104 -0.5718855662890495 0.0
  outer loop
    vertex -2.774829104322869 3.22737220957916 0.0
    vertex -4.912197717181393 6.293291302692112 12.999999999999998
    vertex -4.912197717181393 6.293291302692112 0.0
  endloop
endfacet
facet normal -0.8711355761472429 -0.49104257246252225 0.0
  outer loop
    vertex -6.747423230511137 9.549078732480892 12.999999999999998
    vertex -4.912197717181393 6.293291302692112 0.0
    vertex -4.912197717181393 6.293291302692112 12.999999999999998
  endloop
endfacet
facet normal -0.8711355761472429 -0.49104257246252225 0.0
  outer loop
    vertex -4.912197717181393 6.293291302692112 0.0
    vertex -6.747423230511137 9.549078732480892 12.999999999999998
    vertex -6.747423230511137 9.549078732480892 0.0
  endloop
endfacet
facet normal -0.9744051184895477 -0.2247991660602203 0.0
  outer loop
    vertex -10.287594767399838 20.1518210197232 12.999999999999998
    vertex -9.447428989389923 16.510073370831527 0.0
    vertex -9.447428989389923 16.510073370831527 12.999999999999998
  endloop
endfacet
facet normal -0.9744051184895477 -0.2247991660602203 0.0
  outer loop
    vertex -9.447428989389923 16.510073370831527 0.0
    vertex -10.287594767399838 20.1518210197232 12.999999999999998
    vertex -10.287594767399838 20.1518210197232 0.0
  endloop
endfacet
facet normal -0.979407210577791 0.20189481387155728 0.0
  outer loop
    vertex -9.558835457165726 23.687088268702997 12.999999999999998
    vertex -10.287594767399838 20.1518210197232 0.0
    vertex -10.287594767399838 20.1518210197232 12.999999999999998
  endloop
endfacet
facet normal -0.979407210577791 0.20189481387155728 0.0
  outer loop
    vertex -10.287594767399838 20.1518210197232 0.0
    vertex -9.558835457165726 23.687088268702997 12.999999999999998
    vertex -9.558835457165726 23.687088268702997 0.0
  endloop
endfacet
facet normal 0.6799070460830388 0.7332983081165786 -0.0
  outer loop
    vertex -2.611338271056381 36.841882500620216 12.999999999999998
    vertex -0.4200145546020989 34.81010850281457 0.0
    vertex -2.611338271056381 36.841882500620216 -3.524958103184872e-16
  endloop
endfacet
facet normal 0.6799070460830388 0.7332983081165786 -0.0
  outer loop
    vertex -0.4200145546020989 34.81010850281457 0.0
    vertex -2.611338271056381 36.841882500620216 12.999999999999998
    vertex -0.4200145546020989 34.81010850281457 12.999999999999998
  endloop
endfacet
facet normal 2.5775847013694167e-17 -1.0174267177713802e-16 -1.0
  outer loop
    vertex 8.712405232600144 39.58495053883883 11.999999999999998
    vertex 0.7124052326001409 26.651821019723148 12.0
    vertex 0.7124052326001409 35.531454154131374 11.999999999999996
  endloop
endfacet
facet normal 2.5775847013694167e-17 -1.0174267177713802e-16 -1.0
  outer loop
    vertex 0.7124052326001409 26.651821019723148 12.0
    vertex 8.712405232600144 39.58495053883883 11.999999999999998
    vertex 8.712405232600144 26.651821019723148 11.999999999999998
  endloop
endfacet
facet normal -1.0 0.0 0.0
  outer loop
    vertex 8.712405232600144 39.58495053883883 11.999999999999998
    vertex 8.712405232600144 26.651821019723148 8.999999999999998
    vertex 8.712405232600144 26.651821019723148 11.999999999999998
  endloop
endfacet
facet normal -1.0 0.0 0.0
  outer loop
    vertex 8.712405232600144 26.651821019723148 8.999999999999998
    vertex 8.712405232600144 39.58495053883883 11.999999999999998
    vertex 8.712405232600144 39.58495053883883 8.999999999999998
  endloop
endfacet
facet normal -1.0 1.2818029466126805e-16 -5.662870802259042e-47
  outer loop
    vertex 8.71240523260014 25.65182101972315 11.999999999999998
    vertex 8.712405232600139 14.651821019723151 9.5
    vertex 8.712405232600139 14.651821019723151 11.999999999999998
  endloop
endfacet
facet normal -1.0 1.2818029466126805e-16 -5.662870802259042e-47
  outer loop
    vertex 8.712405232600139 14.651821019723151 9.5
    vertex 8.71240523260014 25.65182101972315 11.999999999999998
    vertex 8.71240523260014 25.65182101972315 9.5
  endloop
endfacet
facet normal -1.0 0.0 0.0
  outer loop
    vertex 8.712405232600144 13.651821019723151 11.999999999999998
    vertex 8.712405232600144 -0.4592900913879606 8.999999999999998
    vertex 8.712405232600144 -0.4592900913879606 11.999999999999998
  endloop
endfacet
facet normal -1.0 0.0 0.0
  outer loop
    vertex 8.712405232600144 -0.4592900913879606 8.999999999999998
    vertex 8.712405232600144 13.651821019723151 11.999999999999998
    vertex 8.712405232600144 13.651821019723151 8.999999999999998
  endloop
endfacet
facet normal -0.0 -0.0 1.0
  outer loop
    vertex 17.712405232600144 14.651821019723155 12.999999999999998
    vertex 0.7124052326001409 14.651821019723151 12.999999999999998
    vertex 0.7124052326001409 14.401821019723188 12.999999999999998
  endloop
endfacet
facet normal -0.0 -0.0 1.0
  outer loop
    vertex 17.712405232600144 13.651821019723151 12.999999999999998
    vertex 0.7124052326001409 13.901821019723187 12.999999999999998
    vertex 0.7124052326001409 13.651821019723151 12.999999999999998
  endloop
endfacet
facet normal 1.6893808420793956e-16 -7.511247128630978e-15 -1.0
  outer loop
    vertex 8.712405232600139 14.651821019723151 11.999999999999998
    vertex 0.7124052326001409 14.401821019723188 12.0
    vertex 0.7124052326001409 14.651821019723151 11.999999999999998
  endloop
endfacet
facet normal 1.6893808420793956e-16 -7.511247128630978e-15 -1.0
  outer loop
    vertex 0.7124052326001409 14.401821019723188 12.0
    vertex 8.712405232600139 14.651821019723151 11.999999999999998
    vertex 17.712405232600144 14.651821019723155 12.0
  endloop
endfacet
facet normal 0.014704292441874135 -0.9998918860475786 -6.1712492614561795e-18
  outer loop
    vertex 17.712405232600144 14.651821019723155 12.0
    vertex 0.7124052326001409 14.401821019723188 12.999999999999998
    vertex 0.7124052326001409 14.401821019723188 12.0
  endloop
endfacet
facet normal 0.014704292441874135 -0.9998918860475786 -6.1712492614561795e-18
  outer loop
    vertex 0.7124052326001409 14.401821019723188 12.999999999999998
    vertex 17.712405232600144 14.651821019723155 12.0
    vertex 17.712405232600144 14.651821019723155 12.999999999999998
  endloop
endfacet
facet normal 3.2488093116911123e-18 1.988271298754681e-15 -1.0
  outer loop
    vertex 17.712405232600144 13.651821019723151 12.0
    vertex 0.7124052326001409 13.651821019723151 12.0
    vertex 0.7124052326001409 13.901821019723187 12.0
  endloop
endfacet
facet normal 3.2488093116911123e-18 1.988271298754681e-15 -1.0
  outer loop
    vertex 0.7124052326001409 13.651821019723151 12.0
    vertex 17.712405232600144 13.651821019723151 12.0
    vertex 8.712405232600144 13.651821019723151 11.999999999999998
  endloop
endfacet
facet normal 0.014704292441878285 0.9998918860475786 -3.9756756088679515e-30
  outer loop
    vertex 0.7124052326001409 13.901821019723187 12.999999999999998
    vertex 17.712405232600144 13.651821019723151 12.0
    vertex 0.7124052326001409 13.901821019723187 12.0
  endloop
endfacet
facet normal 0.014704292441878285 0.9998918860475786 -3.9756756088679515e-30
  outer loop
    vertex 17.712405232600144 13.651821019723151 12.0
    vertex 0.7124052326001409 13.901821019723187 12.999999999999998
    vertex 17.712405232600144 13.651821019723151 12.999999999999998
  endloop
endfacet
facet normal -0.0 -0.0 1.0
  outer loop
    vertex 17.712405232600144 26.651821019723148 12.999999999999998
    vertex 0.7124052326001409 26.651821019723148 12.999999999999998
    vertex 0.7124052326001409 26.40182101972315 12.999999999999998
  endloop
endfacet
facet normal 3.2488093116911196e-18 -1.9882712987549724e-15 -1.0
  outer loop
    vertex 8.712405232600144 26.651821019723148 11.999999999999998
    vertex 0.7124052326001409 26.40182101972315 12.0
    vertex 0.7124052326001409 26.651821019723148 12.0
  endloop
endfacet
facet normal 3.2488093116911196e-18 -1.9882712987549724e-15 -1.0
  outer loop
    vertex 0.7124052326001409 26.40182101972315 12.0
    vertex 8.712405232600144 26.651821019723148 11.999999999999998
    vertex 17.712405232600144 26.651821019723148 12.0
  endloop
endfacet
facet normal 0.014704292441876125 -0.9998918860475786 0.0
  outer loop
    vertex 17.712405232600144 26.651821019723148 12.999999999999998
    vertex 0.7124052326001409 26.40182101972315 12.0
    vertex 17.712405232600144 26.651821019723148 12.0
  endloop
endfacet
facet normal 0.014704292441876125 -0.9998918860475786 0.0
  outer loop
    vertex 0.7124052326001409 26.40182101972315 12.0
    vertex 17.712405232600144 26.651821019723148 12.999999999999998
    vertex 0.7124052326001409 26.40182101972315 12.999999999999998
  endloop
endfacet
facet normal 5.858378978682672e-18 -8.192518568737173e-18 -1.0
  outer loop
    vertex -9.558835457165726 23.687088268702997 0.0
    vertex -7.2875947673998445 20.1518210197232 0.0
    vertex -10.287594767399838 20.1518210197232 0.0
  endloop
endfacet
facet normal 5.858378978682672e-18 -8.192518568737173e-18 -1.0
  outer loop
    vertex -7.2875947673998445 20.1518210197232 0.0
    vertex -9.558835457165726 23.687088268702997 0.0
    vertex -8.449727065984282 27.12206763262542 0.0
  endloop
endfacet
facet normal 5.858378978682672e-18 -8.192518568737173e-18 -1.0
  outer loop
    vertex -7.2875947673998445 20.1518210197232 0.0
    vertex -8.449727065984282 27.12206763262542 0.0
    vertex -6.973440364790339 30.415968394615692 0.0
  endloop
endfacet
facet normal 5.858378978682672e-18 -8.192518568737173e-18 -1.0
  outer loop
    vertex -7.2875947673998445 20.1518210197232 0.0
    vertex -6.973440364790339 30.415968394615692 0.0
    vertex -7.2194464199779755 20.669459109928244 0.0
  endloop
endfacet
facet normal 5.858378978682672e-18 -8.192518568737173e-18 -1.0
  outer loop
    vertex -7.2194464199779755 20.669459109928244 0.0
    vertex -6.973440364790339 30.415968394615692 0.0
    vertex -7.116366804700768 20.918315315134677 0.0
  endloop
endfacet
facet normal 5.858378978682672e-18 -8.192518568737173e-18 -1.0
  outer loop
    vertex -7.116366804700768 20.918315315134677 0.0
    vertex -6.973440364790339 30.415968394615692 0.0
    vertex -6.585885868434371 23.29298943414716 0.0
  endloop
endfacet
facet normal 5.858378978682672e-18 -8.192518568737173e-18 -1.0
  outer loop
    vertex -6.585885868434371 23.29298943414716 0.0
    vertex -6.973440364790339 30.415968394615692 0.0
    vertex -5.1475064029657425 33.52967516003502 0.0
  endloop
endfacet
facet normal 5.858378978682672e-18 -8.192518568737173e-18 -1.0
  outer loop
    vertex -6.585885868434371 23.29298943414716 0.0
    vertex -5.1475064029657425 33.52967516003502 0.0
    vertex -5.554543529193196 26.34186912445156 0.0
  endloop
endfacet
facet normal 5.858378978682672e-18 -8.192518568737173e-18 -1.0
  outer loop
    vertex -5.554543529193196 26.34186912445156 0.0
    vertex -5.1475064029657425 33.52967516003502 0.0
    vertex -4.205233360670178 29.263973923356417 0.0
  endloop
endfacet
facet normal 5.858378978682672e-18 -8.192518568737173e-18 -1.0
  outer loop
    vertex -4.205233360670178 29.263973923356417 0.0
    vertex -5.1475064029657425 33.52967516003502 0.0
    vertex -2.9936083254083137 36.42621235562854 0.0
  endloop
endfacet
facet normal 5.858378978682672e-18 -8.192518568737173e-18 -1.0
  outer loop
    vertex -4.205233360670178 29.263973923356417 0.0
    vertex -2.9936083254083137 36.42621235562854 0.0
    vertex -2.5532175381267264 32.026251626399386 0.0
  endloop
endfacet
facet normal 5.858378978682672e-18 -8.192518568737173e-18 -1.0
  outer loop
    vertex -2.5532175381267264 32.026251626399386 0.0
    vertex -2.9936083254083137 36.42621235562854 0.0
    vertex -2.611338271056381 36.841882500620216 -3.524958103184872e-16
  endloop
endfacet
facet normal 5.858378978682672e-18 -8.192518568737173e-18 -1.0
  outer loop
    vertex -2.5532175381267264 32.026251626399386 0.0
    vertex -2.611338271056381 36.841882500620216 -3.524958103184872e-16
    vertex -0.61718216918016 34.59745784855469 0.0
  endloop
endfacet
facet normal 5.858378978682672e-18 -8.192518568737173e-18 -1.0
  outer loop
    vertex -0.61718216918016 34.59745784855469 0.0
    vertex -2.611338271056381 36.841882500620216 -3.524958103184872e-16
    vertex -0.4200145546020989 34.81010850281457 0.0
  endloop
endfacet
facet normal 0.9914448613738089 0.1305261922200628 -1.8333834663869224e-19
  outer loop
    vertex -7.2875947673998445 20.1518210197232 0.0
    vertex -7.2194464199779755 19.63418292951816 13.000000000000002
    vertex -7.2194464199779755 19.63418292951816 0.0
  endloop
endfacet
facet normal 0.9914448613738089 0.1305261922200628 -1.8333834663869224e-19
  outer loop
    vertex -7.2194464199779755 19.63418292951816 13.000000000000002
    vertex -7.2875947673998445 20.1518210197232 0.0
    vertex -7.2875947673998445 20.1518210197232 12.999999999999998
  endloop
endfacet
facet normal 0.9914448613738092 -0.13052619222006212 3.275861558720737e-20
  outer loop
    vertex -7.2194464199779755 20.669459109928244 0.0
    vertex -7.2875947673998445 20.1518210197232 12.999999999999998
    vertex -7.2875947673998445 20.1518210197232 0.0
  endloop
endfacet
facet normal 0.9914448613738092 -0.13052619222006212 3.275861558720737e-20
  outer loop
    vertex -7.2875947673998445 20.1518210197232 12.999999999999998
    vertex -7.2194464199779755 20.669459109928244 0.0
    vertex -7.2194464199779755 20.669459109928244 13.000000000000002
  endloop
endfacet
facet normal 0.9238795325112871 -0.38268343236508917 -0.0
  outer loop
    vertex -7.116366804700768 20.918315315134677 0.0
    vertex -7.2194464199779755 20.669459109928244 13.000000000000002
    vertex -7.2194464199779755 20.669459109928244 0.0
  endloop
endfacet
facet normal 0.9238795325112871 -0.38268343236508917 -0.0
  outer loop
    vertex -7.2194464199779755 20.669459109928244 13.000000000000002
    vertex -7.116366804700768 20.918315315134677 0.0
    vertex -7.116366804700768 20.918315315134677 13.000000000000002
  endloop
endfacet
facet normal 0.9238795325112852 -0.38268343236509356 -0.0
  outer loop
    vertex -7.019645574968715 21.1518210197232 0.0
    vertex -7.116366804700768 20.918315315134677 13.000000000000002
    vertex -7.116366804700768 20.918315315134677 0.0
  endloop
endfacet
facet normal 0.9238795325112852 -0.38268343236509356 -0.0
  outer loop
    vertex -7.116366804700768 20.918315315134677 13.000000000000002
    vertex -7.019645574968715 21.1518210197232 0.0
    vertex -7.019645574968715 21.1518210197232 13.000000000000002
  endloop
endfacet
facet normal 0.7933533402912347 -0.6087614290087213 -0.0
  outer loop
    vertex -6.701808329772932 21.566034582096297 0.0
    vertex -7.019645574968715 21.1518210197232 13.000000000000002
    vertex -7.019645574968715 21.1518210197232 0.0
  endloop
endfacet
facet normal 0.7933533402912347 -0.6087614290087213 -0.0
  outer loop
    vertex -7.019645574968715 21.1518210197232 13.000000000000002
    vertex -6.701808329772932 21.566034582096297 0.0
    vertex -6.701808329772932 21.566034582096297 13.000000000000002
  endloop
endfacet
facet normal 0.608761429008722 -0.7933533402912342 -0.0
  outer loop
    vertex -6.287594767399838 21.88387182729208 13.000000000000002
    vertex -6.701808329772932 21.566034582096297 0.0
    vertex -6.287594767399838 21.88387182729208 0.0
  endloop
endfacet
facet normal 0.608761429008722 -0.7933533402912342 -0.0
  outer loop
    vertex -6.701808329772932 21.566034582096297 0.0
    vertex -6.287594767399838 21.88387182729208 13.000000000000002
    vertex -6.701808329772932 21.566034582096297 13.000000000000002
  endloop
endfacet
facet normal 0.3826834323650867 -0.9238795325112881 -0.0
  outer loop
    vertex -5.805232857604881 22.083672672301336 13.000000000000002
    vertex -6.287594767399838 21.88387182729208 0.0
    vertex -5.805232857604881 22.083672672301336 0.0
  endloop
endfacet
facet normal 0.3826834323650867 -0.9238795325112881 -0.0
  outer loop
    vertex -6.287594767399838 21.88387182729208 0.0
    vertex -5.805232857604881 22.083672672301336 13.000000000000002
    vertex -6.287594767399838 21.88387182729208 13.000000000000002
  endloop
endfacet
facet normal 0.130526192220052 -0.9914448613738105 -0.0
  outer loop
    vertex -5.28759476739984 22.1518210197232 13.000000000000002
    vertex -5.805232857604881 22.083672672301336 0.0
    vertex -5.28759476739984 22.1518210197232 0.0
  endloop
endfacet
facet normal 0.130526192220052 -0.9914448613738105 -0.0
  outer loop
    vertex -5.805232857604881 22.083672672301336 0.0
    vertex -5.28759476739984 22.1518210197232 13.000000000000002
    vertex -5.805232857604881 22.083672672301336 13.000000000000002
  endloop
endfacet
facet normal -0.13052619222005163 -0.9914448613738104 -0.0
  outer loop
    vertex -4.769956677194798 22.083672672301336 13.000000000000002
    vertex -5.28759476739984 22.1518210197232 0.0
    vertex -4.769956677194798 22.083672672301336 0.0
  endloop
endfacet
facet normal -0.13052619222005163 -0.9914448613738104 -0.0
  outer loop
    vertex -5.28759476739984 22.1518210197232 0.0
    vertex -4.769956677194798 22.083672672301336 13.000000000000002
    vertex -5.28759476739984 22.1518210197232 13.000000000000002
  endloop
endfacet
facet normal -0.3826834323650914 -0.9238795325112863 -0.0
  outer loop
    vertex -4.287594767399839 21.883871827292076 13.000000000000002
    vertex -4.769956677194798 22.083672672301336 0.0
    vertex -4.287594767399839 21.883871827292076 0.0
  endloop
endfacet
facet normal -0.3826834323650914 -0.9238795325112863 -0.0
  outer loop
    vertex -4.769956677194798 22.083672672301336 0.0
    vertex -4.287594767399839 21.883871827292076 13.000000000000002
    vertex -4.769956677194798 22.083672672301336 13.000000000000002
  endloop
endfacet
facet normal -0.608761429008722 -0.7933533402912342 -0.0
  outer loop
    vertex -3.873381205026745 21.566034582096293 13.000000000000002
    vertex -4.287594767399839 21.883871827292076 0.0
    vertex -3.873381205026745 21.566034582096293 0.0
  endloop
endfacet
facet normal -0.608761429008722 -0.7933533402912342 -0.0
  outer loop
    vertex -4.287594767399839 21.883871827292076 0.0
    vertex -3.873381205026745 21.566034582096293 13.000000000000002
    vertex -4.287594767399839 21.883871827292076 13.000000000000002
  endloop
endfacet
facet normal -0.7933533402912347 -0.6087614290087213 -0.0
  outer loop
    vertex -3.873381205026745 21.566034582096293 13.000000000000002
    vertex -3.555543959830963 21.151821019723197 0.0
    vertex -3.555543959830963 21.151821019723197 13.000000000000002
  endloop
endfacet
facet normal -0.7933533402912347 -0.6087614290087213 -0.0
  outer loop
    vertex -3.555543959830963 21.151821019723197 0.0
    vertex -3.873381205026745 21.566034582096293 13.000000000000002
    vertex -3.873381205026745 21.566034582096293 0.0
  endloop
endfacet
facet normal -0.9238795325112871 -0.38268343236508895 -0.0
  outer loop
    vertex -3.555543959830963 21.151821019723197 13.000000000000002
    vertex -3.355743114821704 20.66945910992824 0.0
    vertex -3.355743114821704 20.66945910992824 13.000000000000002
  endloop
endfacet
facet normal -0.9238795325112871 -0.38268343236508895 -0.0
  outer loop
    vertex -3.355743114821704 20.66945910992824 0.0
    vertex -3.555543959830963 21.151821019723197 13.000000000000002
    vertex -3.555543959830963 21.151821019723197 0.0
  endloop
endfacet
facet normal -0.9914448613738104 -0.13052619222005216 -0.0
  outer loop
    vertex -3.355743114821704 20.66945910992824 13.000000000000002
    vertex -3.2875947673998405 20.1518210197232 0.0
    vertex -3.2875947673998405 20.1518210197232 13.000000000000002
  endloop
endfacet
facet normal -0.9914448613738104 -0.13052619222005216 -0.0
  outer loop
    vertex -3.2875947673998405 20.1518210197232 0.0
    vertex -3.355743114821704 20.66945910992824 13.000000000000002
    vertex -3.355743114821704 20.66945910992824 0.0
  endloop
endfacet
facet normal -0.9914448613738105 0.13052619222005143 -0.0
  outer loop
    vertex -3.2875947673998405 20.1518210197232 13.000000000000002
    vertex -3.355743114821704 19.634182929518158 0.0
    vertex -3.355743114821704 19.634182929518158 13.000000000000002
  endloop
endfacet
facet normal -0.9914448613738105 0.13052619222005143 -0.0
  outer loop
    vertex -3.355743114821704 19.634182929518158 0.0
    vertex -3.2875947673998405 20.1518210197232 13.000000000000002
    vertex -3.2875947673998405 20.1518210197232 0.0
  endloop
endfacet
facet normal -0.9238795325112871 0.38268343236508895 -0.0
  outer loop
    vertex -3.355743114821704 19.634182929518158 13.000000000000002
    vertex -3.555543959830963 19.1518210197232 0.0
    vertex -3.555543959830963 19.1518210197232 13.000000000000002
  endloop
endfacet
facet normal -0.9238795325112871 0.38268343236508895 -0.0
  outer loop
    vertex -3.555543959830963 19.1518210197232 0.0
    vertex -3.355743114821704 19.634182929518158 13.000000000000002
    vertex -3.355743114821704 19.634182929518158 0.0
  endloop
endfacet
facet normal -0.7933533402912347 0.6087614290087213 -0.0
  outer loop
    vertex -3.555543959830963 19.1518210197232 13.000000000000002
    vertex -3.873381205026745 18.737607457350105 0.0
    vertex -3.873381205026745 18.737607457350105 13.000000000000002
  endloop
endfacet
facet normal -0.7933533402912347 0.6087614290087213 -0.0
  outer loop
    vertex -3.873381205026745 18.737607457350105 0.0
    vertex -3.555543959830963 19.1518210197232 13.000000000000002
    vertex -3.555543959830963 19.1518210197232 0.0
  endloop
endfacet
facet normal -0.6087614290087179 0.7933533402912372 -0.0
  outer loop
    vertex -4.28759476739984 18.419770212154326 13.000000000000002
    vertex -3.873381205026745 18.737607457350105 0.0
    vertex -4.28759476739984 18.419770212154326 0.0
  endloop
endfacet
facet normal -0.6087614290087179 0.7933533402912372 -0.0
  outer loop
    vertex -3.873381205026745 18.737607457350105 0.0
    vertex -4.28759476739984 18.419770212154326 13.000000000000002
    vertex -3.873381205026745 18.737607457350105 13.000000000000002
  endloop
endfacet
facet normal -0.3826834323650914 0.9238795325112863 -0.0
  outer loop
    vertex -4.7699566771947985 18.219969367145065 13.000000000000002
    vertex -4.28759476739984 18.419770212154326 0.0
    vertex -4.7699566771947985 18.219969367145065 0.0
  endloop
endfacet
facet normal -0.3826834323650914 0.9238795325112863 -0.0
  outer loop
    vertex -4.28759476739984 18.419770212154326 0.0
    vertex -4.7699566771947985 18.219969367145065 13.000000000000002
    vertex -4.28759476739984 18.419770212154326 13.000000000000002
  endloop
endfacet
facet normal -0.1305261922200518 0.9914448613738104 -0.0
  outer loop
    vertex -5.28759476739984 18.1518210197232 13.000000000000002
    vertex -4.7699566771947985 18.219969367145065 0.0
    vertex -5.28759476739984 18.1518210197232 0.0
  endloop
endfacet
facet normal -0.1305261922200518 0.9914448613738104 -0.0
  outer loop
    vertex -4.7699566771947985 18.219969367145065 0.0
    vertex -5.28759476739984 18.1518210197232 13.000000000000002
    vertex -4.7699566771947985 18.219969367145065 13.000000000000002
  endloop
endfacet
facet normal 0.13052619222005143 0.9914448613738105 0.0
  outer loop
    vertex -5.805232857604882 18.219969367145065 13.000000000000002
    vertex -5.28759476739984 18.1518210197232 0.0
    vertex -5.805232857604882 18.219969367145065 0.0
  endloop
endfacet
facet normal 0.13052619222005143 0.9914448613738105 0.0
  outer loop
    vertex -5.28759476739984 18.1518210197232 0.0
    vertex -5.805232857604882 18.219969367145065 13.000000000000002
    vertex -5.28759476739984 18.1518210197232 13.000000000000002
  endloop
endfacet
facet normal 0.3826834323650917 0.9238795325112859 0.0
  outer loop
    vertex -6.28759476739984 18.419770212154326 13.000000000000002
    vertex -5.805232857604882 18.219969367145065 0.0
    vertex -6.28759476739984 18.419770212154326 0.0
  endloop
endfacet
facet normal 0.3826834323650917 0.9238795325112859 0.0
  outer loop
    vertex -5.805232857604882 18.219969367145065 0.0
    vertex -6.28759476739984 18.419770212154326 13.000000000000002
    vertex -5.805232857604882 18.219969367145065 13.000000000000002
  endloop
endfacet
facet normal 0.608761429008722 0.7933533402912342 0.0
  outer loop
    vertex -6.701808329772934 18.73760745735011 13.000000000000002
    vertex -6.28759476739984 18.419770212154326 0.0
    vertex -6.701808329772934 18.73760745735011 0.0
  endloop
endfacet
facet normal 0.608761429008722 0.7933533402912342 0.0
  outer loop
    vertex -6.28759476739984 18.419770212154326 0.0
    vertex -6.701808329772934 18.73760745735011 13.000000000000002
    vertex -6.28759476739984 18.419770212154326 13.000000000000002
  endloop
endfacet
facet normal 0.7933533402912347 0.6087614290087213 -0.0
  outer loop
    vertex -7.019645574968717 19.1518210197232 0.0
    vertex -6.701808329772934 18.73760745735011 13.000000000000002
    vertex -6.701808329772934 18.73760745735011 0.0
  endloop
endfacet
facet normal 0.7933533402912347 0.6087614290087213 -0.0
  outer loop
    vertex -6.701808329772934 18.73760745735011 13.000000000000002
    vertex -7.019645574968717 19.1518210197232 0.0
    vertex -7.019645574968717 19.1518210197232 13.000000000000002
  endloop
endfacet
facet normal 0.923879532511289 0.3826834323650844 -0.0
  outer loop
    vertex -7.064588401521292 19.260322601117814 0.0
    vertex -7.019645574968717 19.1518210197232 13.000000000000002
    vertex -7.019645574968717 19.1518210197232 0.0
  endloop
endfacet
facet normal 0.923879532511289 0.3826834323650844 -0.0
  outer loop
    vertex -7.019645574968717 19.1518210197232 13.000000000000002
    vertex -7.064588401521292 19.260322601117814 0.0
    vertex -7.064588401521292 19.260322601117814 13.000000000000002
  endloop
endfacet
facet normal 0.9238795325112865 0.38268343236509034 -0.0
  outer loop
    vertex -7.2194464199779755 19.63418292951816 0.0
    vertex -7.064588401521292 19.260322601117814 13.000000000000002
    vertex -7.064588401521292 19.260322601117814 0.0
  endloop
endfacet
facet normal 0.9238795325112865 0.38268343236509034 -0.0
  outer loop
    vertex -7.064588401521292 19.260322601117814 13.000000000000002
    vertex -7.2194464199779755 19.63418292951816 0.0
    vertex -7.2194464199779755 19.63418292951816 13.000000000000002
  endloop
endfacet
facet normal 3.6039631572371204e-07 4.273157791488183e-06 -0.9999999999908051
  outer loop
    vertex 17.712429340313406 25.66397348359841 12.000006026928315
    vertex 0.7124052326001409 25.65182101972315 11.999999999999998
    vertex 0.7124052326001409 25.90182101972315 12.0
  endloop
endfacet
facet normal 3.6039631572371204e-07 4.273157791488183e-06 -0.9999999999908051
  outer loop
    vertex 0.7124052326001409 25.65182101972315 11.999999999999998
    vertex 17.712429340313406 25.66397348359841 12.000006026928315
    vertex 8.71240523260014 25.65182101972315 11.999999999999998
  endloop
endfacet
facet normal 0.01393859104471228 0.9999024764072925 -0.0008679598218184953
  outer loop
    vertex 0.7124052326001409 25.90182101972315 12.999999999999998
    vertex 17.712429340313406 25.66397348359841 12.000006026928315
    vertex 0.7124052326001409 25.90182101972315 12.0
  endloop
endfacet
facet normal 0.01393859104471228 0.9999024764072925 -0.0008679598218184953
  outer loop
    vertex 17.712429340313406 25.66397348359841 12.000006026928315
    vertex 0.7124052326001409 25.90182101972315 12.999999999999998
    vertex 17.712405232600144 25.665709908612037 12.999999999999998
  endloop
endfacet
facet normal -0.0 -0.0 1.0
  outer loop
    vertex 17.712405232600144 25.665709908612037 12.999999999999998
    vertex 0.7124052326001409 25.90182101972315 12.999999999999998
    vertex 0.7124052326001409 25.65182101972315 12.999999999999998
  endloop
endfacet
facet normal 0.0 -1.0 0.0
  outer loop
    vertex 17.712405232600144 26.651821019723148 12.0
    vertex 8.712405232600144 26.651821019723148 8.999999999999998
    vertex 17.712405232600144 26.651821019723148 8.999999999999998
  endloop
endfacet
facet normal 0.0 -1.0 0.0
  outer loop
    vertex 8.712405232600144 26.651821019723148 8.999999999999998
    vertex 17.712405232600144 26.651821019723148 12.0
    vertex 8.712405232600144 26.651821019723148 11.999999999999998
  endloop
endfacet
facet normal -1.5666480458599432e-16 0.0 -1.0
  outer loop
    vertex 17.712405232600144 44.14513397163472 8.999999999999998
    vertex 8.712405232600144 26.651821019723148 8.999999999999998
    vertex 8.712405232600144 39.58495053883883 8.999999999999998
  endloop
endfacet
facet normal -1.5666480458599432e-16 0.0 -1.0
  outer loop
    vertex 8.712405232600144 26.651821019723148 8.999999999999998
    vertex 17.712405232600144 44.14513397163472 8.999999999999998
    vertex 17.712405232600144 26.651821019723148 8.999999999999998
  endloop
endfacet
facet normal -0.0 -0.0 1.0
  outer loop
    vertex 17.712405232600144 14.651821019723155 12.999999999999998
    vertex 0.7124052326001409 25.65182101972315 12.999999999999998
    vertex 0.7124052326001409 14.651821019723151 12.999999999999998
  endloop
endfacet
facet normal -0.0 -0.0 1.0
  outer loop
    vertex 0.7124052326001409 25.65182101972315 12.999999999999998
    vertex 17.712405232600144 14.651821019723155 12.999999999999998
    vertex 17.712405232600144 25.665709908612037 12.999999999999998
  endloop
endfacet
facet normal -0.0 -0.0 1.0
  outer loop
    vertex 17.712405232600144 -3.9592900913879605 12.999999999999998
    vertex 0.7124052326001409 3.739532715372636 12.999999999999998
    vertex 0.7124052326001409 2.6518210197231524 12.999999999999998
  endloop
endfacet
facet normal -0.0 -0.0 1.0
  outer loop
    vertex 0.7124052326001409 3.739532715372636 12.999999999999998
    vertex 17.712405232600144 -3.9592900913879605 12.999999999999998
    vertex 0.7124052326001409 13.651821019723151 12.999999999999998
  endloop
endfacet
facet normal -0.0 -0.0 1.0
  outer loop
    vertex 0.7124052326001409 13.651821019723151 12.999999999999998
    vertex 17.712405232600144 -3.9592900913879605 12.999999999999998
    vertex 17.712405232600144 13.651821019723151 12.999999999999998
  endloop
endfacet
facet normal -0.3624462611549484 -0.9320046715412961 2.2906791883941253e-16
  outer loop
    vertex 17.712405232600144 -3.9592900913879605 12.999999999999998
    vertex 8.712405232600144 -0.4592900913879606 8.999999999999998
    vertex 17.712405232600144 -3.9592900913879605 8.999999999999998
  endloop
endfacet
facet normal -0.3624462611549484 -0.9320046715412961 2.2906791883941253e-16
  outer loop
    vertex 8.712405232600144 -0.4592900913879606 8.999999999999998
    vertex 17.712405232600144 -3.9592900913879605 12.999999999999998
    vertex 8.712405232600144 -0.4592900913879606 11.999999999999998
  endloop
endfacet
facet normal -0.3624462611549484 -0.9320046715412961 2.2906791883941253e-16
  outer loop
    vertex 8.712405232600144 -0.4592900913879606 11.999999999999998
    vertex 17.712405232600144 -3.9592900913879605 12.999999999999998
    vertex 0.7124052326001409 2.6518210197231515 11.999999999999998
  endloop
endfacet
facet normal -0.3624462611549484 -0.9320046715412961 2.2906791883941253e-16
  outer loop
    vertex 0.7124052326001409 2.6518210197231515 11.999999999999998
    vertex 17.712405232600144 -3.9592900913879605 12.999999999999998
    vertex 0.7124052326001409 2.6518210197231524 12.999999999999998
  endloop
endfacet
facet normal 1.0 -0.0 -0.0
  outer loop
    vertex 17.712405232600144 13.651821019723151 8.999999999999998
    vertex 17.712405232600144 -3.9592900913879605 12.999999999999998
    vertex 17.712405232600144 -3.9592900913879605 8.999999999999998
  endloop
endfacet
facet normal 1.0 -0.0 -0.0
  outer loop
    vertex 17.712405232600144 -3.9592900913879605 12.999999999999998
    vertex 17.712405232600144 13.651821019723151 8.999999999999998
    vertex 17.712405232600144 13.651821019723151 12.999999999999998
  endloop
endfacet
facet normal 1.0 -0.0 -0.0
  outer loop
    vertex 17.712405232600144 13.651821019723151 12.999999999999998
    vertex 17.712405232600144 13.651821019723151 8.999999999999998
    vertex 17.712405232600144 13.651821019723151 12.0
  endloop
endfacet
facet normal 0.9999999999993048 -7.302613766551035e-07 -9.259083302844713e-07
  outer loop
    vertex 17.712405232600144 25.65182101972315 9.499999999999998
    vertex 17.712405232600144 14.651821019723155 12.0
    vertex 17.712405232600144 14.65182101972315 9.499999999999998
  endloop
endfacet
facet normal 0.9999999999993048 -7.302613766551035e-07 -9.259083302844713e-07
  outer loop
    vertex 17.712405232600144 14.651821019723155 12.0
    vertex 17.712405232600144 25.65182101972315 9.499999999999998
    vertex 17.712405232600144 14.651821019723155 12.999999999999998
  endloop
endfacet
facet normal 0.9999999999993048 -7.302613766551035e-07 -9.259083302844713e-07
  outer loop
    vertex 17.712405232600144 14.651821019723155 12.999999999999998
    vertex 17.712405232600144 25.65182101972315 9.499999999999998
    vertex 17.712405232600144 25.665709908612037 12.999999999999998
  endloop
endfacet
facet normal 0.9999999999993048 -7.302613766551035e-07 -9.259083302844713e-07
  outer loop
    vertex 17.712405232600144 25.665709908612037 12.999999999999998
    vertex 17.712405232600144 25.65182101972315 9.499999999999998
    vertex 17.712429340313406 25.66397348359841 12.000006026928315
  endloop
endfacet
facet normal -0.451979260104038 0.8920284459790542 7.308085674723051e-16
  outer loop
    vertex 0.7124052326001409 35.531454154131374 12.999999999999998
    vertex 8.712405232600144 39.58495053883883 11.999999999999998
    vertex 0.7124052326001409 35.531454154131374 11.999999999999996
  endloop
endfacet
facet normal -0.451979260104038 0.8920284459790542 7.308085674723051e-16
  outer loop
    vertex 8.712405232600144 39.58495053883883 8.999999999999998
    vertex 17.712405232600144 44.14513397163472 12.999999999999998
    vertex 17.712405232600144 44.14513397163472 8.999999999999998
  endloop
endfacet
facet normal -0.451979260104038 0.8920284459790542 7.308085674723051e-16
  outer loop
    vertex 17.712405232600144 44.14513397163472 12.999999999999998
    vertex 8.712405232600144 39.58495053883883 8.999999999999998
    vertex 8.712405232600144 39.58495053883883 11.999999999999998
  endloop
endfacet
facet normal -0.451979260104038 0.8920284459790542 7.308085674723051e-16
  outer loop
    vertex 17.712405232600144 44.14513397163472 12.999999999999998
    vertex 8.712405232600144 39.58495053883883 11.999999999999998
    vertex 0.7124052326001409 35.531454154131374 12.999999999999998
  endloop
endfacet
facet normal 1.0 -0.0 -0.0
  outer loop
    vertex 17.712405232600144 44.14513397163472 8.999999999999998
    vertex 17.712405232600144 26.651821019723148 12.0
    vertex 17.712405232600144 26.651821019723148 8.999999999999998
  endloop
endfacet
facet normal 1.0 -0.0 -0.0
  outer loop
    vertex 17.712405232600144 26.651821019723148 12.0
    vertex 17.712405232600144 44.14513397163472 8.999999999999998
    vertex 17.712405232600144 26.651821019723148 12.999999999999998
  endloop
endfacet
facet normal 1.0 -0.0 -0.0
  outer loop
    vertex 17.712405232600144 26.651821019723148 12.999999999999998
    vertex 17.712405232600144 44.14513397163472 8.999999999999998
    vertex 17.712405232600144 44.14513397163472 12.999999999999998
  endloop
endfacet
facet normal -0.0 -0.0 1.0
  outer loop
    vertex 17.712405232600144 26.651821019723148 12.999999999999998
    vertex 0.7124052326001409 35.531454154131374 12.999999999999998
    vertex 0.7124052326001409 26.651821019723148 12.999999999999998
  endloop
endfacet
facet normal -0.0 -0.0 1.0
  outer loop
    vertex 0.7124052326001409 35.531454154131374 12.999999999999998
    vertex 17.712405232600144 26.651821019723148 12.999999999999998
    vertex 17.712405232600144 44.14513397163472 12.999999999999998
  endloop
endfacet
facet normal -1.5666480458599422e-16 1.0633982749699263e-32 -1.0
  outer loop
    vertex 8.71240523260014 25.65182101972315 9.5
    vertex 17.712405232600144 14.65182101972315 9.499999999999998
    vertex 8.712405232600139 14.651821019723151 9.5
  endloop
endfacet
facet normal -1.5666480458599422e-16 1.0633982749699263e-32 -1.0
  outer loop
    vertex 17.712405232600144 14.65182101972315 9.499999999999998
    vertex 8.71240523260014 25.65182101972315 9.5
    vertex 17.712405232600144 25.65182101972315 9.499999999999998
  endloop
endfacet
facet normal -0.0013502497085841234 0.9999872741625834 -0.004860898950902846
  outer loop
    vertex 17.712429340313406 25.66397348359841 12.000006026928315
    vertex 17.712405232600144 25.65182101972315 9.499999999999998
    vertex 8.71240523260014 25.65182101972315 11.999999999999998
  endloop
endfacet
facet normal -0.0 1.0 -0.0
  outer loop
    vertex 8.71240523260014 25.65182101972315 11.999999999999998
    vertex 17.712405232600144 25.65182101972315 9.499999999999998
    vertex 8.71240523260014 25.65182101972315 9.5
  endloop
endfacet
endsolid cruise-inner
