solid cruise-inner
facet normal 1.0 -0.0 -0.0
  outer loop
    vertex 0.7124052326001409 36.031454154131374 10.0
    vertex 0.7124052326001409 26.15182101972315 11.0
    vertex 0.7124052326001409 26.15182101972315 10.0
  endloop
endfacet
facet normal 1.0 -0.0 -0.0
  outer loop
    vertex 0.7124052326001409 26.15182101972315 11.0
    vertex 0.7124052326001409 36.031454154131374 10.0
    vertex 0.7124052326001409 36.031454154131374 11.0
  endloop
endfacet
facet normal -0.733298308116592 0.6799070460830242 4.2953161321492975e-18
  outer loop
    vertex 0.7124052326001409 36.031454154131374 11.0
    vertex -0.4200145546020989 34.81010850281457 0.0
    vertex -0.4200145546020989 34.81010850281457 11.0
  endloop
endfacet
facet normal -0.733298308116592 0.6799070460830242 4.2953161321492975e-18
  outer loop
    vertex -0.4200145546020989 34.81010850281457 0.0
    vertex 0.7124052326001409 36.031454154131374 11.0
    vertex 0.7124052326001409 36.031454154131374 0.0
  endloop
endfacet
facet normal -0.733298308116592 0.6799070460830242 4.2953161321492975e-18
  outer loop
    vertex 0.7124052326001409 36.031454154131374 0.0
    vertex 0.7124052326001409 36.031454154131374 11.0
    vertex 0.7124052326001409 36.031454154131374 10.0
  endloop
endfacet
facet normal 1.0 -0.0 -0.0
  outer loop
    vertex 0.7124052326001409 14.151821019723222 0.0
    vertex 0.7124052326001409 13.651821019723151 7.999999999999999
    vertex 0.7124052326001409 13.651821019723151 0.0
  endloop
endfacet
facet normal 1.0 -0.0 -0.0
  outer loop
    vertex 0.7124052326001409 13.651821019723151 7.999999999999999
    vertex 0.7124052326001409 14.151821019723222 0.0
    vertex 0.7124052326001409 14.151821019723222 7.999999999999999
  endloop
endfacet
facet normal -0.0 -0.0 1.0
  outer loop
    vertex -6.474948986358175 16.903158472217573 11.0
    vertex -6.585885868434371 23.29298943414716 11.0
    vertex -7.2875947673998445 20.1518210197232 11.0
  endloop
endfacet
facet normal -0.0 -0.0 1.0
  outer loop
    vertex -6.585885868434371 23.29298943414716 11.0
    vertex -6.474948986358175 16.903158472217573 11.0
    vertex -5.554543529193195 26.34186912445156 11.0
  endloop
endfacet
facet normal -0.0 -0.0 1.0
  outer loop
    vertex -5.554543529193195 26.34186912445156 11.0
    vertex -6.474948986358175 16.903158472217573 11.0
    vertex -5.368858740423223 13.742341191693805 11.0
  endloop
endfacet
facet normal -0.0 -0.0 1.0
  outer loop
    vertex -5.554543529193195 26.34186912445156 11.0
    vertex -5.368858740423223 13.742341191693805 11.0
    vertex -4.205233360670178 29.263973923356417 11.0
  endloop
endfacet
facet normal -0.0 -0.0 1.0
  outer loop
    vertex -4.205233360670178 29.263973923356417 11.0
    vertex -5.368858740423223 13.742341191693805 11.0
    vertex -3.978578412566562 10.695814953010585 11.0
  endloop
endfacet
facet normal -0.0 -0.0 1.0
  outer loop
    vertex -4.205233360670178 29.263973923356417 11.0
    vertex -3.978578412566562 10.695814953010585 11.0
    vertex -2.5532175381267264 32.026251626399386 11.0
  endloop
endfacet
facet normal -0.0 -0.0 1.0
  outer loop
    vertex -2.5532175381267264 32.026251626399386 11.0
    vertex -3.978578412566562 10.695814953010585 11.0
    vertex -2.3157401337462113 7.789069286203768 11.0
  endloop
endfacet
facet normal -0.0 -0.0 1.0
  outer loop
    vertex -2.5532175381267264 32.026251626399386 11.0
    vertex -2.3157401337462113 7.789069286203768 11.0
    vertex -0.61718216918016 34.59745784855469 11.0
  endloop
endfacet
facet normal -0.0 -0.0 1.0
  outer loop
    vertex -0.61718216918016 34.59745784855469 11.0
    vertex -2.3157401337462113 7.789069286203768 11.0
    vertex -0.3942564597492684 5.046424211905337 11.0
  endloop
endfacet
facet normal -0.0 -0.0 1.0
  outer loop
    vertex -0.61718216918016 34.59745784855469 11.0
    vertex -0.3942564597492684 5.046424211905337 11.0
    vertex -0.4200145546020989 34.81010850281457 11.0
  endloop
endfacet
facet normal -0.0 -0.0 1.0
  outer loop
    vertex -0.4200145546020989 34.81010850281457 11.0
    vertex -0.3942564597492684 5.046424211905337 11.0
    vertex 0.7124052326001409 36.031454154131374 11.0
  endloop
endfacet
facet normal -0.0 -0.0 1.0
  outer loop
    vertex 0.7124052326001409 36.031454154131374 11.0
    vertex -0.3942564597492684 5.046424211905337 11.0
    vertex 0.7124052326001409 3.739532715372636 11.0
  endloop
endfacet
facet normal -0.0 -0.0 1.0
  outer loop
    vertex 0.7124052326001409 36.031454154131374 11.0
    vertex 0.7124052326001409 3.739532715372636 11.0
    vertex 0.7124052326001409 14.151821019723222 11.0
  endloop
endfacet
facet normal -0.0 -0.0 1.0
  outer loop
    vertex 0.7124052326001409 36.031454154131374 11.0
    vertex 0.7124052326001409 14.151821019723222 11.0
    vertex 0.7124052326001409 26.15182101972315 11.0
  endloop
endfacet
facet normal 1.0 -0.0 -0.0
  outer loop
    vertex 0.7124052326001409 26.15182101972315 0.0
    vertex 0.7124052326001409 25.65182101972315 7.999999999999999
    vertex 0.7124052326001409 25.65182101972315 0.0
  endloop
endfacet
facet normal 1.0 -0.0 -0.0
  outer loop
    vertex 0.7124052326001409 25.65182101972315 7.999999999999999
    vertex 0.7124052326001409 26.15182101972315 0.0
    vertex 0.7124052326001409 26.15182101972315 7.999999999999999
  endloop
endfacet
facet normal -0.9485241864597512 -0.31670470110319965 0.0
  outer loop
    vertex -9.447428989389923 16.510073370831527 11.0
    vertex -8.263774902655042 12.965053275584767 0.0
    vertex -8.263774902655042 12.965053275584767 11.0
  endloop
endfacet
facet normal -0.9485241864597512 -0.31670470110319965 0.0
  outer loop
    vertex -8.263774902655042 12.965053275584767 0.0
    vertex -9.447428989389923 16.510073370831527 11.0
    vertex -9.447428989389923 16.510073370831527 0.0
  endloop
endfacet
facet normal -0.9516235464751348 0.3072663759575506 0.0
  outer loop
    vertex -8.449727065984282 27.12206763262542 11.0
    vertex -9.558835457165726 23.687088268702997 0.0
    vertex -9.558835457165726 23.687088268702997 11.0
  endloop
endfacet
facet normal -0.9516235464751348 0.3072663759575506 0.0
  outer loop
    vertex -9.558835457165726 23.687088268702997 0.0
    vertex -8.449727065984282 27.12206763262542 11.0
    vertex -8.449727065984282 27.12206763262542 0.0
  endloop
endfacet
facet normal -0.9139960810967723 -0.40572301356928553 0.0
  outer loop
    vertex -8.263774902655042 12.965053275584767 11.0
    vertex -6.747423230511137 9.549078732480892 0.0
    vertex -6.747423230511137 9.549078732480892 11.0
  endloop
endfacet
facet normal -0.9139960810967723 -0.40572301356928553 0.0
  outer loop
    vertex -6.747423230511137 9.549078732480892 0.0
    vertex -8.263774902655042 12.965053275584767 11.0
    vertex -8.263774902655042 12.965053275584767 0.0
  endloop
endfacet
facet normal -0.9744051184895477 -0.22479916606022027 0.0
  outer loop
    vertex -10.287594767399838 20.1518210197232 11.0
    vertex -9.447428989389923 16.510073370831527 0.0
    vertex -9.447428989389923 16.510073370831527 11.0
  endloop
endfacet
facet normal -0.9744051184895477 -0.22479916606022027 0.0
  outer loop
    vertex -9.447428989389923 16.510073370831527 0.0
    vertex -10.287594767399838 20.1518210197232 11.0
    vertex -10.287594767399838 20.1518210197232 0.0
  endloop
endfacet
facet normal -0.7620527098746442 -0.6475149939365972 0.0
  outer loop
    vertex -2.774829104322869 3.22737220957916 11.0
    vertex -0.35480260605686487 0.379271751302155 0.0
    vertex -0.35480260605686487 0.379271751302155 11.0
  endloop
endfacet
facet normal -0.7620527098746442 -0.6475149939365972 0.0
  outer loop
    vertex -0.35480260605686487 0.379271751302155 0.0
    vertex -2.774829104322869 3.22737220957916 11.0
    vertex -2.774829104322869 3.22737220957916 0.0
  endloop
endfacet
facet normal 0.0 0.0 -1.0
  outer loop
    vertex -6.585885868434371 23.29298943414716 0.0
    vertex -6.474948986358175 16.903158472217573 0.0
    vertex -7.2875947673998445 20.1518210197232 0.0
  endloop
endfacet
facet normal 0.0 0.0 -1.0
  outer loop
    vertex -6.474948986358175 16.903158472217573 0.0
    vertex -6.585885868434371 23.29298943414716 0.0
    vertex -5.554543529193195 26.34186912445156 0.0
  endloop
endfacet
facet normal 0.0 0.0 -1.0
  outer loop
    vertex -6.474948986358175 16.903158472217573 0.0
    vertex -5.554543529193195 26.34186912445156 0.0
    vertex -5.368858740423223 13.742341191693805 0.0
  endloop
endfacet
facet normal 0.0 0.0 -1.0
  outer loop
    vertex -5.368858740423223 13.742341191693805 0.0
    vertex -5.554543529193195 26.34186912445156 0.0
    vertex -4.205233360670178 29.263973923356417 0.0
  endloop
endfacet
facet normal 0.0 0.0 -1.0
  outer loop
    vertex -5.368858740423223 13.742341191693805 0.0
    vertex -4.205233360670178 29.263973923356417 0.0
    vertex -3.978578412566562 10.695814953010585 0.0
  endloop
endfacet
facet normal 0.0 0.0 -1.0
  outer loop
    vertex -3.978578412566562 10.695814953010585 0.0
    vertex -4.205233360670178 29.263973923356417 0.0
    vertex -2.5532175381267264 32.026251626399386 0.0
  endloop
endfacet
facet normal 0.0 0.0 -1.0
  outer loop
    vertex -3.978578412566562 10.695814953010585 0.0
    vertex -2.5532175381267264 32.026251626399386 0.0
    vertex -2.3157401337462113 7.789069286203768 0.0
  endloop
endfacet
facet normal 0.0 0.0 -1.0
  outer loop
    vertex -2.3157401337462113 7.789069286203768 0.0
    vertex -2.5532175381267264 32.026251626399386 0.0
    vertex -0.61718216918016 34.59745784855469 0.0
  endloop
endfacet
facet normal 0.0 0.0 -1.0
  outer loop
    vertex -2.3157401337462113 7.789069286203768 0.0
    vertex -0.61718216918016 34.59745784855469 0.0
    vertex -0.3942564597492684 5.046424211905337 0.0
  endloop
endfacet
facet normal 0.0 0.0 -1.0
  outer loop
    vertex -0.3942564597492684 5.046424211905337 0.0
    vertex -0.61718216918016 34.59745784855469 0.0
    vertex -0.4200145546020989 34.81010850281457 0.0
  endloop
endfacet
facet normal 0.0 0.0 -1.0
  outer loop
    vertex -0.3942564597492684 5.046424211905337 0.0
    vertex -0.4200145546020989 34.81010850281457 0.0
    vertex 0.7124052326001409 36.031454154131374 0.0
  endloop
endfacet
facet normal 0.0 0.0 -1.0
  outer loop
    vertex -0.3942564597492684 5.046424211905337 0.0
    vertex 0.7124052326001409 36.031454154131374 0.0
    vertex 0.7124052326001409 3.739532715372636 0.0
  endloop
endfacet
facet normal 0.0 0.0 -1.0
  outer loop
    vertex 0.7124052326001409 3.739532715372636 0.0
    vertex 0.7124052326001409 36.031454154131374 0.0
    vertex 0.7124052326001409 35.531454154131374 0.0
  endloop
endfacet
facet normal 0.0 0.0 -1.0
  outer loop
    vertex 0.7124052326001409 3.739532715372636 0.0
    vertex 0.7124052326001409 35.531454154131374 0.0
    vertex 0.7124052326001409 26.651821019723148 0.0
  endloop
endfacet
facet normal 0.0 0.0 -1.0
  outer loop
    vertex 0.7124052326001409 3.739532715372636 0.0
    vertex 0.7124052326001409 26.651821019723148 0.0
    vertex 0.7124052326001409 26.15182101972315 0.0
  endloop
endfacet
facet normal 0.0 0.0 -1.0
  outer loop
    vertex 0.7124052326001409 3.739532715372636 0.0
    vertex 0.7124052326001409 26.15182101972315 0.0
    vertex 0.7124052326001409 25.65182101972315 0.0
  endloop
endfacet
facet normal 0.0 0.0 -1.0
  outer loop
    vertex 0.7124052326001409 3.739532715372636 0.0
    vertex 0.7124052326001409 25.65182101972315 0.0
    vertex 0.7124052326001409 14.651821019723151 0.0
  endloop
endfacet
facet normal 0.0 0.0 -1.0
  outer loop
    vertex 0.7124052326001409 3.739532715372636 0.0
    vertex 0.7124052326001409 14.651821019723151 0.0
    vertex 0.7124052326001409 14.151821019723222 0.0
  endloop
endfacet
facet normal 0.0 0.0 -1.0
  outer loop
    vertex 0.7124052326001409 3.739532715372636 0.0
    vertex 0.7124052326001409 14.151821019723222 0.0
    vertex 0.7124052326001409 13.651821019723151 0.0
  endloop
endfacet
facet normal -0.7302714135188858 -0.6831571287757515 0.0
  outer loop
    vertex -0.35480260605686487 0.379271751302155 11.0
    vertex 0.0 0.0 0.0
    vertex 0.0 0.0 11.0
  endloop
endfacet
facet normal -0.7302714135188858 -0.6831571287757515 0.0
  outer loop
    vertex 0.0 0.0 0.0
    vertex -0.35480260605686487 0.379271751302155 11.0
    vertex -0.35480260605686487 0.379271751302155 0.0
  endloop
endfacet
facet normal -0.9125392594157951 0.4089891196900872 0.0
  outer loop
    vertex -6.973440364790339 30.415968394615692 11.0
    vertex -8.449727065984282 27.12206763262542 0.0
    vertex -8.449727065984282 27.12206763262542 11.0
  endloop
endfacet
facet normal -0.9125392594157951 0.4089891196900872 0.0
  outer loop
    vertex -8.449727065984282 27.12206763262542 0.0
    vertex -6.973440364790339 30.415968394615692 11.0
    vertex -6.973440364790339 30.415968394615692 0.0
  endloop
endfacet
facet normal -0.736060239871213 0.6769160385754887 -6.838085127827393e-20
  outer loop
    vertex -2.611338271056381 36.841882500620216 11.0
    vertex -2.9936083254083137 36.42621235562854 0.0
    vertex -2.9936083254083137 36.42621235562854 11.0
  endloop
endfacet
facet normal -0.736060239871213 0.6769160385754887 -6.838085127827393e-20
  outer loop
    vertex -2.9936083254083137 36.42621235562854 0.0
    vertex -2.611338271056381 36.841882500620216 11.0
    vertex -2.611338271056381 36.841882500620216 -3.524958103184922e-16
  endloop
endfacet
facet normal 0.6799070460830389 0.7332983081165786 6.782549964512518e-18
  outer loop
    vertex -2.611338271056381 36.841882500620216 11.0
    vertex -0.4200145546020989 34.81010850281457 0.0
    vertex -2.611338271056381 36.841882500620216 -3.524958103184922e-16
  endloop
endfacet
facet normal 0.6799070460830389 0.7332983081165786 6.782549964512518e-18
  outer loop
    vertex -0.4200145546020989 34.81010850281457 0.0
    vertex -2.611338271056381 36.841882500620216 11.0
    vertex -0.4200145546020989 34.81010850281457 11.0
  endloop
endfacet
facet normal -0.8626184791422858 0.5058550775096066 0.0
  outer loop
    vertex -5.1475064029657425 33.52967516003502 11.0
    vertex -6.973440364790339 30.415968394615692 0.0
    vertex -6.973440364790339 30.415968394615692 11.0
  endloop
endfacet
facet normal -0.8626184791422858 0.5058550775096066 0.0
  outer loop
    vertex -6.973440364790339 30.415968394615692 0.0
    vertex -5.1475064029657425 33.52967516003502 11.0
    vertex -5.1475064029657425 33.52967516003502 0.0
  endloop
endfacet
facet normal -0.8024540198169466 0.5967139566656906 0.0
  outer loop
    vertex -2.9936083254083137 36.42621235562854 11.0
    vertex -5.1475064029657425 33.52967516003502 0.0
    vertex -5.1475064029657425 33.52967516003502 11.0
  endloop
endfacet
facet normal -0.8024540198169466 0.5967139566656906 0.0
  outer loop
    vertex -5.1475064029657425 33.52967516003502 0.0
    vertex -2.9936083254083137 36.42621235562854 11.0
    vertex -2.9936083254083137 36.42621235562854 0.0
  endloop
endfacet
facet normal -0.979407210577791 0.20189481387155728 0.0
  outer loop
    vertex -9.558835457165726 23.687088268702997 11.0
    vertex -10.287594767399838 20.1518210197232 0.0
    vertex -10.287594767399838 20.1518210197232 11.0
  endloop
endfacet
facet normal -0.979407210577791 0.20189481387155728 0.0
  outer loop
    vertex -10.287594767399838 20.1518210197232 0.0
    vertex -9.558835457165726 23.687088268702997 11.0
    vertex -9.558835457165726 23.687088268702997 0.0
  endloop
endfacet
facet normal 1.0 -0.0 -0.0
  outer loop
    vertex 0.7124052326001409 26.15182101972315 10.0
    vertex 0.7124052326001409 14.151821019723222 11.0
    vertex 0.7124052326001409 14.151821019723222 10.0
  endloop
endfacet
facet normal 1.0 -0.0 -0.0
  outer loop
    vertex 0.7124052326001409 14.151821019723222 11.0
    vertex 0.7124052326001409 26.15182101972315 10.0
    vertex 0.7124052326001409 26.15182101972315 11.0
  endloop
endfacet
facet normal 1.0 -0.0 -0.0
  outer loop
    vertex 0.7124052326001409 14.151821019723222 10.0
    vertex 0.7124052326001409 3.739532715372636 11.0
    vertex 0.7124052326001409 3.739532715372636 10.0
  endloop
endfacet
facet normal 1.0 -0.0 -0.0
  outer loop
    vertex 0.7124052326001409 3.739532715372636 11.0
    vertex 0.7124052326001409 14.151821019723222 10.0
    vertex 0.7124052326001409 14.151821019723222 11.0
  endloop
endfacet
facet normal 1.0 -0.0 -0.0
  outer loop
    vertex 0.7124052326001409 26.651821019723148 0.0
    vertex 0.7124052326001409 26.15182101972315 7.999999999999999
    vertex 0.7124052326001409 26.15182101972315 0.0
  endloop
endfacet
facet normal 1.0 -0.0 -0.0
  outer loop
    vertex 0.7124052326001409 26.15182101972315 7.999999999999999
    vertex 0.7124052326001409 26.651821019723148 0.0
    vertex 0.7124052326001409 26.651821019723148 7.999999999999999
  endloop
endfacet
facet normal -0.8711355761472427 -0.4910425724625222 0.0
  outer loop
    vertex -6.747423230511137 9.549078732480892 11.0
    vertex -4.912197717181393 6.293291302692112 0.0
    vertex -4.912197717181393 6.293291302692112 11.0
  endloop
endfacet
facet normal -0.8711355761472427 -0.4910425724625222 0.0
  outer loop
    vertex -4.912197717181393 6.293291302692112 0.0
    vertex -6.747423230511137 9.549078732480892 11.0
    vertex -6.747423230511137 9.549078732480892 0.0
  endloop
endfacet
facet normal -0.820333407262104 -0.5718855662890495 0.0
  outer loop
    vertex -4.912197717181393 6.293291302692112 11.0
    vertex -2.774829104322869 3.22737220957916 0.0
    vertex -2.774829104322869 3.22737220957916 11.0
  endloop
endfacet
facet normal -0.820333407262104 -0.5718855662890495 0.0
  outer loop
    vertex -2.774829104322869 3.22737220957916 0.0
    vertex -4.912197717181393 6.293291302692112 11.0
    vertex -4.912197717181393 6.293291302692112 0.0
  endloop
endfacet
facet normal 1.0 -0.0 -0.0
  outer loop
    vertex 0.7124052326001409 36.031454154131374 0.0
    vertex 0.7124052326001409 35.531454154131374 7.999999999999999
    vertex 0.7124052326001409 35.531454154131374 0.0
  endloop
endfacet
facet normal 1.0 -0.0 -0.0
  outer loop
    vertex 0.7124052326001409 35.531454154131374 7.999999999999999
    vertex 0.7124052326001409 36.031454154131374 0.0
    vertex 0.7124052326001409 35.531454154131374 9.0
  endloop
endfacet
facet normal 1.0 -0.0 -0.0
  outer loop
    vertex 0.7124052326001409 26.651821019723148 8.5
    vertex 0.7124052326001409 26.15182101972315 10.0
    vertex 0.7124052326001409 26.15182101972315 8.500000000000002
  endloop
endfacet
facet normal 1.0 -0.0 -0.0
  outer loop
    vertex 0.7124052326001409 26.15182101972315 10.0
    vertex 0.7124052326001409 26.651821019723148 8.5
    vertex 0.7124052326001409 26.651821019723148 9.0
  endloop
endfacet
facet normal 1.0 -0.0 -0.0
  outer loop
    vertex 0.7124052326001409 26.15182101972315 10.0
    vertex 0.7124052326001409 26.651821019723148 9.0
    vertex 0.7124052326001409 36.031454154131374 10.0
  endloop
endfacet
facet normal 1.0 -0.0 -0.0
  outer loop
    vertex 0.7124052326001409 36.031454154131374 10.0
    vertex 0.7124052326001409 26.651821019723148 9.0
    vertex 0.7124052326001409 35.531454154131374 9.0
  endloop
endfacet
facet normal 1.0 -0.0 -0.0
  outer loop
    vertex 0.7124052326001409 36.031454154131374 10.0
    vertex 0.7124052326001409 35.531454154131374 9.0
    vertex 0.7124052326001409 36.031454154131374 0.0
  endloop
endfacet
facet normal 1.0 -0.0 -0.0
  outer loop
    vertex 0.7124052326001409 25.65182101972315 0.0
    vertex 0.7124052326001409 14.651821019723151 7.999999999999999
    vertex 0.7124052326001409 14.651821019723151 0.0
  endloop
endfacet
facet normal 1.0 -0.0 -0.0
  outer loop
    vertex 0.7124052326001409 14.651821019723151 7.999999999999999
    vertex 0.7124052326001409 25.65182101972315 0.0
    vertex 0.7124052326001409 25.65182101972315 7.999999999999999
  endloop
endfacet
facet normal 1.0 -0.0 -0.0
  outer loop
    vertex 0.7124052326001409 14.651821019723151 0.0
    vertex 0.7124052326001409 14.151821019723222 7.999999999999999
    vertex 0.7124052326001409 14.151821019723222 0.0
  endloop
endfacet
facet normal 1.0 -0.0 -0.0
  outer loop
    vertex 0.7124052326001409 14.151821019723222 7.999999999999999
    vertex 0.7124052326001409 14.651821019723151 0.0
    vertex 0.7124052326001409 14.651821019723151 7.999999999999999
  endloop
endfacet
facet normal 1.0 -0.0 -0.0
  outer loop
    vertex 0.7124052326001409 26.651821019723148 7.999999999999999
    vertex 0.7124052326001409 26.15182101972315 8.500000000000002
    vertex 0.7124052326001409 26.15182101972315 7.999999999999999
  endloop
endfacet
facet normal 1.0 -0.0 -0.0
  outer loop
    vertex 0.7124052326001409 26.15182101972315 8.500000000000002
    vertex 0.7124052326001409 26.651821019723148 7.999999999999999
    vertex 0.7124052326001409 26.651821019723148 8.5
  endloop
endfacet
facet normal 1.0 -0.0 -0.0
  outer loop
    vertex 0.7124052326001409 14.151821019723222 7.999999999999999
    vertex 0.7124052326001409 13.651821019723151 8.5
    vertex 0.7124052326001409 13.651821019723151 7.999999999999999
  endloop
endfacet
facet normal 1.0 -0.0 -0.0
  outer loop
    vertex 0.7124052326001409 13.651821019723151 8.5
    vertex 0.7124052326001409 14.151821019723222 7.999999999999999
    vertex 0.7124052326001409 14.151821019723222 8.5
  endloop
endfacet
facet normal 1.0 -0.0 -0.0
  outer loop
    vertex 0.7124052326001409 14.651821019723151 7.999999999999999
    vertex 0.7124052326001409 14.151821019723222 8.5
    vertex 0.7124052326001409 14.151821019723222 7.999999999999999
  endloop
endfacet
facet normal 1.0 -0.0 -0.0
  outer loop
    vertex 0.7124052326001409 14.151821019723222 8.5
    vertex 0.7124052326001409 14.651821019723151 7.999999999999999
    vertex 0.7124052326001409 14.651821019723151 8.5
  endloop
endfacet
facet normal 1.0 -0.0 -0.0
  outer loop
    vertex 0.7124052326001409 26.15182101972315 7.999999999999999
    vertex 0.7124052326001409 25.65182101972315 8.5
    vertex 0.7124052326001409 25.65182101972315 7.999999999999999
  endloop
endfacet
facet normal 1.0 -0.0 -0.0
  outer loop
    vertex 0.7124052326001409 25.65182101972315 8.5
    vertex 0.7124052326001409 26.15182101972315 7.999999999999999
    vertex 0.7124052326001409 26.15182101972315 8.500000000000002
  endloop
endfacet
facet normal -0.0 -0.0 1.0
  outer loop
    vertex -6.747423230511137 9.549078732480892 11.0
    vertex -7.2875947673998445 20.1518210197232 11.0
    vertex -8.263774902655042 12.965053275584767 11.0
  endloop
endfacet
facet normal -0.0 -0.0 1.0
  outer loop
    vertex -7.2875947673998445 20.1518210197232 11.0
    vertex -6.747423230511137 9.549078732480892 11.0
    vertex -6.474948986358175 16.903158472217573 11.0
  endloop
endfacet
facet normal -0.0 -0.0 1.0
  outer loop
    vertex -6.474948986358175 16.903158472217573 11.0
    vertex -6.747423230511137 9.549078732480892 11.0
    vertex -4.912197717181393 6.293291302692112 11.0
  endloop
endfacet
facet normal -0.0 -0.0 1.0
  outer loop
    vertex -6.474948986358175 16.903158472217573 11.0
    vertex -4.912197717181393 6.293291302692112 11.0
    vertex -5.368858740423223 13.742341191693805 11.0
  endloop
endfacet
facet normal -0.0 -0.0 1.0
  outer loop
    vertex -5.368858740423223 13.742341191693805 11.0
    vertex -4.912197717181393 6.293291302692112 11.0
    vertex -3.978578412566562 10.695814953010585 11.0
  endloop
endfacet
facet normal -0.0 -0.0 1.0
  outer loop
    vertex -3.978578412566562 10.695814953010585 11.0
    vertex -4.912197717181393 6.293291302692112 11.0
    vertex -2.774829104322869 3.22737220957916 11.0
  endloop
endfacet
facet normal -0.0 -0.0 1.0
  outer loop
    vertex -3.978578412566562 10.695814953010585 11.0
    vertex -2.774829104322869 3.22737220957916 11.0
    vertex -2.3157401337462113 7.789069286203768 11.0
  endloop
endfacet
facet normal -0.0 -0.0 1.0
  outer loop
    vertex -2.3157401337462113 7.789069286203768 11.0
    vertex -2.774829104322869 3.22737220957916 11.0
    vertex -0.35480260605686487 0.379271751302155 11.0
  endloop
endfacet
facet normal -0.0 -0.0 1.0
  outer loop
    vertex -2.3157401337462113 7.789069286203768 11.0
    vertex -0.35480260605686487 0.379271751302155 11.0
    vertex -0.3942564597492684 5.046424211905337 11.0
  endloop
endfacet
facet normal -0.0 -0.0 1.0
  outer loop
    vertex -0.3942564597492684 5.046424211905337 11.0
    vertex -0.35480260605686487 0.379271751302155 11.0
    vertex 0.7124052326001409 3.739532715372636 11.0
  endloop
endfacet
facet normal -0.0 -0.0 1.0
  outer loop
    vertex 0.7124052326001409 3.739532715372636 11.0
    vertex -0.35480260605686487 0.379271751302155 11.0
    vertex 0.0 0.0 11.0
  endloop
endfacet
facet normal -0.0 -0.0 1.0
  outer loop
    vertex 0.7124052326001409 3.739532715372636 11.0
    vertex 0.0 0.0 11.0
    vertex 0.7124052326001407 0.7672056351078417 11.0
  endloop
endfacet
facet normal -0.0 -0.0 1.0
  outer loop
    vertex -9.447428989389923 16.510073370831527 11.0
    vertex -9.558835457165726 23.687088268702997 11.0
    vertex -10.287594767399838 20.1518210197232 11.0
  endloop
endfacet
facet normal -0.0 -0.0 1.0
  outer loop
    vertex -9.558835457165726 23.687088268702997 11.0
    vertex -9.447428989389923 16.510073370831527 11.0
    vertex -8.449727065984282 27.12206763262542 11.0
  endloop
endfacet
facet normal -0.0 -0.0 1.0
  outer loop
    vertex -8.449727065984282 27.12206763262542 11.0
    vertex -9.447428989389923 16.510073370831527 11.0
    vertex -8.263774902655042 12.965053275584767 11.0
  endloop
endfacet
facet normal -0.0 -0.0 1.0
  outer loop
    vertex -8.449727065984282 27.12206763262542 11.0
    vertex -8.263774902655042 12.965053275584767 11.0
    vertex -6.973440364790339 30.415968394615692 11.0
  endloop
endfacet
facet normal -0.0 -0.0 1.0
  outer loop
    vertex -6.973440364790339 30.415968394615692 11.0
    vertex -8.263774902655042 12.965053275584767 11.0
    vertex -7.2875947673998445 20.1518210197232 11.0
  endloop
endfacet
facet normal -0.0 -0.0 1.0
  outer loop
    vertex -6.973440364790339 30.415968394615692 11.0
    vertex -7.2875947673998445 20.1518210197232 11.0
    vertex -6.585885868434371 23.29298943414716 11.0
  endloop
endfacet
facet normal -0.0 -0.0 1.0
  outer loop
    vertex -6.973440364790339 30.415968394615692 11.0
    vertex -6.585885868434371 23.29298943414716 11.0
    vertex -5.1475064029657425 33.52967516003502 11.0
  endloop
endfacet
facet normal -0.0 -0.0 1.0
  outer loop
    vertex -5.1475064029657425 33.52967516003502 11.0
    vertex -6.585885868434371 23.29298943414716 11.0
    vertex -5.554543529193195 26.34186912445156 11.0
  endloop
endfacet
facet normal -0.0 -0.0 1.0
  outer loop
    vertex -5.1475064029657425 33.52967516003502 11.0
    vertex -5.554543529193195 26.34186912445156 11.0
    vertex -4.205233360670178 29.263973923356417 11.0
  endloop
endfacet
facet normal -0.0 -0.0 1.0
  outer loop
    vertex -5.1475064029657425 33.52967516003502 11.0
    vertex -4.205233360670178 29.263973923356417 11.0
    vertex -2.9936083254083137 36.42621235562854 11.0
  endloop
endfacet
facet normal -0.0 -0.0 1.0
  outer loop
    vertex -2.9936083254083137 36.42621235562854 11.0
    vertex -4.205233360670178 29.263973923356417 11.0
    vertex -2.5532175381267264 32.026251626399386 11.0
  endloop
endfacet
facet normal -0.0 -0.0 1.0
  outer loop
    vertex -2.9936083254083137 36.42621235562854 11.0
    vertex -2.5532175381267264 32.026251626399386 11.0
    vertex -2.611338271056381 36.841882500620216 11.0
  endloop
endfacet
facet normal -0.0 -0.0 1.0
  outer loop
    vertex -2.611338271056381 36.841882500620216 11.0
    vertex -2.5532175381267264 32.026251626399386 11.0
    vertex -0.61718216918016 34.59745784855469 11.0
  endloop
endfacet
facet normal -0.0 -0.0 1.0
  outer loop
    vertex -2.611338271056381 36.841882500620216 11.0
    vertex -0.61718216918016 34.59745784855469 11.0
    vertex -0.4200145546020989 34.81010850281457 11.0
  endloop
endfacet
facet normal 0.7327934916262983 -0.6804510993672789 -6.898914312659801e-18
  outer loop
    vertex 0.7124052326001404 0.7672056351078417 0.0
    vertex 0.0 0.0 11.0
    vertex 0.0 0.0 0.0
  endloop
endfacet
facet normal 0.7327934916262983 -0.6804510993672789 -6.898914312659801e-18
  outer loop
    vertex 0.0 0.0 11.0
    vertex 0.7124052326001404 0.7672056351078417 0.0
    vertex 0.7124052326001407 0.7672056351078417 11.0
  endloop
endfacet
facet normal -3.825790672033736e-18 -1.8383426457137516e-18 -1.0
  outer loop
    vertex -9.558835457165726 23.687088268702997 0.0
    vertex -9.447428989389923 16.510073370831527 0.0
    vertex -10.287594767399838 20.1518210197232 0.0
  endloop
endfacet
facet normal -3.825790672033736e-18 -1.8383426457137516e-18 -1.0
  outer loop
    vertex -9.447428989389923 16.510073370831527 0.0
    vertex -9.558835457165726 23.687088268702997 0.0
    vertex -8.449727065984282 27.12206763262542 0.0
  endloop
endfacet
facet normal -3.825790672033736e-18 -1.8383426457137516e-18 -1.0
  outer loop
    vertex -9.447428989389923 16.510073370831527 0.0
    vertex -8.449727065984282 27.12206763262542 0.0
    vertex -8.263774902655042 12.965053275584767 0.0
  endloop
endfacet
facet normal -3.825790672033736e-18 -1.8383426457137516e-18 -1.0
  outer loop
    vertex -8.263774902655042 12.965053275584767 0.0
    vertex -8.449727065984282 27.12206763262542 0.0
    vertex -6.973440364790339 30.415968394615692 0.0
  endloop
endfacet
facet normal -3.825790672033736e-18 -1.8383426457137516e-18 -1.0
  outer loop
    vertex -8.263774902655042 12.965053275584767 0.0
    vertex -6.973440364790339 30.415968394615692 0.0
    vertex -7.2875947673998445 20.1518210197232 0.0
  endloop
endfacet
facet normal -3.825790672033736e-18 -1.8383426457137516e-18 -1.0
  outer loop
    vertex -7.2875947673998445 20.1518210197232 0.0
    vertex -6.973440364790339 30.415968394615692 0.0
    vertex -6.585885868434371 23.29298943414716 0.0
  endloop
endfacet
facet normal -3.825790672033736e-18 -1.8383426457137516e-18 -1.0
  outer loop
    vertex -6.585885868434371 23.29298943414716 0.0
    vertex -6.973440364790339 30.415968394615692 0.0
    vertex -5.1475064029657425 33.52967516003502 0.0
  endloop
endfacet
facet normal -3.825790672033736e-18 -1.8383426457137516e-18 -1.0
  outer loop
    vertex -6.585885868434371 23.29298943414716 0.0
    vertex -5.1475064029657425 33.52967516003502 0.0
    vertex -5.554543529193195 26.34186912445156 0.0
  endloop
endfacet
facet normal -3.825790672033736e-18 -1.8383426457137516e-18 -1.0
  outer loop
    vertex -5.554543529193195 26.34186912445156 0.0
    vertex -5.1475064029657425 33.52967516003502 0.0
    vertex -4.205233360670178 29.263973923356417 0.0
  endloop
endfacet
facet normal -3.825790672033736e-18 -1.8383426457137516e-18 -1.0
  outer loop
    vertex -4.205233360670178 29.263973923356417 0.0
    vertex -5.1475064029657425 33.52967516003502 0.0
    vertex -2.9936083254083137 36.42621235562854 0.0
  endloop
endfacet
facet normal -3.825790672033736e-18 -1.8383426457137516e-18 -1.0
  outer loop
    vertex -4.205233360670178 29.263973923356417 0.0
    vertex -2.9936083254083137 36.42621235562854 0.0
    vertex -2.5532175381267264 32.026251626399386 0.0
  endloop
endfacet
facet normal -3.825790672033736e-18 -1.8383426457137516e-18 -1.0
  outer loop
    vertex -2.5532175381267264 32.026251626399386 0.0
    vertex -2.9936083254083137 36.42621235562854 0.0
    vertex -2.611338271056381 36.841882500620216 -3.524958103184922e-16
  endloop
endfacet
facet normal -3.825790672033736e-18 -1.8383426457137516e-18 -1.0
  outer loop
    vertex -2.5532175381267264 32.026251626399386 0.0
    vertex -2.611338271056381 36.841882500620216 -3.524958103184922e-16
    vertex -0.61718216918016 34.59745784855469 0.0
  endloop
endfacet
facet normal -3.825790672033736e-18 -1.8383426457137516e-18 -1.0
  outer loop
    vertex -0.61718216918016 34.59745784855469 0.0
    vertex -2.611338271056381 36.841882500620216 -3.524958103184922e-16
    vertex -0.4200145546020989 34.81010850281457 0.0
  endloop
endfacet
facet normal -3.825790672033736e-18 -1.8383426457137516e-18 -1.0
  outer loop
    vertex -7.2875947673998445 20.1518210197232 0.0
    vertex -6.747423230511137 9.549078732480892 0.0
    vertex -8.263774902655042 12.965053275584767 0.0
  endloop
endfacet
facet normal -3.825790672033736e-18 -1.8383426457137516e-18 -1.0
  outer loop
    vertex -6.747423230511137 9.549078732480892 0.0
    vertex -7.2875947673998445 20.1518210197232 0.0
    vertex -6.474948986358175 16.903158472217573 0.0
  endloop
endfacet
facet normal -3.825790672033736e-18 -1.8383426457137516e-18 -1.0
  outer loop
    vertex -6.747423230511137 9.549078732480892 0.0
    vertex -6.474948986358175 16.903158472217573 0.0
    vertex -4.912197717181393 6.293291302692112 0.0
  endloop
endfacet
facet normal -3.825790672033736e-18 -1.8383426457137516e-18 -1.0
  outer loop
    vertex -4.912197717181393 6.293291302692112 0.0
    vertex -6.474948986358175 16.903158472217573 0.0
    vertex -5.368858740423223 13.742341191693805 0.0
  endloop
endfacet
facet normal -3.825790672033736e-18 -1.8383426457137516e-18 -1.0
  outer loop
    vertex -4.912197717181393 6.293291302692112 0.0
    vertex -5.368858740423223 13.742341191693805 0.0
    vertex -3.978578412566562 10.695814953010585 0.0
  endloop
endfacet
facet normal -3.825790672033736e-18 -1.8383426457137516e-18 -1.0
  outer loop
    vertex -4.912197717181393 6.293291302692112 0.0
    vertex -3.978578412566562 10.695814953010585 0.0
    vertex -2.774829104322869 3.22737220957916 0.0
  endloop
endfacet
facet normal -3.825790672033736e-18 -1.8383426457137516e-18 -1.0
  outer loop
    vertex -2.774829104322869 3.22737220957916 0.0
    vertex -3.978578412566562 10.695814953010585 0.0
    vertex -2.3157401337462113 7.789069286203768 0.0
  endloop
endfacet
facet normal -3.825790672033736e-18 -1.8383426457137516e-18 -1.0
  outer loop
    vertex -2.774829104322869 3.22737220957916 0.0
    vertex -2.3157401337462113 7.789069286203768 0.0
    vertex -0.35480260605686487 0.379271751302155 0.0
  endloop
endfacet
facet normal -3.825790672033736e-18 -1.8383426457137516e-18 -1.0
  outer loop
    vertex -0.35480260605686487 0.379271751302155 0.0
    vertex -2.3157401337462113 7.789069286203768 0.0
    vertex -0.3942564597492684 5.046424211905337 0.0
  endloop
endfacet
facet normal -3.825790672033736e-18 -1.8383426457137516e-18 -1.0
  outer loop
    vertex -0.35480260605686487 0.379271751302155 0.0
    vertex -0.3942564597492684 5.046424211905337 0.0
    vertex 0.7124052326001409 3.739532715372636 0.0
  endloop
endfacet
facet normal -3.825790672033736e-18 -1.8383426457137516e-18 -1.0
  outer loop
    vertex -0.35480260605686487 0.379271751302155 0.0
    vertex 0.7124052326001409 3.739532715372636 0.0
    vertex 0.0 0.0 0.0
  endloop
endfacet
facet normal -3.825790672033736e-18 -1.8383426457137516e-18 -1.0
  outer loop
    vertex 0.0 0.0 0.0
    vertex 0.7124052326001409 3.739532715372636 0.0
    vertex 0.7124052326001404 0.7672056351078417 0.0
  endloop
endfacet
facet normal -3.825790672033736e-18 -1.8383426457137516e-18 -1.0
  outer loop
    vertex 0.7124052326001404 0.7672056351078417 0.0
    vertex 0.7124052326001409 3.739532715372636 0.0
    vertex 0.7124052326001409 2.6518210197231524 0.0
  endloop
endfacet
facet normal -3.825790672033736e-18 -1.8383426457137516e-18 -1.0
  outer loop
    vertex 0.7124052326001409 2.1518210197231524 0.0
    vertex 0.7124052326001404 0.7672056351078417 0.0
    vertex 0.7124052326001409 2.6518210197231524 0.0
  endloop
endfacet
facet normal 1.0 -0.0 -0.0
  outer loop
    vertex 0.7124052326001409 14.151821019723222 8.5
    vertex 0.7124052326001409 13.651821019723151 9.0
    vertex 0.7124052326001409 13.651821019723151 8.5
  endloop
endfacet
facet normal 1.0 -0.0 -0.0
  outer loop
    vertex 0.7124052326001409 13.651821019723151 9.0
    vertex 0.7124052326001409 3.739532715372636 10.0
    vertex 0.7124052326001409 3.739532715372636 9.000000000000002
  endloop
endfacet
facet normal 1.0 -0.0 -0.0
  outer loop
    vertex 0.7124052326001409 3.739532715372636 10.0
    vertex 0.7124052326001409 13.651821019723151 9.0
    vertex 0.7124052326001409 14.151821019723222 10.0
  endloop
endfacet
facet normal 1.0 -0.0 -0.0
  outer loop
    vertex 0.7124052326001409 14.151821019723222 10.0
    vertex 0.7124052326001409 13.651821019723151 9.0
    vertex 0.7124052326001409 14.151821019723222 8.5
  endloop
endfacet
facet normal 1.0 1.130454669104287e-32 -1.065234591621802e-17
  outer loop
    vertex 0.7124052326001409 2.1518210197231524 0.0
    vertex 0.7124052326001409 2.6518210197231515 7.999999999999999
    vertex 0.7124052326001409 2.151821019723152 7.999999999999999
  endloop
endfacet
facet normal 1.0 1.130454669104287e-32 -1.065234591621802e-17
  outer loop
    vertex 0.7124052326001409 2.6518210197231515 7.999999999999999
    vertex 0.7124052326001409 2.1518210197231524 0.0
    vertex 0.7124052326001409 2.6518210197231524 0.0
  endloop
endfacet
facet normal 1.0 -1.0414056647938088e-16 -1.1375089577467216e-17
  outer loop
    vertex 0.7124052326001409 2.1518210197231524 0.0
    vertex 0.7124052326001407 0.7672056351078417 11.0
    vertex 0.7124052326001404 0.7672056351078417 0.0
  endloop
endfacet
facet normal 1.0 -1.0414056647938088e-16 -1.1375089577467216e-17
  outer loop
    vertex 0.7124052326001407 0.7672056351078417 11.0
    vertex 0.7124052326001409 2.1518210197231524 0.0
    vertex 0.7124052326001409 2.151821019723152 7.999999999999999
  endloop
endfacet
facet normal 1.0 -1.0414056647938088e-16 -1.1375089577467216e-17
  outer loop
    vertex 0.7124052326001407 0.7672056351078417 11.0
    vertex 0.7124052326001409 2.1518210197231524 8.5
    vertex 0.7124052326001409 3.739532715372636 11.0
  endloop
endfacet
facet normal 1.0 -1.0414056647938088e-16 -1.1375089577467216e-17
  outer loop
    vertex 0.7124052326001409 2.1518210197231524 8.5
    vertex 0.7124052326001407 0.7672056351078417 11.0
    vertex 0.7124052326001409 2.151821019723152 7.999999999999999
  endloop
endfacet
facet normal 1.0 -1.0414056647938088e-16 -1.1375089577467216e-17
  outer loop
    vertex 0.7124052326001409 3.739532715372636 11.0
    vertex 0.7124052326001409 2.1518210197231524 8.5
    vertex 0.7124052326001409 2.6518210197231524 9.0
  endloop
endfacet
facet normal 1.0 -1.0414056647938088e-16 -1.1375089577467216e-17
  outer loop
    vertex 0.7124052326001409 2.6518210197231524 9.0
    vertex 0.7124052326001409 2.1518210197231524 8.5
    vertex 0.7124052326001409 2.6518210197231524 8.5
  endloop
endfacet
facet normal 1.0 -1.0414056647938088e-16 -1.1375089577467216e-17
  outer loop
    vertex 0.7124052326001409 3.739532715372636 11.0
    vertex 0.7124052326001409 2.6518210197231524 9.0
    vertex 0.7124052326001409 3.739532715372636 9.000000000000002
  endloop
endfacet
facet normal 1.0 -1.0414056647938088e-16 -1.1375089577467216e-17
  outer loop
    vertex 0.7124052326001409 3.739532715372636 11.0
    vertex 0.7124052326001409 3.739532715372636 9.000000000000002
    vertex 0.7124052326001409 3.739532715372636 10.0
  endloop
endfacet
facet normal 1.0 -0.0 -0.0
  outer loop
    vertex 0.7124052326001409 26.15182101972315 8.500000000000002
    vertex 0.7124052326001409 25.65182101972315 9.0
    vertex 0.7124052326001409 25.65182101972315 8.5
  endloop
endfacet
facet normal 1.0 -0.0 -0.0
  outer loop
    vertex 0.7124052326001409 14.651821019723151 8.5
    vertex 0.7124052326001409 14.151821019723222 10.0
    vertex 0.7124052326001409 14.151821019723222 8.5
  endloop
endfacet
facet normal 1.0 -0.0 -0.0
  outer loop
    vertex 0.7124052326001409 14.151821019723222 10.0
    vertex 0.7124052326001409 14.651821019723151 8.5
    vertex 0.7124052326001409 14.651821019723151 9.0
  endloop
endfacet
facet normal 1.0 -0.0 -0.0
  outer loop
    vertex 0.7124052326001409 14.151821019723222 10.0
    vertex 0.7124052326001409 14.651821019723151 9.0
    vertex 0.7124052326001409 26.15182101972315 10.0
  endloop
endfacet
facet normal 1.0 -0.0 -0.0
  outer loop
    vertex 0.7124052326001409 26.15182101972315 10.0
    vertex 0.7124052326001409 14.651821019723151 9.0
    vertex 0.7124052326001409 25.65182101972315 9.0
  endloop
endfacet
facet normal 1.0 -0.0 -0.0
  outer loop
    vertex 0.7124052326001409 26.15182101972315 10.0
    vertex 0.7124052326001409 25.65182101972315 9.0
    vertex 0.7124052326001409 26.15182101972315 8.500000000000002
  endloop
endfacet
facet normal 1.0 -0.0 -0.0
  outer loop
    vertex 18.71240523260014 20.15182101972315 7.999999999999999
    vertex 18.71240523260014 14.651821019723151 9.0
    vertex 18.71240523260014 14.651821019723151 7.999999999999999
  endloop
endfacet
facet normal 1.0 -0.0 -0.0
  outer loop
    vertex 18.71240523260014 14.651821019723151 9.0
    vertex 18.71240523260014 20.15182101972315 7.999999999999999
    vertex 18.71240523260014 20.15182101972315 9.0
  endloop
endfacet
facet normal -0.0 -1.0 -0.0
  outer loop
    vertex 18.71240523260014 14.651821019723151 9.0
    vertex 0.7124052326001409 14.651821019723151 7.999999999999999
    vertex 18.71240523260014 14.651821019723151 7.999999999999999
  endloop
endfacet
facet normal -0.0 -1.0 -0.0
  outer loop
    vertex 0.7124052326001409 14.651821019723151 7.999999999999999
    vertex 18.71240523260014 14.651821019723151 9.0
    vertex 0.7124052326001409 14.651821019723151 8.5
  endloop
endfacet
facet normal -0.0 -1.0 -0.0
  outer loop
    vertex 0.7124052326001409 14.651821019723151 8.5
    vertex 18.71240523260014 14.651821019723151 9.0
    vertex 0.7124052326001409 14.651821019723151 9.0
  endloop
endfacet
facet normal 0.0 0.0 -1.0
  outer loop
    vertex 18.71240523260014 25.65182101972315 7.999999999999999
    vertex 0.7124052326001409 14.651821019723151 7.999999999999999
    vertex 0.7124052326001409 25.65182101972315 7.999999999999999
  endloop
endfacet
facet normal 0.0 0.0 -1.0
  outer loop
    vertex 0.7124052326001409 14.651821019723151 7.999999999999999
    vertex 18.71240523260014 25.65182101972315 7.999999999999999
    vertex 18.71240523260014 14.651821019723151 7.999999999999999
  endloop
endfacet
facet normal 0.0 0.0 -1.0
  outer loop
    vertex 18.71240523260014 14.651821019723151 7.999999999999999
    vertex 18.71240523260014 25.65182101972315 7.999999999999999
    vertex 18.71240523260014 20.15182101972315 7.999999999999999
  endloop
endfacet
facet normal 0.0 1.0 -0.0
  outer loop
    vertex 0.7124052326001409 25.65182101972315 8.5
    vertex 18.71240523260014 25.65182101972315 7.999999999999999
    vertex 0.7124052326001409 25.65182101972315 7.999999999999999
  endloop
endfacet
facet normal 0.0 1.0 -0.0
  outer loop
    vertex 18.71240523260014 25.65182101972315 7.999999999999999
    vertex 0.7124052326001409 25.65182101972315 8.5
    vertex 18.71240523260014 25.65182101972315 9.0
  endloop
endfacet
facet normal 0.0 1.0 -0.0
  outer loop
    vertex 18.71240523260014 25.65182101972315 9.0
    vertex 0.7124052326001409 25.65182101972315 8.5
    vertex 0.7124052326001409 25.65182101972315 9.0
  endloop
endfacet
facet normal 1.0 -0.0 -0.0
  outer loop
    vertex 18.71240523260014 25.65182101972315 7.999999999999999
    vertex 18.71240523260014 20.15182101972315 9.0
    vertex 18.71240523260014 20.15182101972315 7.999999999999999
  endloop
endfacet
facet normal 1.0 -0.0 -0.0
  outer loop
    vertex 18.71240523260014 20.15182101972315 9.0
    vertex 18.71240523260014 25.65182101972315 7.999999999999999
    vertex 18.71240523260014 25.65182101972315 9.0
  endloop
endfacet
facet normal 0.0 0.0 -1.0
  outer loop
    vertex 18.71240523260014 44.65182101972315 7.999999999999999
    vertex 0.7124052326001409 26.651821019723148 7.999999999999999
    vertex 0.7124052326001409 35.531454154131374 7.999999999999999
  endloop
endfacet
facet normal 0.0 0.0 -1.0
  outer loop
    vertex 0.7124052326001409 26.651821019723148 7.999999999999999
    vertex 18.71240523260014 44.65182101972315 7.999999999999999
    vertex 18.71240523260014 26.651821019723148 7.999999999999999
  endloop
endfacet
facet normal -0.45197926010403816 0.8920284459790542 -0.0
  outer loop
    vertex 0.7124052326001409 35.531454154131374 9.0
    vertex 18.71240523260014 44.65182101972315 7.999999999999999
    vertex 0.7124052326001409 35.531454154131374 7.999999999999999
  endloop
endfacet
facet normal -0.45197926010403816 0.8920284459790542 -0.0
  outer loop
    vertex 18.71240523260014 44.65182101972315 7.999999999999999
    vertex 0.7124052326001409 35.531454154131374 9.0
    vertex 18.71240523260014 44.65182101972315 9.0
  endloop
endfacet
facet normal 0.0 -1.0 0.0
  outer loop
    vertex 18.71240523260014 26.651821019723148 9.0
    vertex 0.7124052326001409 26.651821019723148 7.999999999999999
    vertex 18.71240523260014 26.651821019723148 7.999999999999999
  endloop
endfacet
facet normal 0.0 -1.0 0.0
  outer loop
    vertex 0.7124052326001409 26.651821019723148 7.999999999999999
    vertex 18.71240523260014 26.651821019723148 9.0
    vertex 0.7124052326001409 26.651821019723148 8.5
  endloop
endfacet
facet normal 0.0 -1.0 0.0
  outer loop
    vertex 0.7124052326001409 26.651821019723148 8.5
    vertex 18.71240523260014 26.651821019723148 9.0
    vertex 0.7124052326001409 26.651821019723148 9.0
  endloop
endfacet
facet normal 1.0 -0.0 0.0
  outer loop
    vertex 18.71240523260014 44.65182101972315 7.999999999999999
    vertex 18.71240523260014 26.651821019723148 9.0
    vertex 18.71240523260014 26.651821019723148 7.999999999999999
  endloop
endfacet
facet normal 1.0 -0.0 0.0
  outer loop
    vertex 18.71240523260014 26.651821019723148 9.0
    vertex 18.71240523260014 44.65182101972315 7.999999999999999
    vertex 18.71240523260014 44.65182101972315 9.0
  endloop
endfacet
facet normal 1.0 -0.0 -0.0
  outer loop
    vertex 0.7124052326001409 35.531454154131374 0.0
    vertex 0.7124052326001409 26.651821019723148 7.999999999999999
    vertex 0.7124052326001409 26.651821019723148 0.0
  endloop
endfacet
facet normal 1.0 -0.0 -0.0
  outer loop
    vertex 0.7124052326001409 26.651821019723148 7.999999999999999
    vertex 0.7124052326001409 35.531454154131374 0.0
    vertex 0.7124052326001409 35.531454154131374 7.999999999999999
  endloop
endfacet
facet normal 1.0 -0.0 -0.0
  outer loop
    vertex 0.7124052326001409 2.6518210197231515 7.999999999999999
    vertex 0.7124052326001409 2.1518210197231524 8.5
    vertex 0.7124052326001409 2.151821019723152 7.999999999999999
  endloop
endfacet
facet normal 1.0 -0.0 -0.0
  outer loop
    vertex 0.7124052326001409 2.1518210197231524 8.5
    vertex 0.7124052326001409 2.6518210197231515 7.999999999999999
    vertex 0.7124052326001409 2.6518210197231524 8.5
  endloop
endfacet
facet normal 0.0 0.0 -1.0
  outer loop
    vertex 18.71240523260014 13.651821019723151 7.999999999999999
    vertex 0.7124052326001409 2.6518210197231515 7.999999999999999
    vertex 0.7124052326001409 13.651821019723151 7.999999999999999
  endloop
endfacet
facet normal 0.0 0.0 -1.0
  outer loop
    vertex 0.7124052326001409 2.6518210197231515 7.999999999999999
    vertex 18.71240523260014 13.651821019723151 7.999999999999999
    vertex 18.71240523260014 -4.348178980276851 7.999999999999999
  endloop
endfacet
facet normal -0.36244626115494855 -0.9320046715412961 5.21537790290956e-16
  outer loop
    vertex 18.71240523260014 -4.348178980276851 9.0
    vertex 0.7124052326001409 2.6518210197231515 7.999999999999999
    vertex 18.71240523260014 -4.348178980276851 7.999999999999999
  endloop
endfacet
facet normal -0.36244626115494855 -0.9320046715412961 5.21537790290956e-16
  outer loop
    vertex 0.7124052326001409 2.6518210197231515 7.999999999999999
    vertex 18.71240523260014 -4.348178980276851 9.0
    vertex 0.7124052326001409 2.6518210197231524 8.5
  endloop
endfacet
facet normal -0.36244626115494855 -0.9320046715412961 5.21537790290956e-16
  outer loop
    vertex 0.7124052326001409 2.6518210197231524 8.5
    vertex 18.71240523260014 -4.348178980276851 9.0
    vertex 0.7124052326001409 2.6518210197231524 9.0
  endloop
endfacet
facet normal -0.0 1.0 -0.0
  outer loop
    vertex 0.7124052326001409 13.651821019723151 8.5
    vertex 18.71240523260014 13.651821019723151 7.999999999999999
    vertex 0.7124052326001409 13.651821019723151 7.999999999999999
  endloop
endfacet
facet normal -0.0 1.0 -0.0
  outer loop
    vertex 18.71240523260014 13.651821019723151 7.999999999999999
    vertex 0.7124052326001409 13.651821019723151 8.5
    vertex 18.71240523260014 13.651821019723151 9.0
  endloop
endfacet
facet normal -0.0 1.0 -0.0
  outer loop
    vertex 18.71240523260014 13.651821019723151 9.0
    vertex 0.7124052326001409 13.651821019723151 8.5
    vertex 0.7124052326001409 13.651821019723151 9.0
  endloop
endfacet
facet normal 1.0 0.0 0.0
  outer loop
    vertex 18.71240523260014 13.651821019723151 7.999999999999999
    vertex 18.71240523260014 -4.348178980276851 9.0
    vertex 18.71240523260014 -4.348178980276851 7.999999999999999
  endloop
endfacet
facet normal 1.0 0.0 0.0
  outer loop
    vertex 18.71240523260014 -4.348178980276851 9.0
    vertex 18.71240523260014 13.651821019723151 7.999999999999999
    vertex 18.71240523260014 13.651821019723151 9.0
  endloop
endfacet
facet normal 1.0 -2.650211489674845e-18 -3.184602309153089e-18
  outer loop
    vertex 0.7124052326001409 2.6518210197231524 0.0
    vertex 0.7124052326001409 13.651821019723151 7.999999999999999
    vertex 0.7124052326001409 2.6518210197231515 7.999999999999999
  endloop
endfacet
facet normal 1.0 -2.650211489674845e-18 -3.184602309153089e-18
  outer loop
    vertex 0.7124052326001409 13.651821019723151 7.999999999999999
    vertex 0.7124052326001409 2.6518210197231524 0.0
    vertex 0.7124052326001409 3.739532715372636 0.0
  endloop
endfacet
facet normal 1.0 -2.650211489674845e-18 -3.184602309153089e-18
  outer loop
    vertex 0.7124052326001409 13.651821019723151 7.999999999999999
    vertex 0.7124052326001409 3.739532715372636 0.0
    vertex 0.7124052326001409 13.651821019723151 0.0
  endloop
endfacet
facet normal 2.809641541419868e-17 1.7613053385791157e-17 1.0
  outer loop
    vertex 18.71240523260014 -4.348178980276851 9.0
    vertex 0.7124052326001409 3.739532715372636 9.000000000000002
    vertex 0.7124052326001409 2.6518210197231524 9.0
  endloop
endfacet
facet normal 2.809641541419868e-17 1.7613053385791157e-17 1.0
  outer loop
    vertex 0.7124052326001409 3.739532715372636 9.000000000000002
    vertex 18.71240523260014 -4.348178980276851 9.0
    vertex 0.7124052326001409 13.651821019723151 9.0
  endloop
endfacet
facet normal 2.809641541419868e-17 1.7613053385791157e-17 1.0
  outer loop
    vertex 0.7124052326001409 13.651821019723151 9.0
    vertex 18.71240523260014 -4.348178980276851 9.0
    vertex 18.71240523260014 13.651821019723151 9.0
  endloop
endfacet
facet normal 0.0 0.0 1.0
  outer loop
    vertex 18.71240523260014 14.651821019723151 9.0
    vertex 0.7124052326001409 25.65182101972315 9.0
    vertex 0.7124052326001409 14.651821019723151 9.0
  endloop
endfacet
facet normal 0.0 0.0 1.0
  outer loop
    vertex 0.7124052326001409 25.65182101972315 9.0
    vertex 18.71240523260014 14.651821019723151 9.0
    vertex 18.71240523260014 25.65182101972315 9.0
  endloop
endfacet
facet normal 0.0 0.0 1.0
  outer loop
    vertex 18.71240523260014 25.65182101972315 9.0
    vertex 18.71240523260014 14.651821019723151 9.0
    vertex 18.71240523260014 20.15182101972315 9.0
  endloop
endfacet
facet normal 0.0 0.0 1.0
  outer loop
    vertex 18.71240523260014 26.651821019723148 9.0
    vertex 0.7124052326001409 35.531454154131374 9.0
    vertex 0.7124052326001409 26.651821019723148 9.0
  endloop
endfacet
facet normal 0.0 0.0 1.0
  outer loop
    vertex 0.7124052326001409 35.531454154131374 9.0
    vertex 18.71240523260014 26.651821019723148 9.0
    vertex 18.71240523260014 44.65182101972315 9.0
  endloop
endfacet
endsolid cruise-inner
